<svg xmlns="http://www.w3.org/2000/svg" xmlns:xlink="http://www.w3.org/1999/xlink" fill="none" version="1.1" width="32" height="32" viewBox="0 0 32 32"><g><g/><g><g transform="matrix(0.7071067094802856,0.7071067094802856,-0.7071067094802856,0.7071067094802856,6.413490809465756,-2.6565361487106287)"><path d="M6.413469314575195,5.413499712944031L33.52766931457519,5.413499712944031Q33.62606931457519,5.413499712944031,33.7226693145752,5.432714712944031Q33.819269314575195,5.451929712944031,33.910269314575196,5.48962071294403Q34.0012693145752,5.527311712944031,34.083169314575194,5.58202971294403Q34.16506931457519,5.636748712944031,34.234769314575196,5.706392712944031Q34.3043693145752,5.77603671294403,34.359069314575194,5.85792971294403Q34.41376931457519,5.939821712944031,34.45146931457519,6.030816712944031Q34.48916931457519,6.121810712944031,34.50836931457519,6.21840971294403Q34.52766931457519,6.31500831294403,34.52766931457519,6.413499712944031Q34.52766931457519,6.511991112944031,34.50836931457519,6.608589712944031Q34.48916931457519,6.705188712944031,34.45146931457519,6.796182712944031Q34.41376931457519,6.88717771294403,34.359069314575194,6.969069712944031Q34.3043693145752,7.050962712944031,34.234769314575196,7.1206067129440305Q34.16506931457519,7.190250712944031,34.083169314575194,7.244969712944031Q34.0012693145752,7.2996877129440305,33.910269314575196,7.337378712944031Q33.819269314575195,7.375069712944031,33.7226693145752,7.394284712944031Q33.62606931457519,7.413499712944031,33.52766931457519,7.413499712944031L6.413469314575195,7.413499712944031Q6.314977914575195,7.413499712944031,6.218379314575195,7.394284712944031Q6.1217803145751954,7.375069712944031,6.030786314575195,7.337378712944031Q5.939791314575196,7.2996877129440305,5.857899314575195,7.244969712944031Q5.776006314575195,7.190250712944031,5.706362314575196,7.1206067129440305Q5.636718314575195,7.050962712944031,5.581999314575195,6.969069712944031Q5.527281314575196,6.88717771294403,5.489590314575195,6.796182712944031Q5.451899314575195,6.705188712944031,5.432684314575195,6.608589712944031Q5.413469314575195,6.511991112944031,5.413469314575195,6.413499712944031Q5.413469314575195,6.31500831294403,5.432684314575195,6.21840971294403Q5.451899314575195,6.121810712944031,5.489590314575195,6.030816712944031Q5.527281314575196,5.939821712944031,5.581999314575195,5.85792971294403Q5.636718314575195,5.77603671294403,5.706362314575196,5.706392712944031Q5.776006314575195,5.636748712944031,5.857899314575195,5.58202971294403Q5.939791314575196,5.527311712944031,6.030786314575195,5.48962071294403Q6.1217803145751954,5.451929712944031,6.218379314575195,5.432714712944031Q6.314977914575195,5.413499712944031,6.413469314575195,5.413499712944031Z" fill-rule="evenodd" fill="#FFFFFF" fill-opacity="1"/></g><g transform="matrix(0.7071067094802856,0.7071067094802856,-0.7071067094802856,0.7071067094802856,7.908689924218397,-6.987784994677458)"><path d="M12.389348983764648,5.052739530801773L31.562348983764647,5.052739530801773Q31.660848983764648,5.052739530801773,31.757448983764647,5.071954530801773Q31.85404898376465,5.091169530801773,31.94504898376465,5.128860530801773Q32.036048983764644,5.166551530801773,32.11794898376465,5.221269530801773Q32.19984898376465,5.275988530801773,32.26944898376465,5.345632530801773Q32.339148983764645,5.415276530801773,32.39384898376465,5.497169530801773Q32.44854898376465,5.5790615308017735,32.48624898376465,5.670056530801773Q32.52394898376465,5.761050530801773,32.54314898376465,5.857649530801773Q32.56234898376465,5.954248130801773,32.56234898376465,6.052739530801773Q32.56234898376465,6.151230930801773,32.54314898376465,6.2478295308017735Q32.52394898376465,6.344428530801773,32.48624898376465,6.435422530801773Q32.44854898376465,6.526417530801773,32.39384898376465,6.608309530801773Q32.339148983764645,6.690202530801773,32.26944898376465,6.759846530801773Q32.19984898376465,6.829490530801773,32.11794898376465,6.8842095308017734Q32.036048983764644,6.938927530801773,31.94504898376465,6.976618530801773Q31.85404898376465,7.014309530801773,31.757448983764647,7.033524530801773Q31.660848983764648,7.052739530801773,31.562348983764647,7.052739530801773L12.389348983764648,7.052739530801773Q12.290857583764648,7.052739530801773,12.194258983764648,7.033524530801773Q12.097659983764649,7.014309530801773,12.006665983764648,6.976618530801773Q11.915670983764649,6.938927530801773,11.833778983764649,6.8842095308017734Q11.751885983764648,6.829490530801773,11.682241983764648,6.759846530801773Q11.612597983764648,6.690202530801773,11.557878983764649,6.608309530801773Q11.503160983764648,6.526417530801773,11.465469983764649,6.435422530801773Q11.427778983764648,6.344428530801773,11.408563983764648,6.2478295308017735Q11.389348983764648,6.151230930801773,11.389348983764648,6.052739530801773Q11.389348983764648,5.954248130801773,11.408563983764648,5.857649530801773Q11.427778983764648,5.761050530801773,11.465469983764649,5.670056530801773Q11.503160983764648,5.5790615308017735,11.557878983764649,5.497169530801773Q11.612597983764648,5.415276530801773,11.682241983764648,5.345632530801773Q11.751885983764648,5.275988530801773,11.833778983764649,5.221269530801773Q11.915670983764649,5.166551530801773,12.006665983764648,5.128860530801773Q12.097659983764649,5.091169530801773,12.194258983764648,5.071954530801773Q12.290857583764648,5.052739530801773,12.389348983764648,5.052739530801773Z" fill-rule="evenodd" fill="#FFFFFF" fill-opacity="1"/></g><g transform="matrix(0.7071067094802856,0.7071067094802856,-0.7071067094802856,0.7071067094802856,10.533411257325099,-0.6511450873567242)"><path d="M6.052709102630615,11.389379501342773L25.225709102630614,11.389379501342773Q25.324209102630615,11.389379501342773,25.420809102630614,11.408594501342773Q25.517409102630616,11.427809501342773,25.608409102630617,11.465500501342774Q25.699409102630614,11.503191501342773,25.781309102630615,11.557909501342774Q25.863209102630616,11.612628501342773,25.932809102630614,11.682272501342773Q26.002509102630615,11.751916501342773,26.057209102630615,11.833809501342774Q26.111909102630616,11.915701501342774,26.149609102630617,12.006696501342773Q26.187309102630614,12.097690501342774,26.206509102630616,12.194289501342773Q26.225709102630614,12.290888101342773,26.225709102630614,12.389379501342773Q26.225709102630614,12.487870901342774,26.206509102630616,12.584469501342774Q26.187309102630614,12.681068501342773,26.149609102630617,12.772062501342774Q26.111909102630616,12.863057501342773,26.057209102630615,12.944949501342773Q26.002509102630615,13.026842501342774,25.932809102630614,13.096486501342774Q25.863209102630616,13.166130501342774,25.781309102630615,13.220849501342773Q25.699409102630614,13.275567501342774,25.608409102630617,13.313258501342773Q25.517409102630616,13.350949501342773,25.420809102630614,13.370164501342774Q25.324209102630615,13.389379501342773,25.225709102630614,13.389379501342773L6.052709102630615,13.389379501342773Q5.954217702630615,13.389379501342773,5.857619102630615,13.370164501342774Q5.761020102630615,13.350949501342773,5.670026102630615,13.313258501342773Q5.579031102630616,13.275567501342774,5.497139102630615,13.220849501342773Q5.415246102630615,13.166130501342774,5.3456021026306155,13.096486501342774Q5.275958102630615,13.026842501342774,5.221239102630615,12.944949501342773Q5.1665211026306155,12.863057501342773,5.128830102630615,12.772062501342774Q5.091139102630615,12.681068501342773,5.071924102630615,12.584469501342774Q5.052709102630615,12.487870901342774,5.052709102630615,12.389379501342773Q5.052709102630615,12.290888101342773,5.071924102630615,12.194289501342773Q5.091139102630615,12.097690501342774,5.128830102630615,12.006696501342773Q5.1665211026306155,11.915701501342774,5.221239102630615,11.833809501342774Q5.275958102630615,11.751916501342773,5.3456021026306155,11.682272501342773Q5.415246102630615,11.612628501342773,5.497139102630615,11.557909501342774Q5.579031102630616,11.503191501342773,5.670026102630615,11.465500501342774Q5.761020102630615,11.427809501342773,5.857619102630615,11.408594501342773Q5.954217702630615,11.389379501342773,6.052709102630615,11.389379501342773Z" fill-rule="evenodd" fill="#FFFFFF" fill-opacity="1"/></g><g transform="matrix(0.7071067094802856,0.7071067094802856,-0.7071067094802856,0.7071067094802856,9.734723195896304,-11.45606997992898)"><path d="M18.69606304168701,5.022813409566879L28.99226304168701,5.022813409566879Q29.090763041687012,5.022813409566879,29.187363041687014,5.042028409566879Q29.28396304168701,5.061243409566879,29.37496304168701,5.098934409566879Q29.46596304168701,5.1366254095668795,29.547863041687012,5.191343409566879Q29.629763041687013,5.246062409566879,29.69936304168701,5.31570640956688Q29.769063041687012,5.385350409566879,29.823763041687013,5.467243409566879Q29.878463041687013,5.54913540956688,29.916163041687014,5.640130409566879Q29.95386304168701,5.731124409566879,29.973063041687013,5.827723409566879Q29.99226304168701,5.924322009566879,29.99226304168701,6.022813409566879Q29.99226304168701,6.12130480956688,29.973063041687013,6.21790340956688Q29.95386304168701,6.314502409566879,29.916163041687014,6.405496409566879Q29.878463041687013,6.496491409566879,29.823763041687013,6.57838340956688Q29.769063041687012,6.66027640956688,29.69936304168701,6.729920409566879Q29.629763041687013,6.799564409566879,29.547863041687012,6.85428340956688Q29.46596304168701,6.909001409566879,29.37496304168701,6.94669240956688Q29.28396304168701,6.984383409566879,29.187363041687014,7.003598409566879Q29.090763041687012,7.022813409566879,28.99226304168701,7.022813409566879L18.69606304168701,7.022813409566879Q18.59757164168701,7.022813409566879,18.50097304168701,7.003598409566879Q18.40437404168701,6.984383409566879,18.31338004168701,6.94669240956688Q18.222385041687012,6.909001409566879,18.140493041687012,6.85428340956688Q18.05860004168701,6.799564409566879,17.98895604168701,6.729920409566879Q17.91931204168701,6.66027640956688,17.864593041687012,6.57838340956688Q17.80987504168701,6.496491409566879,17.772184041687012,6.405496409566879Q17.73449304168701,6.314502409566879,17.71527804168701,6.21790340956688Q17.69606304168701,6.12130480956688,17.69606304168701,6.022813409566879Q17.69606304168701,5.924322009566879,17.71527804168701,5.827723409566879Q17.73449304168701,5.731124409566879,17.772184041687012,5.640130409566879Q17.80987504168701,5.54913540956688,17.864593041687012,5.467243409566879Q17.91931204168701,5.385350409566879,17.98895604168701,5.31570640956688Q18.05860004168701,5.246062409566879,18.140493041687012,5.191343409566879Q18.222385041687012,5.1366254095668795,18.31338004168701,5.098934409566879Q18.40437404168701,5.061243409566879,18.50097304168701,5.042028409566879Q18.59757164168701,5.022813409566879,18.69606304168701,5.022813409566879Z" fill-rule="evenodd" fill="#FFFFFF" fill-opacity="1"/></g><g transform="matrix(0.7071067094802856,0.7071067094802856,-0.7071067094802856,0.7071067094802856,11.320879251184806,-15.825155372078598)"><path d="M24.763093948364258,4.7529296875L26.86170394836426,4.7529296875Q26.960193948364257,4.7529296875,27.05679394836426,4.7721446875Q27.153393948364258,4.7913596875,27.24438394836426,4.8290506875Q27.335373948364257,4.8667416875,27.417273948364258,4.9214596875Q27.499163948364256,4.9761786875,27.56880394836426,5.0458226875Q27.63845394836426,5.1154666875,27.693173948364258,5.1973596875Q27.747893948364258,5.2792516875,27.78558394836426,5.3702466875Q27.823273948364257,5.4612406875,27.842483948364258,5.5578396875Q27.86170394836426,5.6544382875,27.86170394836426,5.7529296875Q27.86170394836426,5.8514210875,27.842483948364258,5.9480196875Q27.823273948364257,6.0446186875,27.78558394836426,6.1356126875Q27.747893948364258,6.2266076875,27.693173948364258,6.3084996875Q27.63845394836426,6.3903926875,27.56880394836426,6.4600366875Q27.499163948364256,6.5296806875,27.417273948364258,6.5843996875Q27.335373948364257,6.6391176875,27.24438394836426,6.6768086875Q27.153393948364258,6.7144996875,27.05679394836426,6.7337146875Q26.960193948364257,6.7529296875,26.86170394836426,6.7529296875L24.763093948364258,6.7529296875Q24.664602548364257,6.7529296875,24.568003948364257,6.7337146875Q24.471404948364256,6.7144996875,24.380410948364258,6.6768086875Q24.289415948364258,6.6391176875,24.20752394836426,6.5843996875Q24.125630948364257,6.5296806875,24.055986948364257,6.4600366875Q23.986342948364257,6.3903926875,23.93162394836426,6.3084996875Q23.876905948364257,6.2266076875,23.83921494836426,6.1356126875Q23.801523948364256,6.0446186875,23.782308948364257,5.9480196875Q23.763093948364258,5.8514210875,23.763093948364258,5.7529296875Q23.763093948364258,5.6544382875,23.782308948364257,5.5578396875Q23.801523948364256,5.4612406875,23.83921494836426,5.3702466875Q23.876905948364257,5.2792516875,23.93162394836426,5.1973596875Q23.986342948364257,5.1154666875,24.055986948364257,5.0458226875Q24.125630948364257,4.9761786875,24.20752394836426,4.9214596875Q24.289415948364258,4.8667416875,24.380410948364258,4.8290506875Q24.471404948364256,4.7913596875,24.568003948364257,4.7721446875Q24.664602548364257,4.7529296875,24.763093948364258,4.7529296875Z" fill-rule="evenodd" fill="#FFFFFF" fill-opacity="1"/></g><g transform="matrix(0.7071067094802856,0.7071067094802856,-0.7071067094802856,0.7071067094802856,19.195237471014707,3.1848451937055415)"><path d="M5.753173828125,23.763124465942383L7.851783828125,23.763124465942383Q7.950273828125,23.763124465942383,8.046873828125,23.782339465942382Q8.143473828125,23.80155446594238,8.234463828125,23.839245465942383Q8.325453828125,23.876936465942382,8.407353828125,23.931654465942383Q8.489243828125,23.986373465942382,8.558883828125,24.056017465942382Q8.628533828125,24.125661465942382,8.683253828125,24.207554465942383Q8.737973828125,24.289446465942383,8.775663828125,24.380441465942383Q8.813353828124999,24.47143546594238,8.832563828125,24.568034465942382Q8.851783828125,24.664633065942382,8.851783828125,24.763124465942383Q8.851783828125,24.861615865942383,8.832563828125,24.958214465942383Q8.813353828124999,25.054813465942384,8.775663828125,25.145807465942383Q8.737973828125,25.236802465942382,8.683253828125,25.318694465942382Q8.628533828125,25.400587465942383,8.558883828125,25.470231465942383Q8.489243828125,25.539875465942384,8.407353828125,25.594594465942382Q8.325453828125,25.649312465942383,8.234463828125,25.687003465942382Q8.143473828125,25.724694465942385,8.046873828125,25.743909465942384Q7.950273828125,25.763124465942383,7.851783828125,25.763124465942383L5.753173828125,25.763124465942383Q5.654682428125,25.763124465942383,5.558083828125,25.743909465942384Q5.461484828125,25.724694465942385,5.370490828125,25.687003465942382Q5.279495828125,25.649312465942383,5.197603828125,25.594594465942382Q5.115710828125,25.539875465942384,5.046066828125,25.470231465942383Q4.976422828125,25.400587465942383,4.921703828125,25.318694465942382Q4.866985828125,25.236802465942382,4.829294828125,25.145807465942383Q4.791603828125,25.054813465942384,4.772388828125,24.958214465942383Q4.753173828125,24.861615865942383,4.753173828125,24.763124465942383Q4.753173828125,24.664633065942382,4.772388828125,24.568034465942382Q4.791603828125,24.47143546594238,4.829294828125,24.380441465942383Q4.866985828125,24.289446465942383,4.921703828125,24.207554465942383Q4.976422828125,24.125661465942382,5.046066828125,24.056017465942382Q5.115710828125,23.986373465942382,5.197603828125,23.931654465942383Q5.279495828125,23.876936465942382,5.370490828125,23.839245465942383Q5.461484828125,23.80155446594238,5.558083828125,23.782339465942382Q5.654682428125,23.763124465942383,5.753173828125,23.763124465942383Z" fill-rule="evenodd" fill="#FFFFFF" fill-opacity="1"/></g><g transform="matrix(0.7071067094802856,0.7071067094802856,-0.7071067094802856,0.7071067094802856,14.984246341692842,1.217015957111034)"><path d="M6.023057550191879,17.696093559265137L16.319257550191878,17.696093559265137Q16.41775755019188,17.696093559265137,16.514357550191882,17.715308559265136Q16.610957550191877,17.734523559265135,16.701957550191878,17.772214559265137Q16.79295755019188,17.809905559265136,16.87485755019188,17.864623559265137Q16.95675755019188,17.919342559265136,17.02635755019188,17.988986559265136Q17.09605755019188,18.058630559265136,17.15075755019188,18.140523559265137Q17.20545755019188,18.222415559265137,17.24315755019188,18.313410559265137Q17.28085755019188,18.404404559265135,17.30005755019188,18.501003559265136Q17.319257550191878,18.597602159265136,17.319257550191878,18.696093559265137Q17.319257550191878,18.794584959265137,17.30005755019188,18.891183559265137Q17.28085755019188,18.98778255926514,17.24315755019188,19.078776559265137Q17.20545755019188,19.169771559265136,17.15075755019188,19.251663559265136Q17.09605755019188,19.333556559265137,17.02635755019188,19.403200559265137Q16.95675755019188,19.472844559265138,16.87485755019188,19.527563559265136Q16.79295755019188,19.582281559265137,16.701957550191878,19.619972559265136Q16.610957550191877,19.65766355926514,16.514357550191882,19.676878559265138Q16.41775755019188,19.696093559265137,16.319257550191878,19.696093559265137L6.023057550191879,19.696093559265137Q5.924566150191879,19.696093559265137,5.827967550191879,19.676878559265138Q5.731368550191879,19.65766355926514,5.640374550191879,19.619972559265136Q5.54937955019188,19.582281559265137,5.467487550191879,19.527563559265136Q5.385594550191879,19.472844559265138,5.31595055019188,19.403200559265137Q5.246306550191879,19.333556559265137,5.191587550191879,19.251663559265136Q5.1368695501918795,19.169771559265136,5.099178550191879,19.078776559265137Q5.061487550191879,18.98778255926514,5.042272550191879,18.891183559265137Q5.023057550191879,18.794584959265137,5.023057550191879,18.696093559265137Q5.023057550191879,18.597602159265136,5.042272550191879,18.501003559265136Q5.061487550191879,18.404404559265135,5.099178550191879,18.313410559265137Q5.1368695501918795,18.222415559265137,5.191587550191879,18.140523559265137Q5.246306550191879,18.058630559265136,5.31595055019188,17.988986559265136Q5.385594550191879,17.919342559265136,5.467487550191879,17.864623559265137Q5.54937955019188,17.809905559265136,5.640374550191879,17.772214559265137Q5.731368550191879,17.734523559265135,5.827967550191879,17.715308559265136Q5.924566150191879,17.696093559265137,6.023057550191879,17.696093559265137Z" fill-rule="evenodd" fill="#FFFFFF" fill-opacity="1"/></g></g></g><script xmlns=""/></svg>