<svg xmlns="http://www.w3.org/2000/svg" xmlns:xlink="http://www.w3.org/1999/xlink" fill="none" version="1.1" width="32" height="32" viewBox="0 0 32 32"><g><g/><g transform="matrix(0.7071067690849304,0.7071067690849304,-0.7071067690849304,0.7071067690849304,9.144887638721258,-13.842707483550413)"><g><path d="M30.58233015991211,26.358001735687257L30.58224015991211,5.1174927356872555Q30.58224015991211,4.289068735687255,29.99646015991211,3.7032857356872557Q29.410670159912108,3.117501735687256,28.58225015991211,3.117501735687256L22.28207015991211,3.117501735687256Q21.453643159912108,3.117501735687256,20.86785715991211,3.703287735687256Q20.28207015991211,4.289074735687256,20.28207015991211,5.117501735687256L20.28207015991211,26.358001735687257Q20.28207015991211,27.186401735687255,20.86785715991211,27.772201735687254Q21.453643159912108,28.358001735687257,22.28207015991211,28.358001735687257L28.58233015991211,28.358001735687257Q29.41076015991211,28.358001735687257,29.99655015991211,27.772201735687254Q30.582340159912107,27.186401735687255,30.58233015991211,26.358001735687257ZM22.28207015991211,5.117501735687256L28.58224015991211,5.117500735687256L28.58233015991211,26.358001735687257L22.28207015991211,26.358001735687257L22.28207015991211,5.117501735687256Z" fill-rule="evenodd" fill="#FFFFFF" fill-opacity="1"/></g><g><path d="M21.28207015991211,6.286658048629761L23.39484015991211,6.286658048629761Q23.49333015991211,6.286658048629761,23.589930159912107,6.305873048629761Q23.68653015991211,6.325088048629761,23.777520159912108,6.36277904862976Q23.86852015991211,6.400470048629761,23.95041015991211,6.45518804862976Q24.03230015991211,6.509907048629761,24.10195015991211,6.579551048629761Q24.17159015991211,6.64919504862976,24.22631015991211,6.73108804862976Q24.28103015991211,6.812980048629761,24.31872015991211,6.903975048629761Q24.35641015991211,6.994969048629761,24.37563015991211,7.09156804862976Q24.39484015991211,7.18816664862976,24.39484015991211,7.286658048629761Q24.39484015991211,7.385149448629761,24.37563015991211,7.481748048629761Q24.35641015991211,7.578347048629761,24.31872015991211,7.669341048629761Q24.28103015991211,7.76033604862976,24.22631015991211,7.842228048629761Q24.17159015991211,7.924121048629761,24.10195015991211,7.9937650486297605Q24.03230015991211,8.063409048629762,23.95041015991211,8.11812804862976Q23.86852015991211,8.172846048629761,23.777520159912108,8.21053704862976Q23.68653015991211,8.24822804862976,23.589930159912107,8.267443048629762Q23.49333015991211,8.28665804862976,23.39484015991211,8.28665804862976L21.28207015991211,8.28665804862976Q21.18357875991211,8.28665804862976,21.08698015991211,8.267443048629762Q20.990381159912108,8.24822804862976,20.89938715991211,8.21053704862976Q20.80839215991211,8.172846048629761,20.72650015991211,8.11812804862976Q20.64460715991211,8.063409048629762,20.57496315991211,7.9937650486297605Q20.50531915991211,7.924121048629761,20.45060015991211,7.842228048629761Q20.39588215991211,7.76033604862976,20.35819115991211,7.669341048629761Q20.320500159912108,7.578347048629761,20.30128515991211,7.481748048629761Q20.28207015991211,7.385149448629761,20.28207015991211,7.286658048629761Q20.28207015991211,7.18816664862976,20.30128515991211,7.09156804862976Q20.320500159912108,6.994969048629761,20.35819115991211,6.903975048629761Q20.39588215991211,6.812980048629761,20.45060015991211,6.73108804862976Q20.50531915991211,6.64919504862976,20.57496315991211,6.579551048629761Q20.64460715991211,6.509907048629761,20.72650015991211,6.45518804862976Q20.80839215991211,6.400470048629761,20.89938715991211,6.36277904862976Q20.990381159912108,6.325088048629761,21.08698015991211,6.305873048629761Q21.18357875991211,6.286658048629761,21.28207015991211,6.286658048629761Z" fill-rule="evenodd" fill="#FFFFFF" fill-opacity="1"/></g><g><path d="M21.28207015991211,14.737878322601318L23.39484015991211,14.737878322601318Q23.49333015991211,14.737878322601318,23.589930159912107,14.757093322601317Q23.68653015991211,14.776308322601318,23.777520159912108,14.813999322601319Q23.86852015991211,14.851690322601318,23.95041015991211,14.906408322601319Q24.03230015991211,14.961127322601318,24.10195015991211,15.030771322601318Q24.17159015991211,15.100415322601318,24.22631015991211,15.182308322601319Q24.28103015991211,15.264200322601319,24.31872015991211,15.355195322601318Q24.35641015991211,15.446189322601318,24.37563015991211,15.542788322601318Q24.39484015991211,15.639386922601318,24.39484015991211,15.737878322601318Q24.39484015991211,15.836369722601319,24.37563015991211,15.932968322601319Q24.35641015991211,16.02956732260132,24.31872015991211,16.12056132260132Q24.28103015991211,16.211556322601318,24.22631015991211,16.293448322601318Q24.17159015991211,16.37534132260132,24.10195015991211,16.44498532260132Q24.03230015991211,16.51462932260132,23.95041015991211,16.569348322601318Q23.86852015991211,16.62406632260132,23.777520159912108,16.661757322601318Q23.68653015991211,16.69944832260132,23.589930159912107,16.71866332260132Q23.49333015991211,16.73787832260132,23.39484015991211,16.73787832260132L21.28207015991211,16.73787832260132Q21.18357875991211,16.73787832260132,21.08698015991211,16.71866332260132Q20.990381159912108,16.69944832260132,20.89938715991211,16.661757322601318Q20.80839215991211,16.62406632260132,20.72650015991211,16.569348322601318Q20.64460715991211,16.51462932260132,20.57496315991211,16.44498532260132Q20.50531915991211,16.37534132260132,20.45060015991211,16.293448322601318Q20.39588215991211,16.211556322601318,20.35819115991211,16.12056132260132Q20.320500159912108,16.02956732260132,20.30128515991211,15.932968322601319Q20.28207015991211,15.836369722601319,20.28207015991211,15.737878322601318Q20.28207015991211,15.639386922601318,20.30128515991211,15.542788322601318Q20.320500159912108,15.446189322601318,20.35819115991211,15.355195322601318Q20.39588215991211,15.264200322601319,20.45060015991211,15.182308322601319Q20.50531915991211,15.100415322601318,20.57496315991211,15.030771322601318Q20.64460715991211,14.961127322601318,20.72650015991211,14.906408322601319Q20.80839215991211,14.851690322601318,20.89938715991211,14.813999322601319Q20.990381159912108,14.776308322601318,21.08698015991211,14.757093322601317Q21.18357875991211,14.737878322601318,21.28207015991211,14.737878322601318Z" fill-rule="evenodd" fill="#FFFFFF" fill-opacity="1"/></g><g><path d="M21.28207015991211,23.18876028060913L23.39484015991211,23.18876028060913Q23.49333015991211,23.18876028060913,23.589930159912107,23.20797528060913Q23.68653015991211,23.22719028060913,23.777520159912108,23.26488128060913Q23.86852015991211,23.30257228060913,23.95041015991211,23.35729028060913Q24.03230015991211,23.41200928060913,24.10195015991211,23.48165328060913Q24.17159015991211,23.55129728060913,24.22631015991211,23.63319028060913Q24.28103015991211,23.71508228060913,24.31872015991211,23.80607728060913Q24.35641015991211,23.89707128060913,24.37563015991211,23.99367028060913Q24.39484015991211,24.09026888060913,24.39484015991211,24.18876028060913Q24.39484015991211,24.28725168060913,24.37563015991211,24.38385028060913Q24.35641015991211,24.480449280609133,24.31872015991211,24.57144328060913Q24.28103015991211,24.66243828060913,24.22631015991211,24.74433028060913Q24.17159015991211,24.82622328060913,24.10195015991211,24.89586728060913Q24.03230015991211,24.96551128060913,23.95041015991211,25.02023028060913Q23.86852015991211,25.07494828060913,23.777520159912108,25.11263928060913Q23.68653015991211,25.150330280609133,23.589930159912107,25.16954528060913Q23.49333015991211,25.18876028060913,23.39484015991211,25.18876028060913L21.28207015991211,25.18876028060913Q21.18357875991211,25.18876028060913,21.08698015991211,25.16954528060913Q20.990381159912108,25.150330280609133,20.89938715991211,25.11263928060913Q20.80839215991211,25.07494828060913,20.72650015991211,25.02023028060913Q20.64460715991211,24.96551128060913,20.57496315991211,24.89586728060913Q20.50531915991211,24.82622328060913,20.45060015991211,24.74433028060913Q20.39588215991211,24.66243828060913,20.35819115991211,24.57144328060913Q20.320500159912108,24.480449280609133,20.30128515991211,24.38385028060913Q20.28207015991211,24.28725168060913,20.28207015991211,24.18876028060913Q20.28207015991211,24.09026888060913,20.30128515991211,23.99367028060913Q20.320500159912108,23.89707128060913,20.35819115991211,23.80607728060913Q20.39588215991211,23.71508228060913,20.45060015991211,23.63319028060913Q20.50531915991211,23.55129728060913,20.57496315991211,23.48165328060913Q20.64460715991211,23.41200928060913,20.72650015991211,23.35729028060913Q20.80839215991211,23.30257228060913,20.89938715991211,23.26488128060913Q20.990381159912108,23.22719028060913,21.08698015991211,23.20797528060913Q21.18357875991211,23.18876028060913,21.28207015991211,23.18876028060913Z" fill-rule="evenodd" fill="#FFFFFF" fill-opacity="1"/></g><g><path d="M21.28207015991211,10.512199878692627L24.45123015991211,10.512199878692627Q24.54972015991211,10.512199878692627,24.646320159912108,10.531414878692626Q24.74291015991211,10.550629878692627,24.833910159912108,10.588320878692628Q24.92490015991211,10.626011878692626,25.00680015991211,10.680729878692627Q25.088690159912108,10.735448878692626,25.158330159912108,10.805092878692626Q25.22798015991211,10.874736878692627,25.28270015991211,10.956629878692627Q25.33741015991211,11.038521878692627,25.37511015991211,11.129516878692627Q25.41280015991211,11.220510878692627,25.43201015991211,11.317109878692627Q25.451230159912107,11.413708478692627,25.451230159912107,11.512199878692627Q25.451230159912107,11.610691278692627,25.43201015991211,11.707289878692627Q25.41280015991211,11.803888878692627,25.37511015991211,11.894882878692627Q25.33741015991211,11.985877878692627,25.28270015991211,12.067769878692626Q25.22798015991211,12.149662878692627,25.158330159912108,12.219306878692628Q25.088690159912108,12.288950878692628,25.00680015991211,12.343669878692626Q24.92490015991211,12.398387878692628,24.833910159912108,12.436078878692626Q24.74292015991211,12.473769878692627,24.646320159912108,12.492984878692628Q24.54972015991211,12.512199878692627,24.45123015991211,12.512199878692627L21.28207015991211,12.512199878692627Q21.18357875991211,12.512199878692627,21.08698015991211,12.492984878692628Q20.990381159912108,12.473769878692627,20.89938715991211,12.436078878692626Q20.80839215991211,12.398387878692628,20.72650015991211,12.343669878692626Q20.64460715991211,12.288950878692628,20.57496315991211,12.219306878692628Q20.50531915991211,12.149662878692627,20.45060015991211,12.067769878692626Q20.39588215991211,11.985877878692627,20.35819115991211,11.894882878692627Q20.320500159912108,11.803888878692627,20.30128515991211,11.707289878692627Q20.28207015991211,11.610691278692627,20.28207015991211,11.512199878692627Q20.28207015991211,11.413708478692627,20.30128515991211,11.317109878692627Q20.320500159912108,11.220510878692627,20.35819115991211,11.129516878692627Q20.39588215991211,11.038521878692627,20.45060015991211,10.956629878692627Q20.50531915991211,10.874736878692627,20.57496315991211,10.805092878692626Q20.64460715991211,10.735448878692626,20.72650015991211,10.680729878692627Q20.80839215991211,10.626011878692626,20.89938715991211,10.588320878692628Q20.990381159912108,10.550629878692627,21.08698015991211,10.531414878692626Q21.18357875991211,10.512199878692627,21.28207015991211,10.512199878692627Z" fill-rule="evenodd" fill="#FFFFFF" fill-opacity="1"/></g><g><path d="M21.28207015991211,18.9632830619812L24.45123015991211,18.9632830619812Q24.54972015991211,18.9632830619812,24.646320159912108,18.9824980619812Q24.74291015991211,19.0017130619812,24.833910159912108,19.0394040619812Q24.92490015991211,19.0770950619812,25.00680015991211,19.1318130619812Q25.088690159912108,19.1865320619812,25.158330159912108,19.2561760619812Q25.22798015991211,19.3258200619812,25.28270015991211,19.4077130619812Q25.33741015991211,19.4896050619812,25.37511015991211,19.5806000619812Q25.41280015991211,19.6715940619812,25.43201015991211,19.7681930619812Q25.451230159912107,19.8647916619812,25.451230159912107,19.9632830619812Q25.451230159912107,20.0617744619812,25.43201015991211,20.1583730619812Q25.41280015991211,20.254972061981203,25.37511015991211,20.3459660619812Q25.33741015991211,20.4369610619812,25.28270015991211,20.5188530619812Q25.22798015991211,20.6007460619812,25.158330159912108,20.6703900619812Q25.088690159912108,20.740034061981202,25.00680015991211,20.7947530619812Q24.92490015991211,20.849471061981202,24.833910159912108,20.8871620619812Q24.74292015991211,20.924853061981203,24.646320159912108,20.944068061981202Q24.54972015991211,20.9632830619812,24.45123015991211,20.9632830619812L21.28207015991211,20.9632830619812Q21.18357875991211,20.9632830619812,21.08698015991211,20.944068061981202Q20.990381159912108,20.924853061981203,20.89938715991211,20.8871620619812Q20.80839215991211,20.849471061981202,20.72650015991211,20.7947530619812Q20.64460715991211,20.740034061981202,20.57496315991211,20.6703900619812Q20.50531915991211,20.6007460619812,20.45060015991211,20.5188530619812Q20.39588215991211,20.4369610619812,20.35819115991211,20.3459660619812Q20.320500159912108,20.254972061981203,20.30128515991211,20.1583730619812Q20.28207015991211,20.0617744619812,20.28207015991211,19.9632830619812Q20.28207015991211,19.8647916619812,20.30128515991211,19.7681930619812Q20.320500159912108,19.6715940619812,20.35819115991211,19.5806000619812Q20.39588215991211,19.4896050619812,20.45060015991211,19.4077130619812Q20.50531915991211,19.3258200619812,20.57496315991211,19.2561760619812Q20.64460715991211,19.1865320619812,20.72650015991211,19.1318130619812Q20.80839215991211,19.0770950619812,20.89938715991211,19.0394040619812Q20.990381159912108,19.0017130619812,21.08698015991211,18.9824980619812Q21.18357875991211,18.9632830619812,21.28207015991211,18.9632830619812Z" fill-rule="evenodd" fill="#FFFFFF" fill-opacity="1"/></g></g></g><script xmlns=""/></svg>