<svg xmlns="http://www.w3.org/2000/svg" xmlns:xlink="http://www.w3.org/1999/xlink" fill="none" version="1.1" width="32" height="32" viewBox="0 0 32 32"><g><g/><g><g><g><path d="M27.949322765655516,7.083407554779052L27.949322765655516,10.694487554779052Q27.949322765655516,10.792977554779053,27.968542765655517,10.889577554779052Q27.987752765655518,10.986177554779053,28.02544276565552,11.077167554779052Q28.063132765655517,11.168167554779053,28.117852765655517,11.250057554779053Q28.172572765655516,11.331947554779052,28.24222276565552,11.401597554779052Q28.31186276565552,11.471237554779051,28.393752765655517,11.525957554779053Q28.475652765655518,11.580677554779053,28.566642765655516,11.618367554779052Q28.657632765655517,11.656057554779053,28.754232765655516,11.675267554779053Q28.850832765655518,11.694487554779052,28.949322765655516,11.694487554779052Q29.047812765655518,11.694487554779052,29.144412765655517,11.675267554779053Q29.24101276565552,11.656057554779053,29.332012765655517,11.618367554779052Q29.423002765655518,11.580677554779053,29.50489276565552,11.525957554779053Q29.586792765655517,11.471237554779051,29.656432765655516,11.401597554779052Q29.726072765655516,11.331947554779052,29.78079276565552,11.250057554779053Q29.835512765655515,11.168167554779053,29.873202765655517,11.077167554779052Q29.910892765655518,10.986177554779053,29.93011276565552,10.889577554779052Q29.949322765655516,10.792977554779053,29.949322765655516,10.694487554779052L29.949322765655516,5.388997554779053Q29.949322765655516,5.290506154779052,29.93011276565552,5.193907554779052Q29.910892765655518,5.097308554779053,29.873202765655517,5.006314554779053Q29.835512765655515,4.915319554779053,29.78079276565552,4.833427554779052Q29.726072765655516,4.751534554779052,29.656432765655516,4.681890554779053Q29.586792765655517,4.612246554779053,29.50489276565552,4.557527554779052Q29.423002765655518,4.502809554779053,29.332012765655517,4.465118554779052Q29.24101276565552,4.427427554779053,29.144412765655517,4.408212554779053Q29.047812765655518,4.388997554779053,28.949322765655516,4.388997554779053Q28.691602765655517,4.388997554779053,28.465982765655518,4.513564554779053L23.86666276565552,7.052927554779052Q23.749278765655518,7.117737554779053,23.653114765655516,7.211177554779052Q23.556950765655518,7.304617554779053,23.488799765655518,7.420097554779053Q23.420648765655518,7.535567554779053,23.385325765655516,7.664917554779053Q23.350002765655518,7.7942675547790525,23.350002765655518,7.928357554779053L23.350002765655518,10.694487554779052Q23.350002765655518,10.792977554779053,23.369217765655517,10.889577554779052Q23.388432765655516,10.986177554779053,23.426123765655518,11.077167554779052Q23.463814765655517,11.168167554779053,23.518532765655518,11.250057554779053Q23.573251765655517,11.331947554779052,23.642895765655517,11.401597554779052Q23.712539765655517,11.471237554779051,23.794432765655518,11.525957554779053Q23.876324765655518,11.580677554779053,23.967319765655517,11.618367554779052Q24.058313765655516,11.656057554779053,24.154912765655517,11.675267554779053Q24.251511365655517,11.694487554779052,24.350002765655518,11.694487554779052Q24.448494165655518,11.694487554779052,24.545092765655518,11.675267554779053Q24.64169176565552,11.656057554779053,24.732685765655518,11.618367554779052Q24.823680765655517,11.580677554779053,24.905572765655517,11.525957554779053Q24.987465765655518,11.471237554779051,25.057109765655518,11.401597554779052Q25.12675376565552,11.331947554779052,25.181472765655517,11.250057554779053Q25.236190765655518,11.168167554779053,25.273881765655517,11.077167554779052Q25.31157276565552,10.986177554779053,25.33078776565552,10.889577554779052Q25.350002765655518,10.792977554779053,25.350002765655518,10.694487554779052L25.350002765655518,8.518537554779053L27.949322765655516,7.083407554779052Z" fill-rule="evenodd" fill="#FFFFFF" fill-opacity="1"/></g><g transform="matrix(1,0,0,-1,0,31.99995517730713)"><path d="M27.949322765655516,17.694387588653566L27.949322765655516,21.305467588653563Q27.949322765655516,21.403957588653565,27.968542765655517,21.500557588653564Q27.987752765655518,21.597157588653566,28.02544276565552,21.688147588653564Q28.063132765655517,21.779147588653565,28.117852765655517,21.861037588653566Q28.172572765655516,21.942927588653564,28.24222276565552,22.012577588653564Q28.31186276565552,22.082217588653563,28.393752765655517,22.136937588653566Q28.475652765655518,22.191657588653563,28.566642765655516,22.229347588653564Q28.657632765655517,22.267037588653565,28.754232765655516,22.286247588653566Q28.850832765655518,22.305467588653563,28.949322765655516,22.305467588653563Q29.047812765655518,22.305467588653563,29.144412765655517,22.286247588653566Q29.24101276565552,22.267037588653565,29.332012765655517,22.229347588653564Q29.423002765655518,22.191657588653563,29.50489276565552,22.136937588653566Q29.586792765655517,22.082217588653563,29.656432765655516,22.012577588653564Q29.726072765655516,21.942927588653564,29.78079276565552,21.861037588653566Q29.835512765655515,21.779147588653565,29.873202765655517,21.688147588653564Q29.910892765655518,21.597157588653566,29.93011276565552,21.500557588653564Q29.949322765655516,21.403957588653565,29.949322765655516,21.305467588653563L29.949322765655516,15.999977588653564Q29.949322765655516,15.901486188653564,29.93011276565552,15.804887588653564Q29.910892765655518,15.708288588653565,29.873202765655517,15.617294588653564Q29.835512765655515,15.526299588653565,29.78079276565552,15.444407588653565Q29.726072765655516,15.362514588653564,29.656432765655516,15.292870588653564Q29.586792765655517,15.223226588653564,29.50489276565552,15.168507588653565Q29.423002765655518,15.113789588653564,29.332012765655517,15.076098588653565Q29.24101276565552,15.038407588653564,29.144412765655517,15.019192588653564Q29.047812765655518,14.999977588653564,28.949322765655516,14.999977588653564Q28.691602765655517,14.999977588653564,28.465982765655518,15.124544588653565L23.86666276565552,17.663907588653565Q23.749278765655518,17.728717588653563,23.653114765655516,17.822157588653564Q23.556950765655518,17.915597588653565,23.488799765655518,18.031077588653563Q23.420648765655518,18.146547588653565,23.385325765655516,18.275897588653564Q23.350002765655518,18.405247588653566,23.350002765655518,18.539337588653563L23.350002765655518,21.305467588653563Q23.350002765655518,21.403957588653565,23.369217765655517,21.500557588653564Q23.388432765655516,21.597157588653566,23.426123765655518,21.688147588653564Q23.463814765655517,21.779147588653565,23.518532765655518,21.861037588653566Q23.573251765655517,21.942927588653564,23.642895765655517,22.012577588653564Q23.712539765655517,22.082217588653563,23.794432765655518,22.136937588653566Q23.876324765655518,22.191657588653563,23.967319765655517,22.229347588653564Q24.058313765655516,22.267037588653565,24.154912765655517,22.286247588653566Q24.251511365655517,22.305467588653563,24.350002765655518,22.305467588653563Q24.448494165655518,22.305467588653563,24.545092765655518,22.286247588653566Q24.64169176565552,22.267037588653565,24.732685765655518,22.229347588653564Q24.823680765655517,22.191657588653563,24.905572765655517,22.136937588653566Q24.987465765655518,22.082217588653563,25.057109765655518,22.012577588653564Q25.12675376565552,21.942927588653564,25.181472765655517,21.861037588653566Q25.236190765655518,21.779147588653565,25.273881765655517,21.688147588653564Q25.31157276565552,21.597157588653566,25.33078776565552,21.500557588653564Q25.350002765655518,21.403957588653565,25.350002765655518,21.305467588653563L25.350002765655518,19.129517588653563L27.949322765655516,17.694387588653566Z" fill-rule="evenodd" fill="#FFFFFF" fill-opacity="1"/></g></g><g><path d="M19.39724349975586,13.34722256324768L19.39724349975586,8.04174256324768Q19.39724349975586,7.94325116324768,19.41645849975586,7.84665256324768Q19.435673499755858,7.750053563247681,19.47336449975586,7.659059563247681Q19.51105549975586,7.568064563247681,19.56577349975586,7.48617256324768Q19.62049249975586,7.40427956324768,19.69013649975586,7.334635563247681Q19.75978049975586,7.264991563247681,19.84167349975586,7.21027256324768Q19.92356549975586,7.155554563247681,20.01456049975586,7.11786356324768Q20.105554499755858,7.080172563247681,20.20215349975586,7.060957563247681Q20.29875209975586,7.041742563247681,20.39724349975586,7.041742563247681L24.35020349975586,7.041742563247681Q24.44869349975586,7.041742563247681,24.545293499755857,7.060957563247681Q24.64188349975586,7.080172563247681,24.732883499755857,7.11786356324768Q24.82387349975586,7.155554563247681,24.90576349975586,7.21027256324768Q24.98766349975586,7.264991563247681,25.05730349975586,7.334635563247681Q25.12695349975586,7.40427956324768,25.18166349975586,7.48617256324768Q25.23638349975586,7.568064563247681,25.274073499755858,7.659059563247681Q25.31177349975586,7.750053563247681,25.33098349975586,7.84665256324768Q25.35020349975586,7.94325116324768,25.35020349975586,8.04174256324768L25.35020349975586,13.34722256324768Q25.35020349975586,13.445712563247682,25.33098349975586,13.54231256324768Q25.31177349975586,13.63891256324768,25.274073499755858,13.72991256324768Q25.23638349975586,13.820902563247682,25.18166349975586,13.90279256324768Q25.12695349975586,13.98469256324768,25.05730349975586,14.05433256324768Q24.98766349975586,14.12397256324768,24.90576349975586,14.17869256324768Q24.82387349975586,14.233412563247681,24.732883499755857,14.27110256324768Q24.64188349975586,14.308792563247682,24.545293499755857,14.32801256324768Q24.44869349975586,14.34722256324768,24.35020349975586,14.34722256324768L20.39724349975586,14.34722256324768Q20.29875209975586,14.34722256324768,20.20215349975586,14.32801256324768Q20.105554499755858,14.308792563247682,20.01456049975586,14.27110256324768Q19.92356549975586,14.233412563247681,19.84167349975586,14.17869256324768Q19.75978049975586,14.12397256324768,19.69013649975586,14.05433256324768Q19.62049249975586,13.98469256324768,19.56577349975586,13.90279256324768Q19.51105549975586,13.820902563247682,19.47336449975586,13.72991256324768Q19.435673499755858,13.63891256324768,19.41645849975586,13.54231256324768Q19.39724349975586,13.445712563247682,19.39724349975586,13.34722256324768ZM21.39724349975586,9.04174256324768L21.39724349975586,12.34722256324768L23.35020349975586,12.34722256324768L23.35020349975586,9.04174256324768L21.39724349975586,9.04174256324768Z" fill="#FFFFFF" fill-opacity="1"/></g></g><g transform="matrix(-1,0,0,1,39.44270706176758,0)"><path d="M21.35945353088379,13.60780371887207L18.868502530883788,17.67638371887207Q18.72135353088379,17.916683718872072,18.72135353088379,18.19848371887207Q18.72135353088379,18.29698371887207,18.740568530883788,18.393583718872073Q18.759783530883787,18.490183718872068,18.79747453088379,18.58118371887207Q18.83516553088379,18.67218371887207,18.88988353088379,18.75408371887207Q18.944602530883788,18.835983718872072,19.01424653088379,18.90558371887207Q19.08389053088379,18.97528371887207,19.16578353088379,19.02998371887207Q19.24767553088379,19.08468371887207,19.33867053088379,19.122383718872072Q19.429664530883787,19.16008371887207,19.52626353088379,19.17928371887207Q19.62286213088379,19.19848371887207,19.72135353088379,19.19848371887207L22.105413530883787,19.19848371887207L22.105413530883787,21.89028371887207Q22.105413530883787,21.98878371887207,22.124623530883788,22.08538371887207Q22.14384353088379,22.18198371887207,22.18153353088379,22.27298371887207Q22.219223530883788,22.36398371887207,22.273943530883788,22.445883718872068Q22.328663530883787,22.527783718872072,22.39830353088379,22.59738371887207Q22.46794353088379,22.66708371887207,22.549843530883788,22.721783718872068Q22.63173353088379,22.776483718872072,22.72272353088379,22.814183718872073Q22.813723530883788,22.85188371887207,22.91032353088379,22.87108371887207Q23.00692353088379,22.89028371887207,23.105413530883787,22.89028371887207L26.06092353088379,22.89028371887207L26.06092353088379,26.19738371887207Q26.06092353088379,26.30868371887207,26.085403530883788,26.41728371887207Q26.10706353088379,26.51328371887207,26.147053530883788,26.60338371887207Q26.18704353088379,26.69338371887207,26.243823530883787,26.77378371887207Q26.30060353088379,26.85428371887207,26.37198353088379,26.92218371887207Q26.44337353088379,26.98998371887207,26.52663353088379,27.04268371887207Q26.60988353088379,27.09528371887207,26.70180353088379,27.13058371887207Q26.79372353088379,27.16598371887207,26.890783530883787,27.18278371887207Q26.98783353088379,27.19948371887207,27.08629353088379,27.19698371887207Q27.18475353088379,27.19448371887207,27.28083353088379,27.17288371887207Q35.66425353088379,25.28298371887207,35.66425353088379,21.89028371887207Q35.66425353088379,19.50138371887207,37.60585353088379,14.94248371887207Q37.686953530883784,14.75199371887207,37.68585353088379,14.544953718872069Q37.63625353088379,5.85948371887207,29.478153530883787,5.85948371887207Q25.48566353088379,5.85948371887207,23.41360353088379,7.90598371887207Q21.41097353088379,9.88388371887207,21.35945353088379,13.60780371887207ZM21.50613353088379,17.19848371887207L23.105413530883787,17.19848371887207Q23.20390353088379,17.19848371887207,23.300503530883788,17.21768371887207Q23.39710353088379,17.236983718872068,23.488093530883788,17.274583718872073Q23.57908353088379,17.31228371887207,23.66098353088379,17.36708371887207Q23.742873530883788,17.42178371887207,23.81251353088379,17.491383718872072Q23.882163530883787,17.56108371887207,23.93688353088379,17.64298371887207Q23.99160353088379,17.724783718872068,24.02929353088379,17.81578371887207Q24.06698353088379,17.90678371887207,24.08619353088379,18.003383718872072Q24.105413530883787,18.09998371887207,24.105413530883787,18.19848371887207L24.105413530883787,20.89028371887207L27.06092353088379,20.89028371887207Q27.15941353088379,20.89028371887207,27.256013530883788,20.90948371887207Q27.35261353088379,20.92878371887207,27.443603530883788,20.96638371887207Q27.53460353088379,21.00408371887207,27.616493530883787,21.05888371887207Q27.69838353088379,21.11358371887207,27.76803353088379,21.183183718872073Q27.83767353088379,21.25288371887207,27.892393530883787,21.33478371887207Q27.94711353088379,21.41658371887207,27.984803530883788,21.50758371887207Q28.02249353088379,21.59858371887207,28.04171353088379,21.69518371887207Q28.06092353088379,21.791783718872068,28.06092353088379,21.89028371887207L28.06092353088379,24.93108371887207Q33.66425353088379,23.51548371887207,33.66425353088379,21.89028371887207Q33.66425353088379,19.14868371887207,35.68325353088379,14.35372371887207Q35.55365353088379,7.85948371887207,29.478153530883787,7.85948371887207Q26.30683353088379,7.85948371887207,24.81900353088379,9.32894371887207Q23.338973530883788,10.79071371887207,23.35834353088379,13.88514371887207Q23.36013353088379,14.17032371887207,23.21121353088379,14.41355371887207L21.50613353088379,17.19848371887207Z" fill-rule="evenodd" fill="#FFFFFF" fill-opacity="1"/></g></g><script xmlns=""/></svg>