<svg xmlns="http://www.w3.org/2000/svg" xmlns:xlink="http://www.w3.org/1999/xlink" fill="none" version="1.1" width="32" height="32" viewBox="0 0 32 32"><g><g/><g><path d="M16.0000403125,14.550465146484374Q18.2217603125,14.550465146484374,18.2217603125,12.328745146484374Q18.2217603125,10.107025146484375,16.0000403125,10.107025146484375Q14.2952503125,10.107025146484375,13.8540203125,11.753725146484374L11.9221723125,11.236085146484374Q12.7606010125,8.107025146484375,16.0000403125,8.107025146484375Q17.7487303125,8.107025146484375,18.9852403125,9.343537146484374Q20.2217603125,10.580055146484375,20.2217603125,12.328745146484374Q20.2217603125,14.077435146484376,18.9852403125,15.313945146484375Q17.7487303125,16.550465146484374,16.0000403125,16.550465146484374L16.0000403125,14.550465146484374Z" fill="#E9EAF2" fill-opacity="1"/></g><g><ellipse cx="16.000043630599976" cy="22.021955251693726" rx="1.0391061305999756" ry="1.0391061305999756" fill-opacity="0" stroke-opacity="1" stroke="#E9EAF2" fill="none" stroke-width="2"/></g><g><ellipse cx="15.999874591827393" cy="15.999982833862305" rx="11.182600021362305" ry="11.182600021362305" fill-opacity="0" stroke-opacity="1" stroke="#E9EAF2" fill="none" stroke-width="2"/></g><g transform="matrix(0,1,-1,0,31.552459716796875,-0.451446533203125)"><path d="M16.001953125,14.550506591796875L19.282213125,14.550506591796875Q19.380703125,14.550506591796875,19.477303125,14.569721591796874Q19.573893125,14.588936591796875,19.664893125,14.626627591796876Q19.755883125,14.664318591796874,19.837783125,14.719036591796876Q19.919673125,14.773755591796874,19.989313125,14.843399591796874Q20.058963125,14.913043591796875,20.113683125,14.994936591796876Q20.168393125,15.076828591796875,20.206083125,15.167823591796875Q20.243783125,15.258817591796875,20.262993125,15.355416591796875Q20.282213125,15.452015191796875,20.282213125,15.550506591796875Q20.282213125,15.648997991796875,20.262993125,15.745596591796875Q20.243783125,15.842195591796875,20.206083125,15.933189591796875Q20.168393125,16.024184591796875,20.113673125,16.106076591796874Q20.058963125,16.187969591796875,19.989313125,16.257613591796876Q19.919673125,16.327257591796876,19.837783125,16.381976591796874Q19.755883125,16.436694591796876,19.664893125,16.474385591796874Q19.573893125,16.512076591796877,19.477303125,16.531291591796876Q19.380703125,16.550506591796875,19.282213125,16.550506591796875L16.001953125,16.550506591796875Q15.903461725,16.550506591796875,15.806863125,16.531291591796876Q15.710264125,16.512076591796877,15.619270125,16.474385591796874Q15.528275125,16.436694591796876,15.446383125,16.381976591796874Q15.364490125,16.327257591796876,15.294846125,16.257613591796876Q15.225202125,16.187969591796875,15.170483125,16.106076591796874Q15.115765125,16.024184591796875,15.078074125,15.933189591796875Q15.040383125,15.842195591796875,15.021168124999999,15.745596591796875Q15.001953125,15.648997991796875,15.001953125,15.550506591796875Q15.001953125,15.452015191796875,15.021168124999999,15.355416591796875Q15.040383125,15.258817591796875,15.078074125,15.167823591796875Q15.115765125,15.076828591796875,15.170483125,14.994936591796876Q15.225202125,14.913043591796875,15.294846125,14.843399591796874Q15.364490125,14.773755591796874,15.446383125,14.719036591796876Q15.528275125,14.664318591796874,15.619270125,14.626627591796876Q15.710264125,14.588936591796875,15.806863125,14.569721591796874Q15.903461725,14.550506591796875,16.001953125,14.550506591796875Z" fill-rule="evenodd" fill="#E9EAF2" fill-opacity="1"/></g></g></svg>