<svg xmlns="http://www.w3.org/2000/svg" xmlns:xlink="http://www.w3.org/1999/xlink" fill="none" version="1.1" width="32" height="32" viewBox="0 0 32 32"><g><g/><g><g><path d="M14.33832,5.51107896875Q13.75254,4.92529296875,12.924109999999999,4.92529296875L7.78125,4.92529296875Q6.952823,4.92529296875,6.367036,5.51107896875Q5.78125,6.09686596875,5.78125,6.92529296875L5.78125,24.92529296875Q5.78125,26.92529296875,7.78125,26.92529296875L25.78125,26.92529296875Q27.78125,26.92529296875,27.78125,24.92529296875L27.78125,19.60819296875Q27.78125,17.60819296875,25.78125,17.60819296875L14.92411,17.60819296875L14.92411,6.92529296875Q14.92411,6.09686596875,14.33832,5.51107896875ZM7.78125,6.92529296875L12.924109999999999,6.92529296875L12.924109999999999,17.60819296875Q12.924109999999999,19.60819296875,14.92411,19.60819296875L25.78125,19.60819296875L25.78125,24.92529296875L7.78125,24.92529296875L7.78125,6.92529296875Z" fill-rule="evenodd" fill="#FFFFFF" fill-opacity="1"/></g><g><path d="M6.78125,7.6525657176971436Q6.6827586,7.6525657176971436,6.58616,7.6717807176971435Q6.489561,7.6909957176971435,6.398567,7.728686717697143Q6.307572,7.766377717697144,6.22568,7.821095717697143Q6.143787,7.875814717697144,6.074143,7.945458717697144Q6.004499,8.015102717697143,5.94978,8.096995717697144Q5.895062,8.178887717697144,5.857371,8.269882717697143Q5.81968,8.360876717697144,5.800465,8.457475717697143Q5.78125,8.554074317697143,5.78125,8.652565717697144Q5.78125,8.751057117697144,5.800465,8.847655717697144Q5.81968,8.944254717697143,5.857371,9.035248717697144Q5.895062,9.126243717697143,5.94978,9.208135717697143Q6.004499,9.290028717697144,6.074143,9.359672717697144Q6.143787,9.429316717697144,6.22568,9.484035717697143Q6.307572,9.538753717697144,6.398567,9.576444717697143Q6.489561,9.614135717697144,6.58616,9.633350717697144Q6.6827586,9.652565717697144,6.78125,9.652565717697144L8.59943,9.652565717697144Q8.69792,9.652565717697144,8.79452,9.633350717697144Q8.89112,9.614135717697144,8.98212,9.576444717697143Q9.07311,9.538753717697144,9.155,9.484035717697143Q9.236889999999999,9.429316717697144,9.30654,9.359672717697144Q9.37618,9.290028717697144,9.4309,9.208135717697143Q9.48562,9.126243717697143,9.52331,9.035248717697144Q9.561,8.944254717697143,9.58022,8.847655717697144Q9.59943,8.751057117697144,9.59943,8.652565717697144Q9.59943,8.554074317697143,9.58022,8.457475717697143Q9.561,8.360876717697144,9.52331,8.269882717697143Q9.48562,8.178887717697144,9.4309,8.096995717697144Q9.37618,8.015102717697143,9.30654,7.945458717697144Q9.236889999999999,7.875814717697144,9.155,7.821095717697143Q9.07311,7.766377717697144,8.98212,7.728686717697143Q8.89112,7.6909957176971435,8.79452,7.6717807176971435Q8.69792,7.6525657176971436,8.59943,7.6525657176971436L6.78125,7.6525657176971436Z" fill-rule="evenodd" fill="#FFFFFF" fill-opacity="1"/></g><g><path d="M6.78125,14.92529296875Q6.6827586,14.92529296875,6.58616,14.944507968749999Q6.489561,14.96372296875,6.398567,15.00141396875Q6.307572,15.03910496875,6.22568,15.09382296875Q6.143787,15.14854196875,6.074143,15.21818596875Q6.004499,15.28782996875,5.94978,15.36972296875Q5.895062,15.45161496875,5.857371,15.54260996875Q5.81968,15.63360396875,5.800465,15.73020296875Q5.78125,15.82680156875,5.78125,15.92529296875Q5.78125,16.02378436875,5.800465,16.12038296875Q5.81968,16.21698196875,5.857371,16.30797596875Q5.895062,16.39897096875,5.94978,16.48086296875Q6.004499,16.56275596875,6.074143,16.63239996875Q6.143787,16.70204396875,6.22568,16.75676296875Q6.307572,16.81148096875,6.398567,16.84917196875Q6.489561,16.886862968750002,6.58616,16.90607796875Q6.6827586,16.92529296875,6.78125,16.92529296875L8.59943,16.92529296875Q8.69792,16.92529296875,8.79452,16.90607796875Q8.89112,16.886862968750002,8.98212,16.84917196875Q9.07311,16.81148096875,9.155,16.75676296875Q9.236889999999999,16.70204396875,9.30654,16.63239996875Q9.37618,16.56275596875,9.4309,16.48086296875Q9.48562,16.39897096875,9.52331,16.30797596875Q9.561,16.21698196875,9.58022,16.12038296875Q9.59943,16.02378436875,9.59943,15.92529296875Q9.59943,15.82680156875,9.58022,15.73020296875Q9.561,15.63360396875,9.52331,15.54260996875Q9.48562,15.45161496875,9.4309,15.36972296875Q9.37618,15.28782996875,9.30654,15.21818596875Q9.236889999999999,15.14854196875,9.155,15.09382296875Q9.07311,15.03910496875,8.98212,15.00141396875Q8.89112,14.96372296875,8.79452,14.944507968749999Q8.69792,14.92529296875,8.59943,14.92529296875L6.78125,14.92529296875Z" fill-rule="evenodd" fill="#FFFFFF" fill-opacity="1"/></g><g transform="matrix(0,-1,1,0,-16.416770219802856,35.433815717697144)"><path d="M9.508522748947144,24.92529296875Q9.410031348947143,24.92529296875,9.313432748947143,24.94450796875Q9.216833748947144,24.963722968749998,9.125839748947143,25.00141396875Q9.034844748947144,25.03910496875,8.952952748947144,25.09382296875Q8.871059748947143,25.14854196875,8.801415748947143,25.21818596875Q8.731771748947143,25.28782996875,8.677052748947144,25.36972296875Q8.622334748947143,25.45161496875,8.584643748947144,25.54260996875Q8.546952748947144,25.63360396875,8.527737748947143,25.73020296875Q8.508522748947144,25.82680156875,8.508522748947144,25.92529296875Q8.508522748947144,26.02378436875,8.527737748947143,26.12038296875Q8.546952748947144,26.21698196875,8.584643748947144,26.30797596875Q8.622334748947143,26.39897096875,8.677052748947144,26.48086296875Q8.731771748947143,26.56275596875,8.801415748947143,26.63239996875Q8.871059748947143,26.70204396875,8.952952748947144,26.75676296875Q9.034844748947144,26.81148096875,9.125839748947143,26.84917196875Q9.216833748947144,26.886862968750002,9.313432748947143,26.90607796875Q9.410031348947143,26.92529296875,9.508522748947144,26.92529296875L11.326702748947143,26.92529296875Q11.425192748947143,26.92529296875,11.521792748947144,26.90607796875Q11.618392748947144,26.886862968750002,11.709392748947144,26.84917196875Q11.800382748947143,26.81148096875,11.882272748947143,26.75676296875Q11.964162748947142,26.70204396875,12.033812748947144,26.63239996875Q12.103452748947143,26.56275596875,12.158172748947143,26.48086296875Q12.212892748947144,26.39897096875,12.250582748947144,26.30797596875Q12.288272748947143,26.21698196875,12.307492748947144,26.12038296875Q12.326702748947143,26.02378436875,12.326702748947143,25.92529296875Q12.326702748947143,25.82680156875,12.307492748947144,25.73020296875Q12.288272748947143,25.63360396875,12.250582748947144,25.54260996875Q12.212892748947144,25.45161496875,12.158172748947143,25.36972296875Q12.103452748947143,25.28782996875,12.033812748947144,25.21818596875Q11.964162748947142,25.14854196875,11.882272748947143,25.09382296875Q11.800382748947143,25.03910496875,11.709392748947144,25.00141396875Q11.618392748947144,24.963722968749998,11.521792748947144,24.94450796875Q11.425192748947143,24.92529296875,11.326702748947143,24.92529296875L9.508522748947144,24.92529296875Z" fill-rule="evenodd" fill="#FFFFFF" fill-opacity="1"/></g><g transform="matrix(0,-1,1,0,-9.14404296875,42.70654296875)"><path d="M16.78125,24.92529296875Q16.6827586,24.92529296875,16.58616,24.94450796875Q16.489561,24.963722968749998,16.398567,25.00141396875Q16.307572,25.03910496875,16.22568,25.09382296875Q16.143787,25.14854196875,16.074143,25.21818596875Q16.004499,25.28782996875,15.94978,25.36972296875Q15.895062,25.45161496875,15.857371,25.54260996875Q15.81968,25.63360396875,15.800464999999999,25.73020296875Q15.78125,25.82680156875,15.78125,25.92529296875Q15.78125,26.02378436875,15.800464999999999,26.12038296875Q15.81968,26.21698196875,15.857371,26.30797596875Q15.895062,26.39897096875,15.94978,26.48086296875Q16.004499,26.56275596875,16.074143,26.63239996875Q16.143787,26.70204396875,16.22568,26.75676296875Q16.307572,26.81148096875,16.398567,26.84917196875Q16.489561,26.886862968750002,16.58616,26.90607796875Q16.6827586,26.92529296875,16.78125,26.92529296875L18.599429999999998,26.92529296875Q18.69792,26.92529296875,18.79452,26.90607796875Q18.89112,26.886862968750002,18.982120000000002,26.84917196875Q19.07311,26.81148096875,19.155,26.75676296875Q19.23689,26.70204396875,19.30654,26.63239996875Q19.37618,26.56275596875,19.4309,26.48086296875Q19.48562,26.39897096875,19.52331,26.30797596875Q19.561,26.21698196875,19.58022,26.12038296875Q19.599429999999998,26.02378436875,19.599429999999998,25.92529296875Q19.599429999999998,25.82680156875,19.58022,25.73020296875Q19.561,25.63360396875,19.52331,25.54260996875Q19.48562,25.45161496875,19.4309,25.36972296875Q19.37618,25.28782996875,19.30654,25.21818596875Q19.23689,25.14854196875,19.155,25.09382296875Q19.07311,25.03910496875,18.982120000000002,25.00141396875Q18.89112,24.963722968749998,18.79452,24.94450796875Q18.69792,24.92529296875,18.599429999999998,24.92529296875L16.78125,24.92529296875Z" fill-rule="evenodd" fill="#FFFFFF" fill-opacity="1"/></g><g transform="matrix(0,-1,1,0,-1.8713130950927734,49.97927284240723)"><path d="M24.053979873657227,24.92529296875Q23.955488473657226,24.92529296875,23.858889873657226,24.94450796875Q23.762290873657225,24.963722968749998,23.671296873657226,25.00141396875Q23.580301873657227,25.03910496875,23.498409873657227,25.09382296875Q23.416516873657226,25.14854196875,23.346872873657226,25.21818596875Q23.277228873657226,25.28782996875,23.222509873657227,25.36972296875Q23.167791873657226,25.45161496875,23.130100873657227,25.54260996875Q23.092409873657225,25.63360396875,23.073194873657226,25.73020296875Q23.053979873657227,25.82680156875,23.053979873657227,25.92529296875Q23.053979873657227,26.02378436875,23.073194873657226,26.12038296875Q23.092409873657225,26.21698196875,23.130100873657227,26.30797596875Q23.167791873657226,26.39897096875,23.222509873657227,26.48086296875Q23.277228873657226,26.56275596875,23.346872873657226,26.63239996875Q23.416516873657226,26.70204396875,23.498409873657227,26.75676296875Q23.580301873657227,26.81148096875,23.671296873657226,26.84917196875Q23.762290873657225,26.886862968750002,23.858889873657226,26.90607796875Q23.955488473657226,26.92529296875,24.053979873657227,26.92529296875L25.872159873657225,26.92529296875Q25.970649873657226,26.92529296875,26.067249873657225,26.90607796875Q26.163849873657227,26.886862968750002,26.25484987365723,26.84917196875Q26.345839873657226,26.81148096875,26.427729873657228,26.75676296875Q26.509619873657225,26.70204396875,26.579269873657225,26.63239996875Q26.648909873657228,26.56275596875,26.703629873657228,26.48086296875Q26.758349873657227,26.39897096875,26.796039873657225,26.30797596875Q26.833729873657227,26.21698196875,26.852949873657227,26.12038296875Q26.872159873657225,26.02378436875,26.872159873657225,25.92529296875Q26.872159873657225,25.82680156875,26.852949873657227,25.73020296875Q26.833729873657227,25.63360396875,26.796039873657225,25.54260996875Q26.758349873657227,25.45161496875,26.703629873657228,25.36972296875Q26.648909873657228,25.28782996875,26.579269873657225,25.21818596875Q26.509619873657225,25.14854196875,26.427729873657228,25.09382296875Q26.345839873657226,25.03910496875,26.25484987365723,25.00141396875Q26.163849873657227,24.963722968749998,26.067249873657225,24.94450796875Q25.970649873657226,24.92529296875,25.872159873657225,24.92529296875L24.053979873657227,24.92529296875Z" fill-rule="evenodd" fill="#FFFFFF" fill-opacity="1"/></g><g><path d="M6.78125,11.288929462432861L9.50852,11.288929462432861Q9.607009999999999,11.288929462432861,9.70361,11.30814446243286Q9.80021,11.327359462432861,9.891210000000001,11.365050462432862Q9.9822,11.40274146243286,10.06409,11.457459462432862Q10.14599,11.51217846243286,10.21563,11.58182246243286Q10.28527,11.651466462432861,10.33999,11.733359462432862Q10.39471,11.815251462432862,10.4324,11.906246462432861Q10.470089999999999,11.997240462432861,10.48931,12.093839462432861Q10.50852,12.190438062432861,10.50852,12.288929462432861Q10.50852,12.387420862432862,10.48931,12.484019462432862Q10.470089999999999,12.580618462432861,10.4324,12.671612462432861Q10.39471,12.762607462432861,10.33999,12.84449946243286Q10.28527,12.926392462432862,10.21563,12.996036462432862Q10.14599,13.065680462432862,10.06409,13.12039946243286Q9.9822,13.175117462432862,9.891210000000001,13.21280846243286Q9.80021,13.250499462432861,9.70361,13.269714462432862Q9.607009999999999,13.288929462432861,9.50852,13.288929462432861L6.78125,13.288929462432861Q6.6827586,13.288929462432861,6.58616,13.269714462432862Q6.489561,13.250499462432861,6.398567,13.21280846243286Q6.307572,13.175117462432862,6.22568,13.12039946243286Q6.143787,13.065680462432862,6.074143,12.996036462432862Q6.004499,12.926392462432862,5.94978,12.84449946243286Q5.895062,12.762607462432861,5.857371,12.671612462432861Q5.81968,12.580618462432861,5.800465,12.484019462432862Q5.78125,12.387420862432862,5.78125,12.288929462432861Q5.78125,12.190438062432861,5.800465,12.093839462432861Q5.81968,11.997240462432861,5.857371,11.906246462432861Q5.895062,11.815251462432862,5.94978,11.733359462432862Q6.004499,11.651466462432861,6.074143,11.58182246243286Q6.143787,11.51217846243286,6.22568,11.457459462432862Q6.307572,11.40274146243286,6.398567,11.365050462432862Q6.489561,11.327359462432861,6.58616,11.30814446243286Q6.6827586,11.288929462432861,6.78125,11.288929462432861Z" fill-rule="evenodd" fill="#FFFFFF" fill-opacity="1"/></g><g><path d="M6.78125,18.561656951904297L9.50852,18.561656951904297Q9.607009999999999,18.561656951904297,9.70361,18.580871951904296Q9.80021,18.600086951904295,9.891210000000001,18.637777951904297Q9.9822,18.675468951904296,10.06409,18.730186951904297Q10.14599,18.784905951904296,10.21563,18.854549951904296Q10.28527,18.924193951904297,10.33999,19.006086951904297Q10.39471,19.087978951904297,10.4324,19.178973951904297Q10.470089999999999,19.269967951904295,10.48931,19.366566951904296Q10.50852,19.463165551904297,10.50852,19.561656951904297Q10.50852,19.660148351904297,10.48931,19.756746951904297Q10.470089999999999,19.8533459519043,10.4324,19.944339951904297Q10.39471,20.035334951904296,10.33999,20.117226951904296Q10.28527,20.199119951904297,10.21563,20.268763951904297Q10.14599,20.338407951904298,10.06409,20.393126951904296Q9.9822,20.447844951904298,9.891210000000001,20.485535951904296Q9.80021,20.5232269519043,9.70361,20.542441951904298Q9.607009999999999,20.561656951904297,9.50852,20.561656951904297L6.78125,20.561656951904297Q6.6827586,20.561656951904297,6.58616,20.542441951904298Q6.489561,20.5232269519043,6.398567,20.485535951904296Q6.307572,20.447844951904298,6.22568,20.393126951904296Q6.143787,20.338407951904298,6.074143,20.268763951904297Q6.004499,20.199119951904297,5.94978,20.117226951904296Q5.895062,20.035334951904296,5.857371,19.944339951904297Q5.81968,19.8533459519043,5.800465,19.756746951904297Q5.78125,19.660148351904297,5.78125,19.561656951904297Q5.78125,19.463165551904297,5.800465,19.366566951904296Q5.81968,19.269967951904295,5.857371,19.178973951904297Q5.895062,19.087978951904297,5.94978,19.006086951904297Q6.004499,18.924193951904297,6.074143,18.854549951904296Q6.143787,18.784905951904296,6.22568,18.730186951904297Q6.307572,18.675468951904296,6.398567,18.637777951904297Q6.489561,18.600086951904295,6.58616,18.580871951904296Q6.6827586,18.561656951904297,6.78125,18.561656951904297Z" fill-rule="evenodd" fill="#FFFFFF" fill-opacity="1"/></g><g transform="matrix(0,-1,1,0,-12.780406475067139,39.07017946243286)"><path d="M13.144886493682861,24.92529296875L15.872156493682862,24.92529296875Q15.97064649368286,24.92529296875,16.067246493682863,24.94450796875Q16.16384649368286,24.963722968749998,16.254846493682862,25.00141396875Q16.34583649368286,25.03910496875,16.42772649368286,25.09382296875Q16.509626493682863,25.14854196875,16.579266493682862,25.21818596875Q16.648906493682862,25.28782996875,16.70362649368286,25.36972296875Q16.75834649368286,25.45161496875,16.796036493682863,25.54260996875Q16.83372649368286,25.63360396875,16.85294649368286,25.73020296875Q16.872156493682862,25.82680156875,16.872156493682862,25.92529296875Q16.872156493682862,26.02378436875,16.85294649368286,26.12038296875Q16.83372649368286,26.21698196875,16.796036493682863,26.30797596875Q16.75834649368286,26.39897096875,16.70362649368286,26.48086296875Q16.648906493682862,26.56275596875,16.579266493682862,26.63239996875Q16.509626493682863,26.70204396875,16.42772649368286,26.75676296875Q16.34583649368286,26.81148096875,16.254846493682862,26.84917196875Q16.16384649368286,26.886862968750002,16.067246493682863,26.90607796875Q15.97064649368286,26.92529296875,15.872156493682862,26.92529296875L13.144886493682861,26.92529296875Q13.046395093682861,26.92529296875,12.949796493682861,26.90607796875Q12.853197493682861,26.886862968750002,12.762203493682861,26.84917196875Q12.671208493682862,26.81148096875,12.589316493682862,26.75676296875Q12.507423493682861,26.70204396875,12.43777949368286,26.63239996875Q12.36813549368286,26.56275596875,12.313416493682862,26.48086296875Q12.25869849368286,26.39897096875,12.221007493682862,26.30797596875Q12.183316493682861,26.21698196875,12.16410149368286,26.12038296875Q12.144886493682861,26.02378436875,12.144886493682861,25.92529296875Q12.144886493682861,25.82680156875,12.16410149368286,25.73020296875Q12.183316493682861,25.63360396875,12.221007493682862,25.54260996875Q12.25869849368286,25.45161496875,12.313416493682862,25.36972296875Q12.36813549368286,25.28782996875,12.43777949368286,25.21818596875Q12.507423493682861,25.14854196875,12.589316493682862,25.09382296875Q12.671208493682862,25.03910496875,12.762203493682861,25.00141396875Q12.853197493682861,24.963722968749998,12.949796493682861,24.94450796875Q13.046395093682861,24.92529296875,13.144886493682861,24.92529296875Z" fill-rule="evenodd" fill="#FFFFFF" fill-opacity="1"/></g><g transform="matrix(0,-1,1,0,-5.507678985595703,46.3429069519043)"><path d="M20.417613983154297,24.92529296875L23.144883983154298,24.92529296875Q23.243373983154296,24.92529296875,23.339973983154298,24.94450796875Q23.436573983154297,24.963722968749998,23.527573983154298,25.00141396875Q23.618563983154296,25.03910496875,23.700453983154297,25.09382296875Q23.782353983154298,25.14854196875,23.851993983154298,25.21818596875Q23.921633983154297,25.28782996875,23.976353983154297,25.36972296875Q24.031073983154297,25.45161496875,24.068763983154298,25.54260996875Q24.106453983154296,25.63360396875,24.125673983154297,25.73020296875Q24.144883983154298,25.82680156875,24.144883983154298,25.92529296875Q24.144883983154298,26.02378436875,24.125673983154297,26.12038296875Q24.106453983154296,26.21698196875,24.068763983154298,26.30797596875Q24.031073983154297,26.39897096875,23.976353983154297,26.48086296875Q23.921633983154297,26.56275596875,23.851993983154298,26.63239996875Q23.782353983154298,26.70204396875,23.700453983154297,26.75676296875Q23.618563983154296,26.81148096875,23.527573983154298,26.84917196875Q23.436573983154297,26.886862968750002,23.339973983154298,26.90607796875Q23.243373983154296,26.92529296875,23.144883983154298,26.92529296875L20.417613983154297,26.92529296875Q20.319122583154297,26.92529296875,20.222523983154296,26.90607796875Q20.125924983154295,26.886862968750002,20.034930983154297,26.84917196875Q19.943935983154297,26.81148096875,19.862043983154297,26.75676296875Q19.780150983154297,26.70204396875,19.710506983154296,26.63239996875Q19.640862983154296,26.56275596875,19.586143983154297,26.48086296875Q19.531425983154296,26.39897096875,19.493734983154297,26.30797596875Q19.456043983154295,26.21698196875,19.436828983154296,26.12038296875Q19.417613983154297,26.02378436875,19.417613983154297,25.92529296875Q19.417613983154297,25.82680156875,19.436828983154296,25.73020296875Q19.456043983154295,25.63360396875,19.493734983154297,25.54260996875Q19.531425983154296,25.45161496875,19.586143983154297,25.36972296875Q19.640862983154296,25.28782996875,19.710506983154296,25.21818596875Q19.780150983154297,25.14854196875,19.862043983154297,25.09382296875Q19.943935983154297,25.03910496875,20.034930983154297,25.00141396875Q20.125924983154295,24.963722968749998,20.222523983154296,24.94450796875Q20.319122583154297,24.92529296875,20.417613983154297,24.92529296875Z" fill-rule="evenodd" fill="#FFFFFF" fill-opacity="1"/></g></g></g><script xmlns=""/></svg>