<svg xmlns="http://www.w3.org/2000/svg" xmlns:xlink="http://www.w3.org/1999/xlink" fill="none" version="1.1" width="32" height="32" viewBox="0 0 32 32"><g transform="matrix(-1,0,0,1,64,0)"><g/><g><g><g><path d="M45.94870853424072,17.70529556274414L56.90450853424072,17.70529556274414Q57.00300853424072,17.70529556274414,57.09960853424072,17.72451056274414Q57.196208534240725,17.74372556274414,57.28720853424072,17.78141656274414Q57.37820853424073,17.81910756274414,57.460108534240725,17.87382556274414Q57.54200853424072,17.92854456274414,57.61160853424072,17.99818856274414Q57.68130853424072,18.06783256274414,57.736008534240725,18.14972556274414Q57.79070853424072,18.23161756274414,57.82840853424072,18.32261256274414Q57.86610853424072,18.41360656274414,57.88530853424072,18.51020556274414Q57.90450853424072,18.60680416274414,57.90450853424072,18.70529556274414Q57.90450853424072,18.80378696274414,57.88530853424072,18.90038556274414Q57.86610853424072,18.996984562744142,57.82840853424072,19.08797856274414Q57.79070853424072,19.17897356274414,57.736008534240725,19.26086556274414Q57.68130853424072,19.34275856274414,57.61160853424072,19.41240256274414Q57.54200853424072,19.48204656274414,57.460108534240725,19.53676556274414Q57.37820853424073,19.59148356274414,57.28720853424072,19.62917456274414Q57.196208534240725,19.666865562744142,57.09960853424072,19.68608056274414Q57.00300853424072,19.70529556274414,56.90450853424072,19.70529556274414L45.94870853424072,19.70529556274414Q45.85021713424072,19.70529556274414,45.75361853424072,19.68608056274414Q45.657019534240725,19.666865562744142,45.56602553424072,19.62917456274414Q45.47503053424072,19.59148356274414,45.39313853424072,19.53676556274414Q45.311245534240726,19.48204656274414,45.24160153424072,19.41240256274414Q45.171957534240725,19.34275856274414,45.11723853424072,19.26086556274414Q45.062520534240726,19.17897356274414,45.02482953424072,19.08797856274414Q44.98713853424072,18.996984562744142,44.967923534240725,18.90038556274414Q44.94870853424072,18.80378696274414,44.94870853424072,18.70529556274414Q44.94870853424072,18.60680416274414,44.967923534240725,18.51020556274414Q44.98713853424072,18.41360656274414,45.02482953424072,18.32261256274414Q45.062520534240726,18.23161756274414,45.11723853424072,18.14972556274414Q45.171957534240725,18.06783256274414,45.24160153424072,17.99818856274414Q45.311245534240726,17.92854456274414,45.39313853424072,17.87382556274414Q45.47503053424072,17.81910756274414,45.56602553424072,17.78141656274414Q45.657019534240725,17.74372556274414,45.75361853424072,17.72451056274414Q45.85021713424072,17.70529556274414,45.94870853424072,17.70529556274414Z" fill-rule="evenodd" fill="#FFFFFF" fill-opacity="1"/></g><g><path d="M38.342100620269775,6.88414192199707L56.90450062026977,6.88414192199707Q57.00300062026977,6.88414192199707,57.099600620269776,6.90335692199707Q57.19620062026978,6.92257192199707,57.28720062026977,6.96026292199707Q57.37820062026978,6.997953921997071,57.46010062026977,7.05267192199707Q57.542000620269775,7.10739092199707,57.611600620269776,7.177034921997071Q57.68130062026978,7.24667892199707,57.73600062026978,7.32857192199707Q57.790700620269774,7.410463921997071,57.828400620269775,7.50145892199707Q57.866100620269776,7.5924529219970704,57.885300620269774,7.68905192199707Q57.90450062026977,7.78565052199707,57.90450062026977,7.88414192199707Q57.90450062026977,7.982633321997071,57.885300620269774,8.07923192199707Q57.866100620269776,8.17583092199707,57.828400620269775,8.26682492199707Q57.790700620269774,8.35781992199707,57.73600062026978,8.43971192199707Q57.68130062026978,8.52160492199707,57.611600620269776,8.591248921997071Q57.542000620269775,8.660892921997071,57.46010062026977,8.71561192199707Q57.37820062026978,8.770329921997071,57.28720062026977,8.80802092199707Q57.19620062026978,8.84571192199707,57.099600620269776,8.864926921997071Q57.00300062026977,8.88414192199707,56.90450062026977,8.88414192199707L38.342100620269775,8.88414192199707Q38.243609220269775,8.88414192199707,38.147010620269775,8.864926921997071Q38.05041162026978,8.84571192199707,37.959417620269775,8.80802092199707Q37.868422620269776,8.770329921997071,37.78653062026977,8.71561192199707Q37.70463762026978,8.660892921997071,37.634993620269775,8.591248921997071Q37.56534962026978,8.52160492199707,37.51063062026977,8.43971192199707Q37.45591262026978,8.35781992199707,37.418221620269776,8.26682492199707Q37.380530620269774,8.17583092199707,37.36131562026978,8.07923192199707Q37.342100620269775,7.982633321997071,37.342100620269775,7.88414192199707Q37.342100620269775,7.78565052199707,37.36131562026978,7.68905192199707Q37.380530620269774,7.5924529219970704,37.418221620269776,7.50145892199707Q37.45591262026978,7.410463921997071,37.51063062026977,7.32857192199707Q37.56534962026978,7.24667892199707,37.634993620269775,7.177034921997071Q37.70463762026978,7.10739092199707,37.78653062026977,7.05267192199707Q37.868422620269776,6.997953921997071,37.959417620269775,6.96026292199707Q38.05041162026978,6.92257192199707,38.147010620269775,6.90335692199707Q38.243609220269775,6.88414192199707,38.342100620269775,6.88414192199707Z" fill-rule="evenodd" fill="#FFFFFF" fill-opacity="1"/></g><g><path d="M38.342100620269775,23.11586570739746L56.90450062026977,23.11586570739746Q57.00300062026977,23.11586570739746,57.099600620269776,23.13508070739746Q57.19620062026978,23.15429570739746,57.28720062026977,23.19198670739746Q57.37820062026978,23.22967770739746,57.46010062026977,23.28439570739746Q57.542000620269775,23.33911470739746,57.611600620269776,23.40875870739746Q57.68130062026978,23.47840270739746,57.73600062026978,23.56029570739746Q57.790700620269774,23.64218770739746,57.828400620269775,23.73318270739746Q57.866100620269776,23.82417670739746,57.885300620269774,23.92077570739746Q57.90450062026977,24.01737430739746,57.90450062026977,24.11586570739746Q57.90450062026977,24.21435710739746,57.885300620269774,24.31095570739746Q57.866100620269776,24.407554707397463,57.828400620269775,24.49854870739746Q57.790700620269774,24.58954370739746,57.73600062026978,24.67143570739746Q57.68130062026978,24.75332870739746,57.611600620269776,24.82297270739746Q57.542000620269775,24.892616707397462,57.46010062026977,24.94733570739746Q57.37820062026978,25.00205370739746,57.28720062026977,25.03974470739746Q57.19620062026978,25.077435707397463,57.099600620269776,25.096650707397462Q57.00300062026977,25.11586570739746,56.90450062026977,25.11586570739746L38.342100620269775,25.11586570739746Q38.243609220269775,25.11586570739746,38.147010620269775,25.096650707397462Q38.05041162026978,25.077435707397463,37.959417620269775,25.03974470739746Q37.868422620269776,25.00205370739746,37.78653062026977,24.94733570739746Q37.70463762026978,24.892616707397462,37.634993620269775,24.82297270739746Q37.56534962026978,24.75332870739746,37.51063062026977,24.67143570739746Q37.45591262026978,24.58954370739746,37.418221620269776,24.49854870739746Q37.380530620269774,24.407554707397463,37.36131562026978,24.31095570739746Q37.342100620269775,24.21435710739746,37.342100620269775,24.11586570739746Q37.342100620269775,24.01737430739746,37.36131562026978,23.92077570739746Q37.380530620269774,23.82417670739746,37.418221620269776,23.73318270739746Q37.45591262026978,23.64218770739746,37.51063062026977,23.56029570739746Q37.56534962026978,23.47840270739746,37.634993620269775,23.40875870739746Q37.70463762026978,23.33911470739746,37.78653062026977,23.28439570739746Q37.868422620269776,23.22967770739746,37.959417620269775,23.19198670739746Q38.05041162026978,23.15429570739746,38.147010620269775,23.13508070739746Q38.243609220269775,23.11586570739746,38.342100620269775,23.11586570739746Z" fill-rule="evenodd" fill="#FFFFFF" fill-opacity="1"/></g><g><path d="M45.94870853424072,12.294716358184814L56.90450853424072,12.294716358184814Q57.00300853424072,12.294716358184814,57.09960853424072,12.313931358184814Q57.196208534240725,12.333146358184814,57.28720853424072,12.370837358184815Q57.37820853424073,12.408528358184814,57.460108534240725,12.463246358184815Q57.54200853424072,12.517965358184814,57.61160853424072,12.587609358184814Q57.68130853424072,12.657253358184814,57.736008534240725,12.739146358184815Q57.79070853424072,12.821038358184815,57.82840853424072,12.912033358184814Q57.86610853424072,13.003027358184815,57.88530853424072,13.099626358184814Q57.90450853424072,13.196224958184814,57.90450853424072,13.294716358184814Q57.90450853424072,13.393207758184815,57.88530853424072,13.489806358184815Q57.86610853424072,13.586405358184814,57.82840853424072,13.677399358184815Q57.79070853424072,13.768394358184814,57.736008534240725,13.850286358184814Q57.68130853424072,13.932179358184815,57.61160853424072,14.001823358184815Q57.54200853424072,14.071467358184815,57.460108534240725,14.126186358184814Q57.37820853424073,14.180904358184815,57.28720853424072,14.218595358184814Q57.196208534240725,14.256286358184814,57.09960853424072,14.275501358184815Q57.00300853424072,14.294716358184814,56.90450853424072,14.294716358184814L45.94870853424072,14.294716358184814Q45.85021713424072,14.294716358184814,45.75361853424072,14.275501358184815Q45.657019534240725,14.256286358184814,45.56602553424072,14.218595358184814Q45.47503053424072,14.180904358184815,45.39313853424072,14.126186358184814Q45.311245534240726,14.071467358184815,45.24160153424072,14.001823358184815Q45.171957534240725,13.932179358184815,45.11723853424072,13.850286358184814Q45.062520534240726,13.768394358184814,45.02482953424072,13.677399358184815Q44.98713853424072,13.586405358184814,44.967923534240725,13.489806358184815Q44.94870853424072,13.393207758184815,44.94870853424072,13.294716358184814Q44.94870853424072,13.196224958184814,44.967923534240725,13.099626358184814Q44.98713853424072,13.003027358184815,45.02482953424072,12.912033358184814Q45.062520534240726,12.821038358184815,45.11723853424072,12.739146358184815Q45.171957534240725,12.657253358184814,45.24160153424072,12.587609358184814Q45.311245534240726,12.517965358184814,45.39313853424072,12.463246358184815Q45.47503053424072,12.408528358184814,45.56602553424072,12.370837358184815Q45.657019534240725,12.333146358184814,45.75361853424072,12.313931358184814Q45.85021713424072,12.294716358184814,45.94870853424072,12.294716358184814Z" fill-rule="evenodd" fill="#FFFFFF" fill-opacity="1"/></g></g><g transform="matrix(0,-1,-1,0,63.42428970336914,63.42428970336914)"><path d="M51.80002223449707,23.32401746887207Q51.77623223449707,22.70588746887207,51.46694223449707,22.17017746887207L49.58934223449707,18.91807746887207Q49.280042234497074,18.38236346887207,48.75662223449707,18.05269746887207Q48.14596223449707,17.66807746887207,47.42427223449707,17.66807746887207Q46.70259223449707,17.66807746887207,46.09193223449707,18.05269746887207Q45.56851223449707,18.38236346887207,45.25921223449707,18.91807746887207L43.38161423449707,22.17017746887207Q43.07232223449707,22.70588746887207,43.04853223449707,23.32401746887207Q43.02077223449707,24.04517746887207,43.38161423449707,24.67017746887207Q43.74245823449707,25.29517746887207,44.38087423449707,25.631707468872072Q44.92808923449707,25.92017746887207,45.54668223449707,25.92017746887207L49.30187223449707,25.92017746887207Q49.92046223449707,25.92017746887207,50.46768223449707,25.631707468872072Q51.10609223449707,25.29517746887207,51.46694223449707,24.67017746887207Q51.82778223449707,24.04517746887207,51.80002223449707,23.32401746887207ZM49.73489223449707,23.67017746887207Q49.76780223449707,23.61316746887207,49.78484223449707,23.54958746887207Q49.80187223449707,23.48599746887207,49.80187223449707,23.42017746887207Q49.80187223449707,23.35434746887207,49.78484223449707,23.29076746887207Q49.76780223449707,23.22717746887207,49.73489223449707,23.17017746887207L49.02523223449707,21.94100746887207L49.01320223449707,21.92017746887207L48.57897223449707,21.16807746887207L48.56695223449707,21.14724746887207L47.85729223449707,19.91807746887207Q47.82437223449707,19.86107046887207,47.77783223449707,19.81452446887207Q47.73128223449707,19.76797846887207,47.67427223449707,19.73506446887207Q47.61727223449707,19.70215146887207,47.55368223449707,19.68511446887207Q47.49010223449707,19.66807746887207,47.42427223449707,19.66807746887207Q47.35845223449707,19.66807746887207,47.29486223449707,19.68511446887207Q47.23128223449707,19.70215146887207,47.17427223449707,19.73506446887207Q47.11727223449707,19.76797846887207,47.07072223449707,19.81452446887207Q47.02417223449707,19.86107046887207,46.99126223449707,19.91807746887207L46.28160223449707,21.14724746887207L46.26957223449707,21.16807746887207L45.83535223449707,21.92017746887207L45.82332223449707,21.94100746887207L45.11366523449707,23.17017746887207Q45.08075223449707,23.22717746887207,45.06371523449707,23.29076746887207Q45.04667823449707,23.35434746887207,45.04667823449707,23.42017746887207Q45.04667823449707,23.48599746887207,45.06371523449707,23.54958746887207Q45.08075223449707,23.61316746887207,45.11366523449707,23.67017746887207Q45.14657823449707,23.72717746887207,45.19312423449707,23.77372746887207Q45.23967023449707,23.82027746887207,45.29668223449707,23.853187468872072Q45.35368223449707,23.88609746887207,45.41727223449707,23.90313746887207Q45.48085223449707,23.92017746887207,45.54668223449707,23.92017746887207L49.30187223449707,23.92017746887207Q49.367702234497074,23.92017746887207,49.43128223449707,23.90313746887207Q49.49487223449707,23.88609746887207,49.55187223449707,23.853187468872072Q49.608882234497074,23.82026746887207,49.65543223449707,23.77372746887207Q49.70197223449707,23.72717746887207,49.73489223449707,23.67017746887207Z" fill-rule="evenodd" fill="#FFFFFF" fill-opacity="1"/></g></g></g><script xmlns=""/></svg>