<svg xmlns="http://www.w3.org/2000/svg" xmlns:xlink="http://www.w3.org/1999/xlink" fill="none" version="1.1" width="216.58984375" height="138.01953125" viewBox="0 0 216.58984375 138.01953125"><g><g><g><rect x="157.234375" y="78.51171875" width="58.35496520996094" height="58.50960922241211" rx="12" fill-opacity="0" stroke-opacity="1" stroke="#FFFFFF" fill="none" stroke-width="2"/></g><g><path d="M176.836285,121.6640625L184.432325,121.6640625C192.280325,121.6640625,197.320325,117.2000625,197.320325,108.2360625C197.320325,99.2360625,192.280325,94.9880625,184.144325,94.9880625L176.836285,94.9880625L176.836285,121.6640625ZM182.164325,117.38006250000001L182.164325,99.2720625L183.820325,99.2720625C188.788325,99.2720625,191.884325,101.7200625,191.884325,108.2360625C191.884325,114.71606249999999,188.788325,117.38006250000001,183.820325,117.38006250000001L182.164325,117.38006250000001Z" fill="#FFFFFF" fill-opacity="1"/></g></g><g><g><rect x="79.12109375" y="1" width="58.35496520996094" height="58.50960922241211" rx="12" fill-opacity="0" stroke-opacity="1" stroke="#FFFFFF" fill="none" stroke-width="2"/></g><g><path d="M97.6258225,44.66796875L104.1418625,44.66796875L107.0578625,31.49196875C107.4898625,29.40396875,107.8498625,27.35196875,108.2098625,25.29996875L108.3538625,25.29996875C108.6778625,27.35196875,109.0738625,29.40396875,109.5058625,31.49196875L112.4938625,44.66796875L119.1178625,44.66796875L124.0498625,17.991968749999998L119.0098625,17.991968749999998L116.8858625,31.02396875C116.4898625,33.79596875,116.0938625,36.63996875,115.6978625,39.51996875L115.5178625,39.51996875C114.9418625,36.63996875,114.4018625,33.75996875,113.8258625,31.02396875L110.7658625,17.991968749999998L106.1938625,17.991968749999998L103.0978625,31.02396875C102.5218625,33.79596875,101.9458625,36.63996875,101.4058625,39.51996875L101.2618625,39.51996875C100.8658625,36.63996875,100.4338625,33.83196875,100.0378625,31.02396875L97.9138225,17.991968749999998L92.5138225,17.991968749999998L97.6258225,44.66796875Z" fill="#FFFFFF" fill-opacity="1"/></g></g><g><g><rect x="1" y="78.51171875" width="58.35496520996094" height="58.50960922241211" rx="12" fill-opacity="0" stroke-opacity="1" stroke="#FFFFFF" fill="none" stroke-width="2"/></g><g><path d="M28.80975,107.7680625C29.60175,104.9960625,30.39375,101.97206249999999,31.07775,99.0560625L31.25775,99.0560625C32.01375,101.93606249999999,32.73375,104.9960625,33.56175,107.7680625L34.353750000000005,110.6840625L28.01775,110.6840625L28.80975,107.7680625ZM19.59373,121.6640625L24.99373,121.6640625L26.86575,114.8240625L35.50575,114.8240625L37.37775,121.6640625L42.957750000000004,121.6640625L34.38975,94.9880625L28.12575,94.9880625L19.59373,121.6640625Z" fill="#FFFFFF" fill-opacity="1"/></g></g><g><g><rect x="79.12109375" y="78.51171875" width="58.35496520996094" height="58.50960922241211" rx="12" fill-opacity="0" stroke-opacity="1" stroke="#FFFFFF" fill="none" stroke-width="2"/></g><g><path d="M107.20114375,122.16806249999999C113.35714375,122.16806249999999,116.99314375,118.46006249999999,116.99314375,114.1040625C116.99314375,110.2520625,114.86914375,108.2000625,111.62914375,106.86806250000001L108.13714375,105.39206250000001C105.86914375,104.4920625,103.99718375,103.8080625,103.99718375,101.9000625C103.99718375,100.13606250000001,105.47314375,99.0920625,107.81314375,99.0920625C110.00914374999999,99.0920625,111.77314375,99.8840625,113.46514375,101.2880625L116.16514375,97.9400625C114.00514375,95.7440625,110.90914375,94.5200625,107.81314375,94.5200625C102.41318375,94.5200625,98.59718375,97.86806250000001,98.59718375,102.2240625C98.59718375,106.11206250000001,101.29718375,108.2720625,103.99718375,109.3880625L107.56114375,110.9000625C109.93714375,111.9080625,111.55714375,112.5200625,111.55714375,114.5000625C111.55714375,116.3720625,110.08114375,117.5600625,107.30914375,117.5600625C104.96914375,117.5600625,102.44918375,116.3720625,100.54118375,114.6080625L97.48118375,118.2800625C100.07318375,120.7640625,103.63718375,122.16806249999999,107.20114375,122.16806249999999Z" fill="#FFFFFF" fill-opacity="1"/></g></g></g></svg>