<svg xmlns="http://www.w3.org/2000/svg" xmlns:xlink="http://www.w3.org/1999/xlink" fill="none" version="1.1" width="32" height="32" viewBox="0 0 32 32"><g><g/><g><g><ellipse cx="8.213862385600805" cy="8.36316204071045" rx="2.023521900177002" ry="2.023521900177002" fill-opacity="0" stroke-opacity="1" stroke="#FFFFFF" fill="none" stroke-width="2"/></g><g><ellipse cx="16.36189842224121" cy="16.109902381896973" rx="2.023521900177002" ry="2.023521900177002" fill-opacity="0" stroke-opacity="1" stroke="#FFFFFF" fill="none" stroke-width="2"/></g><g><ellipse cx="13.43569564819336" cy="23.6367769241333" rx="2.023521900177002" ry="2.023521900177002" fill-opacity="0" stroke-opacity="1" stroke="#FFFFFF" fill="none" stroke-width="2"/></g><g><path d="M10.470959186553955,7.480096340179443L25.863159186553958,7.480096340179443Q25.961659186553955,7.480096340179443,26.058259186553954,7.499311340179443Q26.154859186553956,7.518526340179443,26.245859186553957,7.556217340179443Q26.336859186553955,7.593908340179444,26.418759186553956,7.648626340179443Q26.500659186553953,7.703345340179443,26.570259186553955,7.772989340179444Q26.639959186553956,7.842633340179443,26.694659186553956,7.924526340179443Q26.749359186553956,8.006418340179444,26.787059186553954,8.097413340179443Q26.824759186553955,8.188407340179443,26.843959186553956,8.285006340179443Q26.863159186553954,8.381604940179443,26.863159186553954,8.480096340179443Q26.863159186553954,8.578587740179444,26.843959186553956,8.675186340179444Q26.824759186553955,8.771785340179443,26.787059186553954,8.862779340179443Q26.749359186553956,8.953774340179443,26.694659186553956,9.035666340179443Q26.639959186553956,9.117559340179444,26.570259186553955,9.187203340179444Q26.500659186553953,9.256847340179444,26.418759186553956,9.311566340179443Q26.336859186553955,9.366284340179444,26.245859186553957,9.403975340179443Q26.154859186553956,9.441666340179443,26.058259186553954,9.460881340179444Q25.961659186553955,9.480096340179443,25.863159186553958,9.480096340179443L10.470959186553955,9.480096340179443Q10.372467786553955,9.480096340179443,10.275869186553955,9.460881340179444Q10.179270186553955,9.441666340179443,10.088276186553955,9.403975340179443Q9.997281186553955,9.366284340179444,9.915389186553956,9.311566340179443Q9.833496186553955,9.256847340179444,9.763852186553954,9.187203340179444Q9.694208186553954,9.117559340179444,9.639489186553956,9.035666340179443Q9.584771186553954,8.953774340179443,9.547080186553956,8.862779340179443Q9.509389186553955,8.771785340179443,9.490174186553954,8.675186340179444Q9.470959186553955,8.578587740179444,9.470959186553955,8.480096340179443Q9.470959186553955,8.381604940179443,9.490174186553954,8.285006340179443Q9.509389186553955,8.188407340179443,9.547080186553956,8.097413340179443Q9.584771186553954,8.006418340179444,9.639489186553956,7.924526340179443Q9.694208186553954,7.842633340179443,9.763852186553954,7.772989340179444Q9.833496186553955,7.703345340179443,9.915389186553956,7.648626340179443Q9.997281186553955,7.593908340179444,10.088276186553955,7.556217340179443Q10.179270186553955,7.518526340179443,10.275869186553955,7.499311340179443Q10.372467786553955,7.480096340179443,10.470959186553955,7.480096340179443Z" fill-rule="evenodd" fill="#FFFFFF" fill-opacity="1"/></g><g><path d="M18.607357501983643,15.09334135055542L25.863187501983642,15.09334135055542Q25.961677501983644,15.09334135055542,26.058277501983643,15.112556350555419Q26.15487750198364,15.13177135055542,26.245867501983643,15.16946235055542Q26.336857501983644,15.20715335055542,26.41875750198364,15.26187135055542Q26.500647501983643,15.316590350555419,26.570287501983643,15.38623435055542Q26.639937501983642,15.45587835055542,26.69465750198364,15.53777135055542Q26.749377501983645,15.61966335055542,26.787067501983643,15.71065835055542Q26.82475750198364,15.80165235055542,26.84396750198364,15.89825135055542Q26.863187501983642,15.99484995055542,26.863187501983642,16.09334135055542Q26.863187501983642,16.19183275055542,26.84396750198364,16.28843135055542Q26.82475750198364,16.38503035055542,26.787067501983643,16.47602435055542Q26.749377501983645,16.56701935055542,26.69465750198364,16.64891135055542Q26.639937501983642,16.73080435055542,26.570287501983643,16.80044835055542Q26.500647501983643,16.87009235055542,26.41875750198364,16.92481135055542Q26.336857501983644,16.97952935055542,26.245867501983643,17.01722035055542Q26.15487750198364,17.05491135055542,26.058277501983643,17.07412635055542Q25.961677501983644,17.09334135055542,25.863187501983642,17.09334135055542L18.607357501983643,17.09334135055542Q18.508866101983642,17.09334135055542,18.412267501983642,17.07412635055542Q18.31566850198364,17.05491135055542,18.224674501983642,17.01722035055542Q18.133679501983643,16.97952935055542,18.051787501983643,16.92481135055542Q17.969894501983642,16.87009235055542,17.900250501983642,16.80044835055542Q17.83060650198364,16.73080435055542,17.775887501983643,16.64891135055542Q17.721169501983642,16.56701935055542,17.683478501983643,16.47602435055542Q17.64578750198364,16.38503035055542,17.62657250198364,16.28843135055542Q17.607357501983643,16.19183275055542,17.607357501983643,16.09334135055542Q17.607357501983643,15.99484995055542,17.62657250198364,15.89825135055542Q17.64578750198364,15.80165235055542,17.683478501983643,15.71065835055542Q17.721169501983642,15.61966335055542,17.775887501983643,15.53777135055542Q17.83060650198364,15.45587835055542,17.900250501983642,15.38623435055542Q17.969894501983642,15.316590350555419,18.051787501983643,15.26187135055542Q18.133679501983643,15.20715335055542,18.224674501983642,15.16946235055542Q18.31566850198364,15.13177135055542,18.412267501983642,15.112556350555419Q18.508866101983642,15.09334135055542,18.607357501983643,15.09334135055542Z" fill-rule="evenodd" fill="#FFFFFF" fill-opacity="1"/></g><g><path d="M15.459285259246826,22.706505298614502L25.863185259246826,22.706505298614502Q25.961685259246828,22.706505298614502,26.058285259246826,22.7257202986145Q26.154885259246825,22.7449352986145,26.245885259246826,22.782626298614503Q26.336885259246827,22.8203172986145,26.418785259246825,22.875035298614502Q26.500685259246826,22.9297542986145,26.570385259246827,22.9993982986145Q26.639985259246828,23.0690422986145,26.694685259246825,23.150935298614502Q26.74938525924683,23.232827298614502,26.787085259246826,23.323822298614502Q26.824785259246827,23.4148162986145,26.84398525924683,23.5114152986145Q26.863185259246826,23.6080138986145,26.863185259246826,23.706505298614502Q26.863185259246826,23.804996698614502,26.84398525924683,23.901595298614502Q26.824785259246827,23.998194298614504,26.787085259246826,24.089188298614502Q26.74938525924683,24.1801832986145,26.694685259246825,24.2620752986145Q26.639985259246828,24.343968298614502,26.570385259246827,24.413612298614503Q26.500685259246826,24.483256298614503,26.418785259246825,24.5379752986145Q26.336885259246827,24.592693298614503,26.245885259246826,24.6303842986145Q26.154885259246825,24.668075298614504,26.058285259246826,24.687290298614503Q25.961685259246828,24.706505298614502,25.863185259246826,24.706505298614502L15.459285259246826,24.706505298614502Q15.360793859246826,24.706505298614502,15.264195259246826,24.687290298614503Q15.167596259246826,24.668075298614504,15.076602259246826,24.6303842986145Q14.985607259246827,24.592693298614503,14.903715259246827,24.5379752986145Q14.821822259246826,24.483256298614503,14.752178259246826,24.413612298614503Q14.682534259246825,24.343968298614502,14.627815259246827,24.2620752986145Q14.573097259246826,24.1801832986145,14.535406259246827,24.089188298614502Q14.497715259246826,23.998194298614504,14.478500259246825,23.901595298614502Q14.459285259246826,23.804996698614502,14.459285259246826,23.706505298614502Q14.459285259246826,23.6080138986145,14.478500259246825,23.5114152986145Q14.497715259246826,23.4148162986145,14.535406259246827,23.323822298614502Q14.573097259246826,23.232827298614502,14.627815259246827,23.150935298614502Q14.682534259246825,23.0690422986145,14.752178259246826,22.9993982986145Q14.821822259246826,22.9297542986145,14.903715259246827,22.875035298614502Q14.985607259246827,22.8203172986145,15.076602259246826,22.782626298614503Q15.167596259246826,22.7449352986145,15.264195259246826,22.7257202986145Q15.360793859246826,22.706505298614502,15.459285259246826,22.706505298614502Z" fill-rule="evenodd" fill="#FFFFFF" fill-opacity="1"/></g><g><path d="M6.136393070220947,15.09334135055542L14.338373070220948,15.09334135055542Q14.436873070220948,15.09334135055542,14.533463070220947,15.112556350555419Q14.630063070220947,15.13177135055542,14.721063070220946,15.16946235055542Q14.812053070220948,15.20715335055542,14.893943070220947,15.26187135055542Q14.975843070220947,15.316590350555419,15.045483070220948,15.38623435055542Q15.115123070220948,15.45587835055542,15.169843070220947,15.53777135055542Q15.224563070220947,15.61966335055542,15.262253070220947,15.71065835055542Q15.299953070220948,15.80165235055542,15.319163070220947,15.89825135055542Q15.338373070220948,15.99484995055542,15.338373070220948,16.09334135055542Q15.338373070220948,16.19183275055542,15.319163070220947,16.28843135055542Q15.299953070220948,16.38503035055542,15.262253070220947,16.47602435055542Q15.224563070220947,16.56701935055542,15.169843070220947,16.64891135055542Q15.115123070220948,16.73080435055542,15.045483070220948,16.80044835055542Q14.975843070220947,16.87009235055542,14.893943070220947,16.92481135055542Q14.812053070220948,16.97952935055542,14.721063070220946,17.01722035055542Q14.630063070220947,17.05491135055542,14.533463070220947,17.07412635055542Q14.436873070220948,17.09334135055542,14.338373070220948,17.09334135055542L6.136393070220947,17.09334135055542Q6.037901670220947,17.09334135055542,5.941303070220947,17.07412635055542Q5.844704070220947,17.05491135055542,5.753710070220947,17.01722035055542Q5.662715070220948,16.97952935055542,5.580823070220947,16.92481135055542Q5.498930070220947,16.87009235055542,5.429286070220948,16.80044835055542Q5.359642070220947,16.73080435055542,5.304923070220947,16.64891135055542Q5.2502050702209475,16.56701935055542,5.212514070220947,16.47602435055542Q5.174823070220947,16.38503035055542,5.155608070220947,16.28843135055542Q5.136393070220947,16.19183275055542,5.136393070220947,16.09334135055542Q5.136393070220947,15.99484995055542,5.155608070220947,15.89825135055542Q5.174823070220947,15.80165235055542,5.212514070220947,15.71065835055542Q5.2502050702209475,15.61966335055542,5.304923070220947,15.53777135055542Q5.359642070220947,15.45587835055542,5.429286070220948,15.38623435055542Q5.498930070220947,15.316590350555419,5.580823070220947,15.26187135055542Q5.662715070220948,15.20715335055542,5.753710070220947,15.16946235055542Q5.844704070220947,15.13177135055542,5.941303070220947,15.112556350555419Q6.037901670220947,15.09334135055542,6.136393070220947,15.09334135055542Z" fill-rule="evenodd" fill="#FFFFFF" fill-opacity="1"/></g><g><path d="M6.136393070220947,22.656511783599854L11.113583070220947,22.656511783599854Q11.212073070220947,22.656511783599854,11.308673070220948,22.675726783599853Q11.405273070220947,22.69494178359985,11.496273070220948,22.732632783599854Q11.587263070220947,22.770323783599853,11.669153070220947,22.825041783599854Q11.751053070220948,22.879760783599853,11.820693070220948,22.949404783599853Q11.890333070220947,23.019048783599853,11.945053070220947,23.100941783599854Q11.999773070220947,23.182833783599854,12.037463070220948,23.273828783599853Q12.075153070220948,23.364822783599852,12.094373070220946,23.461421783599853Q12.113583070220947,23.558020383599853,12.113583070220947,23.656511783599854Q12.113583070220947,23.755003183599854,12.094373070220946,23.851601783599854Q12.075153070220948,23.948200783599855,12.037463070220948,24.039194783599854Q11.999773070220947,24.130189783599853,11.945053070220947,24.212081783599853Q11.890333070220947,24.293974783599854,11.820693070220948,24.363618783599854Q11.751053070220948,24.433262783599854,11.669153070220947,24.487981783599853Q11.587263070220947,24.542699783599854,11.496273070220948,24.580390783599853Q11.405273070220947,24.618081783599855,11.308673070220948,24.637296783599854Q11.212073070220947,24.656511783599854,11.113583070220947,24.656511783599854L6.136393070220947,24.656511783599854Q6.037901670220947,24.656511783599854,5.941303070220947,24.637296783599854Q5.844704070220947,24.618081783599855,5.753710070220947,24.580390783599853Q5.662715070220948,24.542699783599854,5.580823070220947,24.487981783599853Q5.498930070220947,24.433262783599854,5.429286070220948,24.363618783599854Q5.359642070220947,24.293974783599854,5.304923070220947,24.212081783599853Q5.2502050702209475,24.130189783599853,5.212514070220947,24.039194783599854Q5.174823070220947,23.948200783599855,5.155608070220947,23.851601783599854Q5.136393070220947,23.755003183599854,5.136393070220947,23.656511783599854Q5.136393070220947,23.558020383599853,5.155608070220947,23.461421783599853Q5.174823070220947,23.364822783599852,5.212514070220947,23.273828783599853Q5.2502050702209475,23.182833783599854,5.304923070220947,23.100941783599854Q5.359642070220947,23.019048783599853,5.429286070220948,22.949404783599853Q5.498930070220947,22.879760783599853,5.580823070220947,22.825041783599854Q5.662715070220948,22.770323783599853,5.753710070220947,22.732632783599854Q5.844704070220947,22.69494178359985,5.941303070220947,22.675726783599853Q6.037901670220947,22.656511783599854,6.136393070220947,22.656511783599854Z" fill-rule="evenodd" fill="#FFFFFF" fill-opacity="1"/></g></g></g><script xmlns=""/></svg>