<svg xmlns="http://www.w3.org/2000/svg" xmlns:xlink="http://www.w3.org/1999/xlink" fill="none" version="1.1" width="182.15234375" height="182.15234375" viewBox="0 0 182.15234375 182.15234375"><g transform="matrix(-1,0,0,1,360.3046875,0)"><g><g/><g><g><path d="M278.96101920593264,67.59266951370239L278.96101920593264,73.82986951370239L299.9832392059326,73.8301695137024L301.9832392059326,73.83026951370239C301.9832392059326,73.1609695137024,301.9610392059326,72.4939695137024,301.9168392059326,71.83026951370239C301.4354392059326,64.59356951370239,298.3541392059326,57.74676951370239,293.2008392059326,52.59354951370239C288.04893920593264,47.42191951370239,281.2222392059326,44.33915751370239,274.0071392059326,43.856471513702395C273.34342920593264,43.81206951370239,272.6764252059326,43.78966951370239,272.0071392059326,43.78966951370239L272.0071392059326,61.59266951370239L272.9610162059326,61.59266951370239C276.2747292059326,61.59266951370239,278.96101920593264,64.27896951370239,278.96101920593264,67.59266951370239ZM274.0071392059326,59.65396951370239Q276.6535592059326,59.97146951370239,278.6178692059326,61.93586951370239Q280.96101920593264,64.27896951370239,280.96101920593264,67.59266951370239L280.96101920593264,71.82986951370239L299.92103920593263,71.8301695137024Q299.26903920593264,61.4901695137024,291.7866392059326,54.00776951370239Q284.31523920593264,46.50778951370239,274.0071392059326,45.852419513702394L274.0071392059326,59.65396951370239Z" fill-rule="evenodd" fill="#FFFFFF" fill-opacity="1"/></g><g transform="matrix(-1,0,0,1,531.6494140625,0)"><path d="M265.82470703125,61.59266951370239L266.77858403125,61.59266951370239C270.09229703125,61.59266951370239,272.77858703125,64.27896951370239,272.77858703125,67.59266951370239L272.77858703125,73.82986951370239L295.80080703125,73.83026951370239C295.80080703125,65.8637695137024,292.64430703125,58.21946951370239,287.01840703125,52.59354951370239C281.39250703125,46.94618951370239,273.76967703125,43.78966951370239,265.82470703125,43.78966951370239L265.82470703125,61.59266951370239Z" fill="#FFFFFF" fill-opacity="1"/></g><g transform="matrix(0,1,-1,0,340.83349084854126,-208.7493224143982)"><rect x="275.7914066314697" y="67.04208421707153" width="23.033966064453125" height="9.126206398010254" rx="1" fill-opacity="0" stroke-opacity="1" stroke="#FFFFFF" fill="none" stroke-width="2"/></g><g><path d="M259.4928850066585,78.5590672492981L235.84968500665855,78.5590672492981L235.84968500665855,104.9837672492981C235.84968500665855,123.4182672492981,250.79378500665854,138.3624672492981,269.22828500665855,138.3624672492981C287.66278500665857,138.3624672492981,302.60688500665856,123.4182672492981,302.60688500665856,104.9837672492981L302.60688500665856,78.5590672492981L278.9636850066585,78.5590672492981L278.9636850066585,93.2483672492981C278.9636850066585,94.3529672492981,278.0682850066585,95.2483672492981,276.9636850066585,95.2483672492981L261.4928850066585,95.2483672492981C260.3882850066585,95.2483672492981,259.4928850066585,94.3529672492981,259.4928850066585,93.2483672492981L259.4928850066585,78.5590672492981ZM237.84968500665855,104.9837672492981L237.84968500665855,80.5590672492981L257.4928850066585,80.5590672492981L257.4928850066585,93.2483672492981Q257.4928850066585,94.90526724929809,258.66448500665854,96.0767672492981Q259.8359850066586,97.2483672492981,261.4928850066585,97.2483672492981L276.96378500665855,97.2483672492981Q278.62058500665853,97.2483672492981,279.79218500665854,96.0767672492981Q280.96378500665855,94.90526724929809,280.96378500665855,93.2483672492981L280.96378500665855,80.5590672492981L300.60688500665856,80.5590672492981L300.60688500665856,104.9837672492981Q300.60688500665856,117.9812672492981,291.4163850066585,127.17186724929809Q282.22578500665855,136.3624672492981,269.22828500665855,136.3624672492981Q256.2308850066585,136.3624672492981,247.04028500665854,127.17186724929809Q237.84968500665855,117.9812672492981,237.84968500665855,104.9837672492981Z" fill-rule="evenodd" fill="#FFFFFF" fill-opacity="1"/></g></g></g><g transform="matrix(0,-1,-1,0,297.1423110961914,297.1423110961914)"><path d="M290.31389846191405,25.914512634277344L281.00019846191407,16.600812634277343Q280.93069846191406,16.53131263427734,280.86839846191407,16.455412634277344Q280.80599846191404,16.379412634277344,280.75139846191405,16.297712634277346Q280.6968984619141,16.216012634277345,280.6504984619141,16.129412634277344Q280.60419846191405,16.042712634277343,280.56659846191405,15.951912634277344Q280.52899846191406,15.861212634277344,280.50049846191405,15.767212634277344Q280.47199846191404,15.673112634277343,280.4527984619141,15.576812634277344Q280.4335984619141,15.480412634277343,280.42399846191404,15.382612634277343Q280.41439846191406,15.284812634277344,280.41439846191406,15.186612634277344Q280.41439846191406,15.088312634277344,280.42399846191404,14.990512634277344Q280.4335984619141,14.892812634277345,280.4527984619141,14.796412634277344Q280.47199846191404,14.700012634277345,280.50049846191405,14.606012634277343Q280.52899846191406,14.512012634277344,280.56659846191405,14.421212634277344Q280.60419846191405,14.330412634277344,280.6504984619141,14.243812634277344Q280.6968984619141,14.157112634277343,280.75139846191405,14.075412634277344Q280.80599846191404,13.993712634277344,280.86839846191407,13.917812634277343Q280.93069846191406,13.841812634277344,281.00019846191407,13.772412634277345Q281.0696984619141,13.702912634277343,281.14559846191406,13.640612634277344Q281.2215984619141,13.578212634277344,281.30319846191406,13.523612634277344Q281.3848984619141,13.469112634277344,281.4715984619141,13.422712634277344Q281.55819846191406,13.376412634277344,281.64899846191406,13.338812634277344Q281.73979846191406,13.301212634277343,281.83379846191406,13.272712634277344Q281.92779846191405,13.244212634277345,282.02419846191407,13.225012634277343Q282.1205984619141,13.205812634277343,282.21839846191403,13.196212634277344Q282.31609846191407,13.186612634277344,282.41439846191406,13.186612634277344Q282.5125984619141,13.186612634277344,282.6103984619141,13.196212634277344Q282.70819846191404,13.205812634277343,282.80459846191405,13.225012634277343Q282.90089846191404,13.244212634277345,282.99499846191407,13.272712634277344Q283.08899846191406,13.301212634277343,283.17979846191406,13.338812634277344Q283.2704984619141,13.376412634277344,283.35719846191404,13.422712634277344Q283.44379846191407,13.469112634277344,283.5254984619141,13.523612634277344Q283.60719846191404,13.578212634277344,283.68319846191406,13.640612634277344Q283.75909846191405,13.702912634277343,283.82859846191405,13.772412634277345L296.5564984619141,26.500302634277343Q296.62599846191404,26.569772634277342,296.6882984619141,26.645722634277345Q296.75069846191406,26.721672634277343,296.8051984619141,26.803372634277345Q296.85979846191407,26.885062634277343,296.9061984619141,26.971718634277345Q296.95249846191405,27.058370634277345,296.99009846191404,27.149145634277343Q297.02769846191404,27.239920634277343,297.05619846191405,27.333942634277342Q297.08469846191406,27.427965634277342,297.10389846191407,27.524331634277345Q297.1230984619141,27.620697634277345,297.13269846191406,27.718478634277343Q297.14229846191404,27.816258834277345,297.14229846191404,27.914512494615344Q297.14229846191404,28.012766134277342,297.13269846191406,28.110546634277345Q297.12299846191405,28.208327634277342,297.10389846191407,28.304692634277345Q297.08469846191406,28.401058634277344,297.05619846191405,28.495081634277344Q297.02769846191404,28.589104634277344,296.99009846191404,28.679879634277345Q296.95249846191405,28.770653634277345,296.9061984619141,28.857305634277346Q296.85979846191407,28.943962634277344,296.8051984619141,29.025652634277343Q296.75069846191406,29.107352634277344,296.6882984619141,29.183302634277343Q296.62599846191404,29.259252634277345,296.5564984619141,29.328722634277344L283.82859846191405,42.05661263427734Q283.75909846191405,42.12611263427735,283.68319846191406,42.18841263427734Q283.60719846191404,42.250812634277345,283.5254984619141,42.305412634277346Q283.44379846191407,42.35991263427734,283.35719846191404,42.40631263427734Q283.2704984619141,42.452612634277344,283.17979846191406,42.49021263427734Q283.08899846191406,42.527812634277346,282.99499846191407,42.55631263427735Q282.90089846191404,42.58481263427734,282.80459846191405,42.604012634277346Q282.70819846191404,42.623212634277344,282.6103984619141,42.63281263427734Q282.5125984619141,42.64241263427734,282.41439846191406,42.64241263427734Q282.31609846191407,42.64241263427734,282.21839846191403,42.63281263427734Q282.1205984619141,42.623212634277344,282.02419846191407,42.604012634277346Q281.92779846191405,42.58481263427734,281.83379846191406,42.55631263427735Q281.73979846191406,42.527812634277346,281.64899846191406,42.49021263427734Q281.55819846191406,42.452612634277344,281.4715984619141,42.40631263427734Q281.3848984619141,42.35991263427734,281.30319846191406,42.305412634277346Q281.2215984619141,42.250812634277345,281.14559846191406,42.18841263427734Q281.0696984619141,42.12611263427735,281.00019846191407,42.05661263427734Q280.93069846191406,41.98721263427734,280.86839846191407,41.91121263427735Q280.80599846191404,41.835312634277344,280.75139846191405,41.753612634277346Q280.6968984619141,41.67191263427735,280.6504984619141,41.58521263427734Q280.60419846191405,41.49861263427734,280.56659846191405,41.40781263427734Q280.52899846191406,41.31701263427735,280.50049846191405,41.223012634277346Q280.47199846191404,41.129012634277345,280.4527984619141,41.03261263427734Q280.4335984619141,40.93621263427734,280.42399846191404,40.83851263427734Q280.41439846191406,40.740712634277344,280.41439846191406,40.64241263427734Q280.41439846191406,40.54421263427734,280.42399846191404,40.446412634277344Q280.4335984619141,40.348612634277345,280.4527984619141,40.25221263427734Q280.47199846191404,40.15591263427734,280.50049846191405,40.061812634277345Q280.52899846191406,39.967812634277344,280.56659846191405,39.877112634277346Q280.60419846191405,39.786312634277344,280.6504984619141,39.699612634277344Q280.6968984619141,39.61301263427734,280.75139846191405,39.53131263427734Q280.80599846191404,39.449612634277344,280.86839846191407,39.37361263427734Q280.93069846191406,39.297712634277346,281.00019846191407,39.22821263427734L290.31389846191405,29.914512634277344L269.22779846191406,29.914512634277344Q269.1295447619141,29.914512634277344,269.03176446191407,29.904882634277342Q268.93398346191407,29.895252634277345,268.8376174619141,29.876082634277346Q268.7412524619141,29.856912634277343,268.64722946191404,29.828392634277343Q268.55320646191404,29.799872634277342,268.46243146191404,29.762272634277345Q268.3716574619141,29.724672634277344,268.28500546191407,29.678352634277346Q268.19834846191407,29.632042634277344,268.1166584619141,29.577452634277343Q268.0349584619141,29.522862634277345,267.95900846191404,29.460532634277342Q267.88305846191406,29.398202634277343,267.81358846191404,29.328722634277344Q267.74410846191404,29.259252634277345,267.68177846191406,29.183302634277343Q267.6194484619141,29.107352634277344,267.56485846191407,29.025652634277343Q267.51026846191405,28.943962634277344,267.46395846191405,28.857305634277346Q267.41763846191407,28.770653634277345,267.38003846191407,28.679879634277345Q267.34243846191407,28.589104634277344,267.31391846191406,28.495081634277344Q267.28539846191404,28.401058634277344,267.26622846191407,28.304693634277342Q267.24705846191404,28.208327634277342,267.2374284619141,28.110546634277345Q267.22779846191406,28.012766334277345,267.22779846191406,27.914512634277344Q267.22779846191406,27.816258934277343,267.2374284619141,27.718478634277343Q267.24705846191404,27.620697634277345,267.26622846191407,27.524331634277345Q267.28539846191404,27.427966634277343,267.31391846191406,27.333943634277343Q267.34243846191407,27.239920634277343,267.38003846191407,27.149145634277343Q267.41763846191407,27.058371634277343,267.46395846191405,26.971719634277342Q267.51026846191405,26.885062634277343,267.56485846191407,26.803372634277345Q267.6194484619141,26.721672634277343,267.68177846191406,26.645722634277345Q267.74410846191404,26.569772634277342,267.81358846191404,26.500302634277343Q267.88305846191406,26.430822634277344,267.95900846191404,26.368492634277345Q268.0349584619141,26.306162634277342,268.1166584619141,26.251572634277345Q268.19834846191407,26.196982634277344,268.28500546191407,26.150672634277342Q268.3716574619141,26.104352634277344,268.46243146191404,26.066752634277343Q268.55320646191404,26.029152634277345,268.64722946191404,26.000632634277345Q268.7412524619141,25.972112634277345,268.8376174619141,25.952942634277342Q268.93398346191407,25.933772634277343,269.03176446191407,25.924142634277345Q269.1295447619141,25.914512634277344,269.22779846191406,25.914512634277344L290.31389846191405,25.914512634277344Z" fill-rule="evenodd" fill="#FFFFFF" fill-opacity="1"/></g><g transform="matrix(0,1,-1,0,423.46539306640625,-114.99020385742188)"><path d="M290.31389846191405,152.2375946044922L281.00019846191407,142.92389460449218Q280.93069846191406,142.8543946044922,280.86839846191407,142.77849460449218Q280.80599846191404,142.7024946044922,280.75139846191405,142.62079460449218Q280.6968984619141,142.5390946044922,280.6504984619141,142.4524946044922Q280.60419846191405,142.36579460449218,280.56659846191405,142.27499460449218Q280.52899846191406,142.18429460449218,280.50049846191405,142.0902946044922Q280.47199846191404,141.9961946044922,280.4527984619141,141.89989460449218Q280.4335984619141,141.8034946044922,280.42399846191404,141.70569460449218Q280.41439846191406,141.60789460449217,280.41439846191406,141.50969460449218Q280.41439846191406,141.4113946044922,280.42399846191404,141.31359460449218Q280.4335984619141,141.21589460449218,280.4527984619141,141.1194946044922Q280.47199846191404,141.0230946044922,280.50049846191405,140.92909460449218Q280.52899846191406,140.83509460449218,280.56659846191405,140.74429460449218Q280.60419846191405,140.65349460449218,280.6504984619141,140.56689460449218Q280.6968984619141,140.4801946044922,280.75139846191405,140.39849460449219Q280.80599846191404,140.3167946044922,280.86839846191407,140.24089460449218Q280.93069846191406,140.1648946044922,281.00019846191407,140.0954946044922Q281.0696984619141,140.02599460449218,281.14559846191406,139.9636946044922Q281.2215984619141,139.9012946044922,281.30319846191406,139.8466946044922Q281.3848984619141,139.79219460449218,281.4715984619141,139.74579460449218Q281.55819846191406,139.6994946044922,281.64899846191406,139.66189460449218Q281.73979846191406,139.62429460449218,281.83379846191406,139.5957946044922Q281.92779846191405,139.5672946044922,282.02419846191407,139.54809460449218Q282.1205984619141,139.5288946044922,282.21839846191403,139.5192946044922Q282.31609846191407,139.50969460449218,282.41439846191406,139.50969460449218Q282.5125984619141,139.50969460449218,282.6103984619141,139.5192946044922Q282.70819846191404,139.5288946044922,282.80459846191405,139.54809460449218Q282.90089846191404,139.5672946044922,282.99499846191407,139.5957946044922Q283.08899846191406,139.62429460449218,283.17979846191406,139.66189460449218Q283.2704984619141,139.6994946044922,283.35719846191404,139.74579460449218Q283.44379846191407,139.79219460449218,283.5254984619141,139.8466946044922Q283.60719846191404,139.9012946044922,283.68319846191406,139.9636946044922Q283.75909846191405,140.02599460449218,283.82859846191405,140.0954946044922L296.5564984619141,152.8233846044922Q296.62599846191404,152.8928546044922,296.6882984619141,152.9688046044922Q296.75069846191406,153.0447546044922,296.8051984619141,153.12645460449218Q296.85979846191407,153.2081446044922,296.9061984619141,153.2948006044922Q296.95249846191405,153.38145260449218,296.99009846191404,153.4722276044922Q297.02769846191404,153.5630026044922,297.05619846191405,153.6570246044922Q297.08469846191406,153.7510476044922,297.10389846191407,153.84741360449217Q297.1230984619141,153.9437796044922,297.13269846191406,154.0415606044922Q297.14229846191404,154.13934080449218,297.14229846191404,154.23759446483018Q297.14229846191404,154.3358481044922,297.13269846191406,154.43362860449218Q297.12299846191405,154.53140960449218,297.10389846191407,154.62777460449217Q297.08469846191406,154.7241406044922,297.05619846191405,154.81816360449218Q297.02769846191404,154.91218660449218,296.99009846191404,155.00296160449219Q296.95249846191405,155.0937356044922,296.9061984619141,155.18038760449218Q296.85979846191407,155.26704460449218,296.8051984619141,155.3487346044922Q296.75069846191406,155.43043460449218,296.6882984619141,155.50638460449218Q296.62599846191404,155.5823346044922,296.5564984619141,155.65180460449218L283.82859846191405,168.3796946044922Q283.75909846191405,168.4491946044922,283.68319846191406,168.51149460449219Q283.60719846191404,168.57389460449218,283.5254984619141,168.62849460449218Q283.44379846191407,168.6829946044922,283.35719846191404,168.7293946044922Q283.2704984619141,168.77569460449217,283.17979846191406,168.8132946044922Q283.08899846191406,168.8508946044922,282.99499846191407,168.87939460449218Q282.90089846191404,168.90789460449218,282.80459846191405,168.9270946044922Q282.70819846191404,168.94629460449218,282.6103984619141,168.9558946044922Q282.5125984619141,168.9654946044922,282.41439846191406,168.9654946044922Q282.31609846191407,168.9654946044922,282.21839846191403,168.9558946044922Q282.1205984619141,168.94629460449218,282.02419846191407,168.9270946044922Q281.92779846191405,168.90789460449218,281.83379846191406,168.87939460449218Q281.73979846191406,168.8508946044922,281.64899846191406,168.8132946044922Q281.55819846191406,168.77569460449217,281.4715984619141,168.7293946044922Q281.3848984619141,168.6829946044922,281.30319846191406,168.62849460449218Q281.2215984619141,168.57389460449218,281.14559846191406,168.51149460449219Q281.0696984619141,168.4491946044922,281.00019846191407,168.3796946044922Q280.93069846191406,168.31029460449219,280.86839846191407,168.2342946044922Q280.80599846191404,168.15839460449217,280.75139846191405,168.0766946044922Q280.6968984619141,167.99499460449218,280.6504984619141,167.9082946044922Q280.60419846191405,167.8216946044922,280.56659846191405,167.7308946044922Q280.52899846191406,167.6400946044922,280.50049846191405,167.5460946044922Q280.47199846191404,167.45209460449217,280.4527984619141,167.3556946044922Q280.4335984619141,167.2592946044922,280.42399846191404,167.1615946044922Q280.41439846191406,167.0637946044922,280.41439846191406,166.9654946044922Q280.41439846191406,166.8672946044922,280.42399846191404,166.7694946044922Q280.4335984619141,166.6716946044922,280.4527984619141,166.5752946044922Q280.47199846191404,166.4789946044922,280.50049846191405,166.3848946044922Q280.52899846191406,166.2908946044922,280.56659846191405,166.2001946044922Q280.60419846191405,166.1093946044922,280.6504984619141,166.0226946044922Q280.6968984619141,165.93609460449218,280.75139846191405,165.8543946044922Q280.80599846191404,165.7726946044922,280.86839846191407,165.6966946044922Q280.93069846191406,165.62079460449218,281.00019846191407,165.5512946044922L290.31389846191405,156.2375946044922L269.22779846191406,156.2375946044922Q269.1295447619141,156.2375946044922,269.03176446191407,156.2279646044922Q268.93398346191407,156.21833460449218,268.8376174619141,156.19916460449218Q268.7412524619141,156.17999460449218,268.64722946191404,156.1514746044922Q268.55320646191404,156.12295460449218,268.46243146191404,156.08535460449218Q268.3716574619141,156.04775460449218,268.28500546191407,156.00143460449218Q268.19834846191407,155.9551246044922,268.1166584619141,155.90053460449218Q268.0349584619141,155.8459446044922,267.95900846191404,155.7836146044922Q267.88305846191406,155.72128460449218,267.81358846191404,155.65180460449218Q267.74410846191404,155.5823346044922,267.68177846191406,155.50638460449218Q267.6194484619141,155.43043460449218,267.56485846191407,155.3487346044922Q267.51026846191405,155.26704460449218,267.46395846191405,155.18038760449218Q267.41763846191407,155.0937356044922,267.38003846191407,155.00296160449219Q267.34243846191407,154.91218660449218,267.31391846191406,154.81816360449218Q267.28539846191404,154.7241406044922,267.26622846191407,154.6277756044922Q267.24705846191404,154.53140960449218,267.2374284619141,154.43362860449218Q267.22779846191406,154.33584830449217,267.22779846191406,154.2375946044922Q267.22779846191406,154.1393409044922,267.2374284619141,154.0415606044922Q267.24705846191404,153.9437796044922,267.26622846191407,153.84741360449217Q267.28539846191404,153.75104860449218,267.31391846191406,153.6570256044922Q267.34243846191407,153.5630026044922,267.38003846191407,153.4722276044922Q267.41763846191407,153.38145360449218,267.46395846191405,153.2948016044922Q267.51026846191405,153.2081446044922,267.56485846191407,153.12645460449218Q267.6194484619141,153.0447546044922,267.68177846191406,152.9688046044922Q267.74410846191404,152.8928546044922,267.81358846191404,152.8233846044922Q267.88305846191406,152.7539046044922,267.95900846191404,152.6915746044922Q268.0349584619141,152.6292446044922,268.1166584619141,152.5746546044922Q268.19834846191407,152.52006460449218,268.28500546191407,152.4737546044922Q268.3716574619141,152.4274346044922,268.46243146191404,152.3898346044922Q268.55320646191404,152.3522346044922,268.64722946191404,152.32371460449218Q268.7412524619141,152.2951946044922,268.8376174619141,152.2760246044922Q268.93398346191407,152.2568546044922,269.03176446191407,152.24722460449217Q269.1295447619141,152.2375946044922,269.22779846191406,152.2375946044922L290.31389846191405,152.2375946044922Z" fill-rule="evenodd" fill="#FFFFFF" fill-opacity="1"/></g><g transform="matrix(1,0,0,-1,0,182.1507110595703)"><path d="M353.47483291015624,89.07535552978516L344.16113291015625,79.76165552978516Q344.09163291015625,79.69215552978515,344.02933291015626,79.61625552978515Q343.96693291015623,79.54025552978516,343.91233291015624,79.45855552978516Q343.8578329101563,79.37685552978516,343.81143291015627,79.29025552978516Q343.76513291015624,79.20355552978515,343.72753291015624,79.11275552978516Q343.68993291015624,79.02205552978515,343.66143291015624,78.92805552978515Q343.6329329101562,78.83395552978516,343.6137329101563,78.73765552978516Q343.59453291015626,78.64125552978516,343.5849329101562,78.54345552978515Q343.57533291015625,78.44565552978516,343.57533291015625,78.34745552978515Q343.57533291015625,78.24915552978516,343.5849329101562,78.15135552978515Q343.59453291015626,78.05365552978516,343.6137329101563,77.95725552978516Q343.6329329101562,77.86085552978516,343.66143291015624,77.76685552978516Q343.68993291015624,77.67285552978515,343.72753291015624,77.58205552978515Q343.76513291015624,77.49125552978515,343.81143291015627,77.40465552978516Q343.8578329101563,77.31795552978515,343.91233291015624,77.23625552978515Q343.96693291015623,77.15455552978516,344.02933291015626,77.07865552978515Q344.09163291015625,77.00265552978516,344.16113291015625,76.93325552978516Q344.23063291015626,76.86375552978515,344.30653291015625,76.80145552978516Q344.38253291015627,76.73905552978516,344.46413291015625,76.68445552978515Q344.54583291015626,76.62995552978515,344.63253291015627,76.58355552978516Q344.71913291015625,76.53725552978516,344.80993291015625,76.49965552978516Q344.90073291015625,76.46205552978516,344.99473291015624,76.43355552978515Q345.08873291015624,76.40505552978516,345.18513291015626,76.38585552978516Q345.2815329101563,76.36665552978516,345.3793329101562,76.35705552978516Q345.47703291015625,76.34745552978515,345.57533291015625,76.34745552978515Q345.67353291015627,76.34745552978515,345.7713329101563,76.35705552978516Q345.8691329101562,76.36665552978516,345.96553291015624,76.38585552978516Q346.0618329101562,76.40505552978516,346.15593291015625,76.43355552978515Q346.24993291015625,76.46205552978516,346.34073291015625,76.49965552978516Q346.4314329101563,76.53725552978516,346.5181329101562,76.58355552978516Q346.60473291015626,76.62995552978515,346.68643291015627,76.68445552978515Q346.7681329101562,76.73905552978516,346.84413291015625,76.80145552978516Q346.92003291015624,76.86375552978515,346.98953291015624,76.93325552978516L359.7174329101563,89.66114552978516Q359.7869329101562,89.73061552978515,359.8492329101563,89.80656552978516Q359.91163291015624,89.88251552978515,359.96613291015626,89.96421552978515Q360.02073291015626,90.04590552978516,360.06713291015626,90.13256152978515Q360.11343291015623,90.21921352978515,360.15103291015623,90.30998852978516Q360.18863291015623,90.40076352978515,360.21713291015624,90.49478552978516Q360.24563291015625,90.58880852978515,360.26483291015626,90.68517452978516Q360.28403291015627,90.78154052978516,360.29363291015625,90.87932152978516Q360.3032329101562,90.97710172978516,360.3032329101562,91.07535539012315Q360.3032329101562,91.17360902978515,360.29363291015625,91.27138952978515Q360.28393291015624,91.36917052978515,360.26483291015626,91.46553552978516Q360.24563291015625,91.56190152978516,360.21713291015624,91.65592452978515Q360.18863291015623,91.74994752978516,360.15103291015623,91.84072252978515Q360.11343291015623,91.93149652978515,360.06713291015626,92.01814852978515Q360.02073291015626,92.10480552978515,359.96613291015626,92.18649552978516Q359.91163291015624,92.26819552978516,359.8492329101563,92.34414552978515Q359.7869329101562,92.42009552978516,359.7174329101563,92.48956552978515L346.98953291015624,105.21745552978516Q346.92003291015624,105.28695552978516,346.84413291015625,105.34925552978515Q346.7681329101562,105.41165552978515,346.68643291015627,105.46625552978516Q346.60473291015626,105.52075552978516,346.5181329101562,105.56715552978515Q346.4314329101563,105.61345552978516,346.34073291015625,105.65105552978515Q346.24993291015625,105.68865552978515,346.15593291015625,105.71715552978516Q346.0618329101562,105.74565552978515,345.96553291015624,105.76485552978515Q345.8691329101562,105.78405552978515,345.7713329101563,105.79365552978516Q345.67353291015627,105.80325552978516,345.57533291015625,105.80325552978516Q345.47703291015625,105.80325552978516,345.3793329101562,105.79365552978516Q345.2815329101563,105.78405552978515,345.18513291015626,105.76485552978515Q345.08873291015624,105.74565552978515,344.99473291015624,105.71715552978516Q344.90073291015625,105.68865552978515,344.80993291015625,105.65105552978515Q344.71913291015625,105.61345552978516,344.63253291015627,105.56715552978515Q344.54583291015626,105.52075552978516,344.46413291015625,105.46625552978516Q344.38253291015627,105.41165552978515,344.30653291015625,105.34925552978515Q344.23063291015626,105.28695552978516,344.16113291015625,105.21745552978516Q344.09163291015625,105.14805552978515,344.02933291015626,105.07205552978516Q343.96693291015623,104.99615552978516,343.91233291015624,104.91445552978516Q343.8578329101563,104.83275552978516,343.81143291015627,104.74605552978515Q343.76513291015624,104.65945552978516,343.72753291015624,104.56865552978516Q343.68993291015624,104.47785552978516,343.66143291015624,104.38385552978515Q343.6329329101562,104.28985552978516,343.6137329101563,104.19345552978515Q343.59453291015626,104.09705552978515,343.5849329101562,103.99935552978516Q343.57533291015625,103.90155552978516,343.57533291015625,103.80325552978516Q343.57533291015625,103.70505552978516,343.5849329101562,103.60725552978516Q343.59453291015626,103.50945552978516,343.6137329101563,103.41305552978515Q343.6329329101562,103.31675552978515,343.66143291015624,103.22265552978516Q343.68993291015624,103.12865552978516,343.72753291015624,103.03795552978515Q343.76513291015624,102.94715552978516,343.81143291015627,102.86045552978516Q343.8578329101563,102.77385552978515,343.91233291015624,102.69215552978515Q343.96693291015623,102.61045552978516,344.02933291015626,102.53445552978516Q344.09163291015625,102.45855552978516,344.16113291015625,102.38905552978515L353.47483291015624,93.07535552978516L332.38873291015625,93.07535552978516Q332.29047921015626,93.07535552978516,332.19269891015625,93.06572552978515Q332.09491791015625,93.05609552978515,331.99855191015627,93.03692552978515Q331.9021869101563,93.01775552978516,331.8081639101562,92.98923552978516Q331.71414091015623,92.96071552978516,331.6233659101562,92.92311552978515Q331.53259191015627,92.88551552978515,331.44593991015626,92.83919552978516Q331.35928291015625,92.79288552978515,331.2775929101563,92.73829552978516Q331.19589291015626,92.68370552978516,331.1199429101562,92.62137552978515Q331.04399291015625,92.55904552978515,330.9745229101562,92.48956552978515Q330.9050429101562,92.42009552978516,330.84271291015625,92.34414552978515Q330.7803829101563,92.26819552978516,330.72579291015626,92.18649552978516Q330.67120291015624,92.10480552978515,330.62489291015623,92.01814852978515Q330.57857291015625,91.93149652978515,330.54097291015626,91.84072252978515Q330.50337291015626,91.74994752978516,330.47485291015624,91.65592452978515Q330.44633291015623,91.56190152978516,330.42716291015626,91.46553652978515Q330.4079929101562,91.36917052978515,330.39836291015627,91.27138952978515Q330.38873291015625,91.17360922978516,330.38873291015625,91.07535552978516Q330.38873291015625,90.97710182978516,330.39836291015627,90.87932152978516Q330.4079929101562,90.78154052978516,330.42716291015626,90.68517452978516Q330.44633291015623,90.58880952978515,330.47485291015624,90.49478652978516Q330.50337291015626,90.40076352978515,330.54097291015626,90.30998852978516Q330.57857291015625,90.21921452978516,330.62489291015623,90.13256252978516Q330.67120291015624,90.04590552978516,330.72579291015626,89.96421552978515Q330.7803829101563,89.88251552978515,330.84271291015625,89.80656552978516Q330.9050429101562,89.73061552978515,330.9745229101562,89.66114552978516Q331.04399291015625,89.59166552978516,331.1199429101562,89.52933552978516Q331.19589291015626,89.46700552978515,331.2775929101563,89.41241552978515Q331.35928291015625,89.35782552978516,331.44593991015626,89.31151552978515Q331.53259191015627,89.26519552978516,331.6233659101562,89.22759552978516Q331.71414091015623,89.18999552978515,331.8081639101562,89.16147552978515Q331.9021869101563,89.13295552978515,331.99855191015627,89.11378552978516Q332.09491791015625,89.09461552978516,332.19269891015625,89.08498552978516Q332.29047921015626,89.07535552978516,332.38873291015625,89.07535552978516L353.47483291015624,89.07535552978516Z" fill-rule="evenodd" fill="#FFFFFF" fill-opacity="1"/></g><g transform="matrix(-1,0,0,-1,412.1337127685547,182.1507110595703)"><path d="M227.15295638427733,89.07535552978516L217.83925638427735,79.76165552978516Q217.76975638427734,79.69215552978515,217.70745638427735,79.61625552978515Q217.64505638427735,79.54025552978516,217.59045638427733,79.45855552978516Q217.53595638427734,79.37685552978516,217.48955638427734,79.29025552978516Q217.44325638427733,79.20355552978515,217.40565638427734,79.11275552978516Q217.36805638427734,79.02205552978515,217.33955638427733,78.92805552978515Q217.31105638427735,78.83395552978516,217.29185638427734,78.73765552978516Q217.27265638427735,78.64125552978516,217.26305638427735,78.54345552978515Q217.25345638427734,78.44565552978516,217.25345638427734,78.34745552978515Q217.25345638427734,78.24915552978516,217.26305638427735,78.15135552978515Q217.27265638427735,78.05365552978516,217.29185638427734,77.95725552978516Q217.31105638427735,77.86085552978516,217.33955638427733,77.76685552978516Q217.36805638427734,77.67285552978515,217.40565638427734,77.58205552978515Q217.44325638427733,77.49125552978515,217.48955638427734,77.40465552978516Q217.53595638427734,77.31795552978515,217.59045638427733,77.23625552978515Q217.64505638427735,77.15455552978516,217.70745638427735,77.07865552978515Q217.76975638427734,77.00265552978516,217.83925638427735,76.93325552978516Q217.90875638427735,76.86375552978515,217.98465638427734,76.80145552978516Q218.06065638427734,76.73905552978516,218.14225638427735,76.68445552978515Q218.22395638427736,76.62995552978515,218.31065638427734,76.58355552978516Q218.39725638427734,76.53725552978516,218.48805638427734,76.49965552978516Q218.57885638427734,76.46205552978516,218.67285638427734,76.43355552978515Q218.76685638427733,76.40505552978516,218.86325638427735,76.38585552978516Q218.95965638427734,76.36665552978516,219.05745638427734,76.35705552978516Q219.15515638427735,76.34745552978515,219.25345638427734,76.34745552978515Q219.35165638427733,76.34745552978515,219.44945638427734,76.35705552978516Q219.54725638427735,76.36665552978516,219.64365638427734,76.38585552978516Q219.73995638427735,76.40505552978516,219.83405638427735,76.43355552978515Q219.92805638427734,76.46205552978516,220.01885638427734,76.49965552978516Q220.10955638427734,76.53725552978516,220.19625638427735,76.58355552978516Q220.28285638427735,76.62995552978515,220.36455638427734,76.68445552978515Q220.44625638427735,76.73905552978516,220.52225638427734,76.80145552978516Q220.59815638427733,76.86375552978515,220.66765638427734,76.93325552978516L233.39555638427734,89.66114552978516Q233.46505638427735,89.73061552978515,233.52735638427734,89.80656552978516Q233.58975638427734,89.88251552978515,233.64425638427736,89.96421552978515Q233.69885638427735,90.04590552978516,233.74525638427735,90.13256152978515Q233.79155638427733,90.21921352978515,233.82915638427735,90.30998852978516Q233.86675638427735,90.40076352978515,233.89525638427733,90.49478552978516Q233.92375638427734,90.58880852978515,233.94295638427735,90.68517452978516Q233.96215638427734,90.78154052978516,233.97175638427734,90.87932152978516Q233.98135638427735,90.97710172978516,233.98135638427735,91.07535539012315Q233.98135638427735,91.17360902978515,233.97175638427734,91.27138952978515Q233.96205638427733,91.36917052978515,233.94295638427735,91.46553552978516Q233.92375638427734,91.56190152978516,233.89525638427733,91.65592452978515Q233.86675638427735,91.74994752978516,233.82915638427735,91.84072252978515Q233.79155638427733,91.93149652978515,233.74525638427735,92.01814852978515Q233.69885638427735,92.10480552978515,233.64425638427736,92.18649552978516Q233.58975638427734,92.26819552978516,233.52735638427734,92.34414552978515Q233.46505638427735,92.42009552978516,233.39555638427734,92.48956552978515L220.66765638427734,105.21745552978516Q220.59815638427733,105.28695552978516,220.52225638427734,105.34925552978515Q220.44625638427735,105.41165552978515,220.36455638427734,105.46625552978516Q220.28285638427735,105.52075552978516,220.19625638427735,105.56715552978515Q220.10955638427734,105.61345552978516,220.01885638427734,105.65105552978515Q219.92805638427734,105.68865552978515,219.83405638427735,105.71715552978516Q219.73995638427735,105.74565552978515,219.64365638427734,105.76485552978515Q219.54725638427735,105.78405552978515,219.44945638427734,105.79365552978516Q219.35165638427733,105.80325552978516,219.25345638427734,105.80325552978516Q219.15515638427735,105.80325552978516,219.05745638427734,105.79365552978516Q218.95965638427734,105.78405552978515,218.86325638427735,105.76485552978515Q218.76685638427733,105.74565552978515,218.67285638427734,105.71715552978516Q218.57885638427734,105.68865552978515,218.48805638427734,105.65105552978515Q218.39725638427734,105.61345552978516,218.31065638427734,105.56715552978515Q218.22395638427736,105.52075552978516,218.14225638427735,105.46625552978516Q218.06065638427734,105.41165552978515,217.98465638427734,105.34925552978515Q217.90875638427735,105.28695552978516,217.83925638427735,105.21745552978516Q217.76975638427734,105.14805552978515,217.70745638427735,105.07205552978516Q217.64505638427735,104.99615552978516,217.59045638427733,104.91445552978516Q217.53595638427734,104.83275552978516,217.48955638427734,104.74605552978515Q217.44325638427733,104.65945552978516,217.40565638427734,104.56865552978516Q217.36805638427734,104.47785552978516,217.33955638427733,104.38385552978515Q217.31105638427735,104.28985552978516,217.29185638427734,104.19345552978515Q217.27265638427735,104.09705552978515,217.26305638427735,103.99935552978516Q217.25345638427734,103.90155552978516,217.25345638427734,103.80325552978516Q217.25345638427734,103.70505552978516,217.26305638427735,103.60725552978516Q217.27265638427735,103.50945552978516,217.29185638427734,103.41305552978515Q217.31105638427735,103.31675552978515,217.33955638427733,103.22265552978516Q217.36805638427734,103.12865552978516,217.40565638427734,103.03795552978515Q217.44325638427733,102.94715552978516,217.48955638427734,102.86045552978516Q217.53595638427734,102.77385552978515,217.59045638427733,102.69215552978515Q217.64505638427735,102.61045552978516,217.70745638427735,102.53445552978516Q217.76975638427734,102.45855552978516,217.83925638427735,102.38905552978515L227.15295638427733,93.07535552978516L206.06685638427734,93.07535552978516Q205.96860268427736,93.07535552978516,205.87082238427735,93.06572552978515Q205.77304138427735,93.05609552978515,205.67667538427733,93.03692552978515Q205.58031038427734,93.01775552978516,205.48628738427735,92.98923552978516Q205.39226438427735,92.96071552978516,205.30148938427735,92.92311552978515Q205.21071538427734,92.88551552978515,205.12406338427735,92.83919552978516Q205.03740638427735,92.79288552978515,204.95571638427734,92.73829552978516Q204.87401638427735,92.68370552978516,204.79806638427735,92.62137552978515Q204.72211638427734,92.55904552978515,204.65264638427735,92.48956552978515Q204.58316638427735,92.42009552978516,204.52083638427735,92.34414552978515Q204.45850638427734,92.26819552978516,204.40391638427735,92.18649552978516Q204.34932638427733,92.10480552978515,204.30301638427736,92.01814852978515Q204.25669638427735,91.93149652978515,204.21909638427735,91.84072252978515Q204.18149638427735,91.74994752978516,204.15297638427734,91.65592452978515Q204.12445638427735,91.56190152978516,204.10528638427735,91.46553652978515Q204.08611638427735,91.36917052978515,204.07648638427733,91.27138952978515Q204.06685638427734,91.17360922978516,204.06685638427734,91.07535552978516Q204.06685638427734,90.97710182978516,204.07648638427733,90.87932152978516Q204.08611638427735,90.78154052978516,204.10528638427735,90.68517452978516Q204.12445638427735,90.58880952978515,204.15297638427734,90.49478652978516Q204.18149638427735,90.40076352978515,204.21909638427735,90.30998852978516Q204.25669638427735,90.21921452978516,204.30301638427736,90.13256252978516Q204.34932638427733,90.04590552978516,204.40391638427735,89.96421552978515Q204.45850638427734,89.88251552978515,204.52083638427735,89.80656552978516Q204.58316638427735,89.73061552978515,204.65264638427735,89.66114552978516Q204.72211638427734,89.59166552978516,204.79806638427735,89.52933552978516Q204.87401638427735,89.46700552978515,204.95571638427734,89.41241552978515Q205.03740638427735,89.35782552978516,205.12406338427735,89.31151552978515Q205.21071538427734,89.26519552978516,205.30148938427735,89.22759552978516Q205.39226438427735,89.18999552978515,205.48628738427735,89.16147552978515Q205.58031038427734,89.13295552978515,205.67667538427733,89.11378552978516Q205.77304138427735,89.09461552978516,205.87082238427735,89.08498552978516Q205.96860268427736,89.07535552978516,206.06685638427734,89.07535552978516L227.15295638427733,89.07535552978516Z" fill-rule="evenodd" fill="#FFFFFF" fill-opacity="1"/></g></g><script xmlns=""/></svg>