<svg xmlns="http://www.w3.org/2000/svg" xmlns:xlink="http://www.w3.org/1999/xlink" fill="none" version="1.1" width="36" height="36" viewBox="0 0 36 36"><defs><mask id="master_svg0_18317_503911" style="mask-type:alpha" maskUnits="objectBoundingBox"><g/></mask></defs><g><g mask="url(#master_svg0_18317_503911)"/><g><g><path d="M31.421592598266603,18.783874454650878Q31.421592598266603,18.86398445465088,31.4137425982666,18.943704454650877Q31.4058825982666,19.02343445465088,31.390262598266602,19.101994454650878Q31.3746325982666,19.180564454650877,31.3513725982666,19.257224454650878Q31.328122598266603,19.333884454650878,31.297462598266602,19.40790445465088Q31.2668125982666,19.48191445465088,31.229042598266602,19.552564454650877Q31.191282598266604,19.623214454650878,31.1467725982666,19.68981445465088Q31.1022725982666,19.75642445465088,31.0514525982666,19.81835445465088Q31.000622598266602,19.88027445465088,30.9439825982666,19.936924454650878Q30.887332598266603,19.99357445465088,30.825412598266603,20.044394454650877Q30.763482598266602,20.09521445465088,30.6968725982666,20.13971445465088Q30.6302725982666,20.18422445465088,30.5596225982666,20.22198445465088Q30.488972598266603,20.259754454650878,30.4149625982666,20.29040445465088Q30.3409425982666,20.32106445465088,30.2642825982666,20.344314454650878Q30.1876225982666,20.367574454650878,30.1090525982666,20.38320445465088Q30.0304925982666,20.398824454650878,29.9507625982666,20.40668445465088Q29.8710425982666,20.41453445465088,29.7909325982666,20.41453445465088Q29.710822598266603,20.41453445465088,29.6311025982666,20.40668445465088Q29.551372598266603,20.398824454650878,29.4728025982666,20.38320445465088Q29.3942325982666,20.367574454650878,29.3175725982666,20.344314454650878Q29.2409125982666,20.32106445465088,29.166902598266603,20.29040445465088Q29.0928945982666,20.259754454650878,29.022244598266603,20.22198445465088Q28.951594598266603,20.18422445465088,28.884985598266603,20.13971445465088Q28.8183775982666,20.09521445465088,28.756452598266602,20.044394454650877Q28.694527598266603,19.99357445465088,28.637881598266603,19.936924454650878Q28.581235598266602,19.88027445465088,28.5304155982666,19.81835445465088Q28.4795945982666,19.75642445465088,28.435088598266603,19.68981445465088Q28.3905815982666,19.623214454650878,28.3528185982666,19.552564454650877Q28.3150555982666,19.48191445465088,28.284399598266603,19.40790445465088Q28.253742698266603,19.333884454650878,28.230488198266602,19.257224454650878Q28.2072337982666,19.180564454650877,28.1916052982666,19.101994454650878Q28.175976698266602,19.02343445465088,28.1681246682666,18.943704454650877Q28.1602725982666,18.86398445465088,28.1602725982666,18.783874454650878Q28.1602725982666,18.70376445465088,28.1681246682666,18.62404445465088Q28.175976698266602,18.54431445465088,28.1916052982666,18.465744454650878Q28.2072337982666,18.38717445465088,28.230488198266602,18.31051445465088Q28.253742698266603,18.233854454650878,28.284399598266603,18.15984445465088Q28.3150555982666,18.085836454650877,28.3528185982666,18.01518645465088Q28.3905815982666,17.94453645465088,28.435088598266603,17.877928454650878Q28.4795945982666,17.811319454650878,28.5304155982666,17.74939445465088Q28.581235598266602,17.68746945465088,28.637881598266603,17.63082345465088Q28.694527598266603,17.57417745465088,28.756452598266602,17.523357454650878Q28.8183775982666,17.47253645465088,28.884985598266603,17.42803045465088Q28.951594598266603,17.383523454650877,29.022244598266603,17.34576045465088Q29.0928945982666,17.307997454650877,29.166902598266603,17.27734145465088Q29.2409125982666,17.24668455465088,29.3175725982666,17.22343005465088Q29.3942325982666,17.200175654650877,29.4728025982666,17.18454715465088Q29.551372598266603,17.16891855465088,29.6311025982666,17.161066524650877Q29.710822598266603,17.15321445465088,29.7909325982666,17.15321445465088Q29.8710425982666,17.15321445465088,29.9507625982666,17.161066524650877Q30.0304925982666,17.16891855465088,30.1090525982666,17.18454715465088Q30.1876225982666,17.200175654650877,30.2642825982666,17.22343005465088Q30.3409425982666,17.24668455465088,30.4149625982666,17.27734145465088Q30.488972598266603,17.307997454650877,30.5596225982666,17.34576045465088Q30.6302725982666,17.383523454650877,30.6968725982666,17.42803045465088Q30.763482598266602,17.47253645465088,30.825412598266603,17.523357454650878Q30.887332598266603,17.57417745465088,30.9439825982666,17.63082345465088Q31.000622598266602,17.68746945465088,31.0514525982666,17.74939445465088Q31.1022725982666,17.811319454650878,31.1467725982666,17.877928454650878Q31.191282598266604,17.94453645465088,31.229042598266602,18.01518645465088Q31.2668125982666,18.085836454650877,31.297462598266602,18.15984445465088Q31.328122598266603,18.233854454650878,31.3513725982666,18.31051445465088Q31.3746325982666,18.38717445465088,31.390262598266602,18.465744454650878Q31.4058825982666,18.54431445465088,31.4137425982666,18.62404445465088Q31.421592598266603,18.70376445465088,31.421592598266603,18.783874454650878ZM29.421592598266603,18.783874454650878Q29.421592598266603,18.82025445465088,29.4286925982666,18.85592445465088Q29.435782598266602,18.891604454650878,29.4497025982666,18.925214454650877Q29.463622598266603,18.95882445465088,29.483832598266602,18.98906445465088Q29.5040425982666,19.01931445465088,29.5297725982666,19.045034454650878Q29.5554925982666,19.070754454650878,29.585732598266603,19.09096445465088Q29.6159825982666,19.11117445465088,29.6495925982666,19.125104454650877Q29.6832025982666,19.13902445465088,29.7188725982666,19.146114454650878Q29.754552598266603,19.15321445465088,29.7909325982666,19.15321445465088Q29.8273125982666,19.15321445465088,29.8629825982666,19.146114454650878Q29.8986625982666,19.13902445465088,29.9322725982666,19.125104454650877Q29.965882598266603,19.11117445465088,29.996122598266602,19.09096445465088Q30.0263725982666,19.070754454650878,30.0520925982666,19.045034454650878Q30.0778125982666,19.01931445465088,30.098022598266603,18.98906445465088Q30.1182325982666,18.95882445465088,30.1321625982666,18.925214454650877Q30.146082598266602,18.891604454650878,30.1531725982666,18.85592445465088Q30.1602725982666,18.82025445465088,30.1602725982666,18.783874454650878Q30.1602725982666,18.74749445465088,30.1531725982666,18.711814454650877Q30.146082598266602,18.676144454650878,30.1321625982666,18.642534454650878Q30.1182325982666,18.60892445465088,30.098022598266603,18.57867445465088Q30.0778125982666,18.548434454650877,30.0520925982666,18.522714454650878Q30.0263725982666,18.496984454650878,29.996122598266602,18.47677445465088Q29.965882598266603,18.45656445465088,29.9322725982666,18.44264445465088Q29.8986625982666,18.42872445465088,29.8629825982666,18.421634454650878Q29.8273125982666,18.41453445465088,29.7909325982666,18.41453445465088Q29.754552598266603,18.41453445465088,29.7188725982666,18.421634454650878Q29.6832025982666,18.42872445465088,29.6495925982666,18.44264445465088Q29.6159825982666,18.45656445465088,29.585732598266603,18.47677445465088Q29.5554925982666,18.496984454650878,29.5297725982666,18.522714454650878Q29.5040425982666,18.548434454650877,29.483832598266602,18.57867445465088Q29.463622598266603,18.60892445465088,29.4497025982666,18.642534454650878Q29.435782598266602,18.676144454650878,29.4286825982666,18.711814454650877Q29.421592598266603,18.74749445465088,29.421592598266603,18.783874454650878Z" fill="#FFFFFF" fill-opacity="1"/></g><g><path d="M26.529483681030275,13.076565208587647Q26.529483681030275,13.156675208587647,26.521633681030274,13.236395208587647Q26.513773681030273,13.316125208587646,26.498153681030274,13.394685208587646Q26.482523681030273,13.473255208587647,26.459263681030272,13.549915208587647Q26.436013681030275,13.626575208587646,26.405353681030274,13.700595208587647Q26.374703681030272,13.774605208587646,26.336933681030274,13.845255208587647Q26.299173681030275,13.915905208587647,26.254663681030273,13.982505208587646Q26.210163681030274,14.049115208587647,26.159343681030272,14.111045208587647Q26.108513681030274,14.172965208587646,26.051873681030273,14.229615208587646Q25.995223681030275,14.286265208587647,25.933303681030274,14.337085208587647Q25.871373681030274,14.387905208587647,25.804763681030273,14.432405208587646Q25.738163681030272,14.476915208587647,25.66751368103027,14.514675208587647Q25.596863681030275,14.552445208587645,25.522853681030274,14.583095208587647Q25.448833681030273,14.613755208587646,25.372173681030272,14.637005208587647Q25.295513681030272,14.660265208587646,25.216943681030273,14.675895208587647Q25.138383681030273,14.691515208587646,25.058653681030272,14.699375208587647Q24.978933681030274,14.707225208587646,24.898823681030272,14.707225208587646Q24.818713681030275,14.707225208587646,24.738993681030273,14.699375208587647Q24.659263681030275,14.691515208587646,24.580693681030272,14.675895208587647Q24.502123681030273,14.660265208587646,24.425463681030273,14.637005208587647Q24.348803681030272,14.613755208587646,24.274793681030275,14.583095208587647Q24.200785681030272,14.552445208587645,24.130135681030275,14.514675208587647Q24.059485681030274,14.476915208587647,23.992876681030275,14.432405208587646Q23.926268681030272,14.387905208587647,23.864343681030274,14.337085208587647Q23.802418681030275,14.286265208587647,23.745772681030274,14.229615208587646Q23.689126681030274,14.172965208587646,23.638306681030272,14.111045208587647Q23.587485681030273,14.049115208587647,23.542979681030275,13.982505208587646Q23.49847268103027,13.915905208587647,23.460709681030274,13.845255208587647Q23.42294668103027,13.774605208587646,23.392290681030275,13.700595208587647Q23.361633781030275,13.626575208587646,23.338379281030274,13.549915208587647Q23.315124881030272,13.473255208587647,23.299496381030274,13.394685208587646Q23.283867781030274,13.316125208587646,23.276015751030272,13.236395208587647Q23.268163681030273,13.156675208587647,23.268163681030273,13.076565208587647Q23.268163681030273,12.996455208587646,23.276015751030272,12.916735208587646Q23.283867781030274,12.837005208587646,23.299496381030274,12.758435208587647Q23.315124881030272,12.679865208587646,23.338379281030274,12.603205208587646Q23.361633781030275,12.526545208587647,23.392290681030275,12.452535208587646Q23.42294668103027,12.378527208587647,23.460709681030274,12.307877208587646Q23.49847268103027,12.237227208587646,23.542979681030275,12.170619208587647Q23.587485681030273,12.104010208587647,23.638306681030272,12.042085208587647Q23.689126681030274,11.980160208587646,23.745772681030274,11.923514208587646Q23.802418681030275,11.866868208587647,23.864343681030274,11.816048208587647Q23.926268681030272,11.765227208587646,23.992876681030275,11.720721208587646Q24.059485681030274,11.676214208587647,24.130135681030275,11.638451208587647Q24.200785681030272,11.600688208587647,24.274793681030275,11.570032208587646Q24.348803681030272,11.539375308587646,24.425463681030273,11.516120808587646Q24.502123681030273,11.492866408587647,24.580693681030272,11.477237908587647Q24.659263681030275,11.461609308587647,24.738993681030273,11.453757278587647Q24.818713681030275,11.445905208587646,24.898823681030272,11.445905208587646Q24.978933681030274,11.445905208587646,25.058653681030272,11.453757278587647Q25.138383681030273,11.461609308587647,25.216943681030273,11.477237908587647Q25.295513681030272,11.492866408587647,25.372173681030272,11.516120808587646Q25.448833681030273,11.539375308587646,25.522853681030274,11.570032208587646Q25.596863681030275,11.600688208587647,25.66751368103027,11.638451208587647Q25.738163681030272,11.676214208587647,25.804763681030273,11.720721208587646Q25.871373681030274,11.765227208587646,25.933303681030274,11.816048208587647Q25.995223681030275,11.866868208587647,26.051873681030273,11.923514208587646Q26.108513681030274,11.980160208587646,26.159343681030272,12.042085208587647Q26.210163681030274,12.104010208587647,26.254663681030273,12.170619208587647Q26.299173681030275,12.237227208587646,26.336933681030274,12.307877208587646Q26.374703681030272,12.378527208587647,26.405353681030274,12.452535208587646Q26.436013681030275,12.526545208587647,26.459263681030272,12.603205208587646Q26.482523681030273,12.679865208587646,26.498153681030274,12.758435208587647Q26.513773681030273,12.837005208587646,26.521633681030274,12.916735208587646Q26.529483681030275,12.996455208587646,26.529483681030275,13.076565208587647ZM24.529483681030275,13.076565208587647Q24.529483681030275,13.112945208587647,24.536583681030272,13.148615208587646Q24.543673681030274,13.184295208587647,24.557593681030273,13.217905208587647Q24.571513681030275,13.251515208587646,24.591723681030274,13.281755208587647Q24.611933681030273,13.312005208587646,24.637663681030272,13.337725208587646Q24.663383681030272,13.363445208587647,24.693623681030274,13.383655208587646Q24.723873681030273,13.403865208587646,24.757483681030273,13.417795208587647Q24.791093681030272,13.431715208587647,24.826763681030272,13.438805208587647Q24.862443681030275,13.445905208587646,24.898823681030272,13.445905208587646Q24.935203681030274,13.445905208587646,24.970873681030273,13.438805208587647Q25.006553681030272,13.431715208587647,25.040163681030272,13.417795208587647Q25.073773681030275,13.403865208587646,25.104013681030274,13.383655208587646Q25.134263681030273,13.363445208587647,25.159983681030273,13.337725208587646Q25.185703681030272,13.312005208587646,25.205913681030275,13.281755208587647Q25.226123681030273,13.251515208587646,25.240053681030272,13.217905208587647Q25.253973681030274,13.184295208587647,25.261063681030272,13.148615208587646Q25.268163681030273,13.112945208587647,25.268163681030273,13.076565208587647Q25.268163681030273,13.040185208587646,25.261063681030272,13.004505208587647Q25.253973681030274,12.968835208587647,25.240053681030272,12.935225208587646Q25.226123681030273,12.901615208587646,25.205913681030275,12.871365208587646Q25.185703681030272,12.841125208587647,25.159983681030273,12.815405208587647Q25.134263681030273,12.789675208587646,25.104013681030274,12.769465208587647Q25.073773681030275,12.749255208587646,25.040163681030272,12.735335208587646Q25.006553681030272,12.721415208587647,24.970873681030273,12.714325208587647Q24.935203681030274,12.707225208587646,24.898823681030272,12.707225208587646Q24.862443681030275,12.707225208587646,24.826763681030272,12.714325208587647Q24.791093681030272,12.721415208587647,24.757483681030273,12.735335208587646Q24.723873681030273,12.749255208587646,24.693623681030274,12.769465208587647Q24.663383681030272,12.789675208587646,24.637663681030272,12.815405208587647Q24.611933681030273,12.841125208587647,24.591723681030274,12.871365208587646Q24.571513681030275,12.901615208587646,24.557593681030273,12.935225208587646Q24.543673681030274,12.968835208587647,24.536573681030273,13.004505208587647Q24.529483681030275,13.040185208587646,24.529483681030275,13.076565208587647Z" fill="#FFFFFF" fill-opacity="1"/></g><g><path d="M10.630488758392334,26.937169017944335Q10.630488758392334,27.017279017944336,10.622638758392334,27.096999017944334Q10.614778758392333,27.176729017944336,10.599158758392335,27.255289017944335Q10.583528758392333,27.333859017944334,10.560268758392334,27.410519017944335Q10.537018758392334,27.487179017944335,10.506358758392334,27.561199017944336Q10.475708758392333,27.635209017944337,10.437938758392335,27.705859017944334Q10.400178758392334,27.776509017944335,10.355668758392333,27.843109017944336Q10.311168758392334,27.909719017944337,10.260348758392334,27.971649017944337Q10.209518758392335,28.033569017944338,10.152878758392333,28.090219017944335Q10.096228758392334,28.146869017944336,10.034308758392335,28.197689017944334Q9.972378758392335,28.248509017944336,9.905768758392334,28.293009017944335Q9.839168758392335,28.337519017944338,9.768518758392334,28.375279017944337Q9.697868758392334,28.413049017944335,9.623858758392334,28.443699017944336Q9.549838758392333,28.474359017944337,9.473178758392335,28.497609017944335Q9.396518758392334,28.520869017944335,9.317948758392333,28.536499017944337Q9.239388758392334,28.552119017944335,9.159658758392334,28.559979017944336Q9.079938758392334,28.567829017944337,8.999828758392335,28.567829017944337Q8.919718758392333,28.567829017944337,8.839998758392333,28.559979017944336Q8.760268758392334,28.552119017944335,8.681698758392335,28.536499017944337Q8.603128758392334,28.520869017944335,8.526468758392333,28.497609017944335Q8.449808758392335,28.474359017944337,8.375798758392333,28.443699017944336Q8.301790758392334,28.413049017944335,8.231140758392334,28.375279017944337Q8.160490758392333,28.337519017944338,8.093881758392333,28.293009017944335Q8.027273758392335,28.248509017944336,7.965348758392334,28.197689017944334Q7.903423758392334,28.146869017944336,7.846777758392334,28.090219017944335Q7.790131758392334,28.033569017944338,7.739311758392334,27.971649017944337Q7.688490758392334,27.909719017944337,7.643984758392334,27.843109017944336Q7.599477758392334,27.776509017944335,7.561714758392334,27.705859017944334Q7.523951758392334,27.635209017944337,7.493295758392334,27.561199017944336Q7.462638858392334,27.487179017944335,7.439384358392334,27.410519017944335Q7.416129958392334,27.333859017944334,7.400501458392334,27.255289017944335Q7.384872858392334,27.176729017944336,7.377020828392334,27.096999017944334Q7.369168758392334,27.017279017944336,7.369168758392334,26.937169017944335Q7.369168758392334,26.857059017944337,7.377020828392334,26.777339017944335Q7.384872858392334,26.697609017944337,7.400501458392334,26.619039017944335Q7.416129958392334,26.540469017944336,7.439384358392334,26.463809017944335Q7.462638858392334,26.387149017944335,7.493295758392334,26.313139017944337Q7.523951758392334,26.239131017944334,7.561714758392334,26.168481017944337Q7.599477758392334,26.097831017944337,7.643984758392334,26.031223017944335Q7.688490758392334,25.964614017944335,7.739311758392334,25.902689017944336Q7.790131758392334,25.840764017944338,7.846777758392334,25.784118017944337Q7.903423758392334,25.727472017944336,7.965348758392334,25.676652017944335Q8.027273758392335,25.625831017944336,8.093881758392333,25.581325017944337Q8.160490758392333,25.536818017944334,8.231140758392334,25.499055017944336Q8.301790758392334,25.461292017944334,8.375798758392333,25.430636017944337Q8.449808758392335,25.399979117944337,8.526468758392333,25.376724617944337Q8.603128758392334,25.353470217944334,8.681698758392335,25.337841717944336Q8.760268758392334,25.322213117944337,8.839998758392333,25.314361087944334Q8.919718758392333,25.306509017944336,8.999828758392335,25.306509017944336Q9.079938758392334,25.306509017944336,9.159658758392334,25.314361087944334Q9.239388758392334,25.322213117944337,9.317948758392333,25.337841717944336Q9.396518758392334,25.353470217944334,9.473178758392335,25.376724617944337Q9.549838758392333,25.399979117944337,9.623858758392334,25.430636017944337Q9.697868758392334,25.461292017944334,9.768518758392334,25.499055017944336Q9.839168758392335,25.536818017944334,9.905768758392334,25.581325017944337Q9.972378758392335,25.625831017944336,10.034308758392335,25.676652017944335Q10.096228758392334,25.727472017944336,10.152878758392333,25.784118017944337Q10.209518758392335,25.840764017944338,10.260348758392334,25.902689017944336Q10.311168758392334,25.964614017944335,10.355668758392333,26.031223017944335Q10.400178758392334,26.097831017944337,10.437938758392335,26.168481017944337Q10.475708758392333,26.239131017944334,10.506358758392334,26.313139017944337Q10.537018758392334,26.387149017944335,10.560268758392334,26.463809017944335Q10.583528758392333,26.540469017944336,10.599158758392335,26.619039017944335Q10.614778758392333,26.697609017944337,10.622638758392334,26.777339017944335Q10.630488758392334,26.857059017944337,10.630488758392334,26.937169017944335ZM8.630488758392334,26.937169017944335Q8.630488758392334,26.973549017944336,8.637588758392335,27.009219017944336Q8.644678758392335,27.044899017944335,8.658598758392333,27.078509017944334Q8.672518758392334,27.112119017944337,8.692728758392334,27.142359017944337Q8.712938758392333,27.172609017944335,8.738668758392334,27.198329017944335Q8.764388758392334,27.224049017944335,8.794628758392333,27.244259017944337Q8.824878758392334,27.264469017944336,8.858488758392333,27.278399017944334Q8.892098758392335,27.292319017944337,8.927768758392334,27.299409017944335Q8.963448758392333,27.306509017944336,8.999828758392335,27.306509017944336Q9.036208758392334,27.306509017944336,9.071878758392334,27.299409017944335Q9.107558758392335,27.292319017944337,9.141168758392334,27.278399017944334Q9.174778758392334,27.264469017944336,9.205018758392335,27.244259017944337Q9.235268758392333,27.224049017944335,9.260988758392333,27.198329017944335Q9.286708758392335,27.172609017944335,9.306918758392333,27.142359017944337Q9.327128758392334,27.112119017944337,9.341058758392334,27.078509017944334Q9.354978758392335,27.044899017944335,9.362068758392335,27.009219017944336Q9.369168758392334,26.973549017944336,9.369168758392334,26.937169017944335Q9.369168758392334,26.900789017944337,9.362068758392335,26.865109017944334Q9.354978758392335,26.829439017944335,9.341058758392334,26.795829017944335Q9.327128758392334,26.762219017944336,9.306918758392333,26.731969017944337Q9.286708758392335,26.701729017944334,9.260988758392333,26.676009017944335Q9.235268758392333,26.650279017944335,9.205018758392335,26.630069017944336Q9.174778758392334,26.609859017944338,9.141168758392334,26.595939017944335Q9.107558758392335,26.582019017944337,9.071878758392334,26.574929017944335Q9.036208758392334,26.567829017944337,8.999828758392335,26.567829017944337Q8.963448758392333,26.567829017944337,8.927768758392334,26.574929017944335Q8.892098758392335,26.582019017944337,8.858488758392333,26.595939017944335Q8.824878758392334,26.609859017944338,8.794628758392333,26.630069017944336Q8.764388758392334,26.650279017944335,8.738668758392334,26.676009017944335Q8.712938758392333,26.701729017944334,8.692728758392334,26.731969017944337Q8.672518758392334,26.762219017944336,8.658598758392333,26.795829017944335Q8.644678758392335,26.829439017944335,8.637578758392333,26.865109017944334Q8.630488758392334,26.900789017944337,8.630488758392334,26.937169017944335Z" fill="#FFFFFF" fill-opacity="1"/></g><g><path d="M24.491424446411134,27.752495708618163Q24.491424446411134,27.832605708618164,24.483574446411133,27.912325708618162Q24.475714446411132,27.992055708618164,24.460094446411134,28.070615708618163Q24.444464446411132,28.149185708618162,24.42120444641113,28.225845708618163Q24.397954446411134,28.302505708618163,24.367294446411133,28.376525708618164Q24.336644446411132,28.450535708618165,24.298874446411133,28.521185708618162Q24.261114446411135,28.591835708618163,24.216604446411132,28.658435708618164Q24.172104446411133,28.725045708618165,24.12128444641113,28.786975708618165Q24.070454446411134,28.848895708618166,24.013814446411132,28.905545708618163Q23.957164446411134,28.962195708618165,23.895244446411134,29.013015708618163Q23.833314446411134,29.063835708618164,23.766704446411133,29.108335708618164Q23.70010444641113,29.152845708618166,23.62945444641113,29.190605708618165Q23.558804446411134,29.228375708618163,23.484794446411133,29.259025708618164Q23.410774446411132,29.289685708618165,23.33411444641113,29.312935708618163Q23.25745444641113,29.336195708618163,23.178884446411132,29.351825708618165Q23.100324446411133,29.367445708618163,23.02059444641113,29.375305708618164Q22.940874446411133,29.383155708618165,22.86076444641113,29.383155708618165Q22.780654446411134,29.383155708618165,22.700934446411132,29.375305708618164Q22.621204446411134,29.367445708618163,22.54263444641113,29.351825708618165Q22.464064446411133,29.336195708618163,22.387404446411132,29.312935708618163Q22.31074444641113,29.289685708618165,22.236734446411134,29.259025708618164Q22.16272644641113,29.228375708618163,22.092076446411134,29.190605708618165Q22.021426446411134,29.152845708618166,21.954817446411134,29.108335708618164Q21.888209446411132,29.063835708618164,21.826284446411133,29.013015708618163Q21.764359446411135,28.962195708618165,21.707713446411134,28.905545708618163Q21.651067446411133,28.848895708618166,21.60024744641113,28.786975708618165Q21.549426446411132,28.725045708618165,21.504920446411134,28.658435708618164Q21.46041344641113,28.591835708618163,21.422650446411133,28.521185708618162Q21.38488744641113,28.450535708618165,21.354231446411134,28.376525708618164Q21.323574546411134,28.302505708618163,21.300320046411134,28.225845708618163Q21.27706564641113,28.149185708618162,21.261437146411133,28.070615708618163Q21.245808546411133,27.992055708618164,21.23795651641113,27.912325708618162Q21.230104446411133,27.832605708618164,21.230104446411133,27.752495708618163Q21.230104446411133,27.672385708618165,21.23795651641113,27.592665708618163Q21.245808546411133,27.512935708618166,21.261437146411133,27.434365708618163Q21.27706564641113,27.355795708618164,21.300320046411134,27.279135708618163Q21.323574546411134,27.202475708618163,21.354231446411134,27.128465708618165Q21.38488744641113,27.054457708618163,21.422650446411133,26.983807708618166Q21.46041344641113,26.913157708618165,21.504920446411134,26.846549708618163Q21.549426446411132,26.779940708618163,21.60024744641113,26.718015708618164Q21.651067446411133,26.656090708618166,21.707713446411134,26.599444708618165Q21.764359446411135,26.542798708618164,21.826284446411133,26.491978708618163Q21.888209446411132,26.441157708618164,21.954817446411134,26.396651708618165Q22.021426446411134,26.352144708618162,22.092076446411134,26.314381708618164Q22.16272644641113,26.276618708618162,22.236734446411134,26.245962708618165Q22.31074444641113,26.215305808618165,22.387404446411132,26.192051308618165Q22.464064446411133,26.168796908618162,22.54263444641113,26.153168408618164Q22.621204446411134,26.137539808618165,22.700934446411132,26.129687778618162Q22.780654446411134,26.121835708618164,22.86076444641113,26.121835708618164Q22.940874446411133,26.121835708618164,23.02059444641113,26.129687778618162Q23.100324446411133,26.137539808618165,23.178884446411132,26.153168408618164Q23.25745444641113,26.168796908618162,23.33411444641113,26.192051308618165Q23.410774446411132,26.215305808618165,23.484794446411133,26.245962708618165Q23.558804446411134,26.276618708618162,23.62945444641113,26.314381708618164Q23.70010444641113,26.352144708618162,23.766704446411133,26.396651708618165Q23.833314446411134,26.441157708618164,23.895244446411134,26.491978708618163Q23.957164446411134,26.542798708618164,24.013814446411132,26.599444708618165Q24.070454446411134,26.656090708618166,24.12128444641113,26.718015708618164Q24.172104446411133,26.779940708618163,24.216604446411132,26.846549708618163Q24.261114446411135,26.913157708618165,24.298874446411133,26.983807708618166Q24.336644446411132,27.054457708618163,24.367294446411133,27.128465708618165Q24.397954446411134,27.202475708618163,24.42120444641113,27.279135708618163Q24.444464446411132,27.355795708618164,24.460094446411134,27.434365708618163Q24.475714446411132,27.512935708618166,24.483574446411133,27.592665708618163Q24.491424446411134,27.672385708618165,24.491424446411134,27.752495708618163ZM22.491424446411134,27.752495708618163Q22.491424446411134,27.788875708618164,22.498524446411132,27.824545708618164Q22.505614446411133,27.860225708618163,22.519534446411132,27.893835708618163Q22.533454446411135,27.927445708618166,22.553664446411133,27.957685708618165Q22.573874446411132,27.987935708618163,22.59960444641113,28.013655708618163Q22.62532444641113,28.039375708618163,22.655564446411134,28.059585708618165Q22.685814446411133,28.079795708618164,22.719424446411132,28.093725708618162Q22.75303444641113,28.107645708618165,22.78870444641113,28.114735708618163Q22.824384446411134,28.121835708618164,22.86076444641113,28.121835708618164Q22.897144446411133,28.121835708618164,22.932814446411133,28.114735708618163Q22.968494446411132,28.107645708618165,23.00210444641113,28.093725708618162Q23.035714446411134,28.079795708618164,23.065954446411133,28.059585708618165Q23.096204446411132,28.039375708618163,23.121924446411132,28.013655708618163Q23.14764444641113,27.987935708618163,23.167854446411134,27.957685708618165Q23.188064446411133,27.927445708618166,23.20199444641113,27.893835708618163Q23.215914446411134,27.860225708618163,23.22300444641113,27.824545708618164Q23.230104446411133,27.788875708618164,23.230104446411133,27.752495708618163Q23.230104446411133,27.716115708618165,23.22300444641113,27.680435708618162Q23.215914446411134,27.644765708618163,23.20199444641113,27.611155708618163Q23.188064446411133,27.577545708618164,23.167854446411134,27.547295708618165Q23.14764444641113,27.517055708618162,23.121924446411132,27.491335708618163Q23.096204446411132,27.465605708618163,23.065954446411133,27.445395708618165Q23.035714446411134,27.425185708618166,23.00210444641113,27.411265708618163Q22.968494446411132,27.397345708618165,22.932814446411133,27.390255708618163Q22.897144446411133,27.383155708618165,22.86076444641113,27.383155708618165Q22.824384446411134,27.383155708618165,22.78870444641113,27.390255708618163Q22.75303444641113,27.397345708618165,22.719424446411132,27.411265708618163Q22.685814446411133,27.425185708618166,22.655564446411134,27.445395708618165Q22.62532444641113,27.465605708618163,22.59960444641113,27.491335708618163Q22.573874446411132,27.517055708618162,22.553664446411133,27.547295708618165Q22.533454446411135,27.577545708618164,22.519534446411132,27.611155708618163Q22.505614446411133,27.644765708618163,22.498514446411132,27.680435708618162Q22.491424446411134,27.716115708618165,22.491424446411134,27.752495708618163Z" fill="#FFFFFF" fill-opacity="1"/></g><g><path d="M17.153322105712892,24.083516063842772Q17.153322105712892,24.163626063842774,17.14547210571289,24.243346063842772Q17.13761210571289,24.323076063842773,17.12199210571289,24.401636063842773Q17.10636210571289,24.480206063842772,17.08310210571289,24.556866063842772Q17.059852105712892,24.633526063842773,17.02919210571289,24.707546063842774Q16.99854210571289,24.781556063842775,16.96077210571289,24.85220606384277Q16.923012105712893,24.922856063842772,16.87850210571289,24.989456063842773Q16.83400210571289,25.056066063842774,16.78318210571289,25.117996063842774Q16.73235210571289,25.179916063842775,16.67571210571289,25.236566063842773Q16.619062105712892,25.293216063842774,16.55714210571289,25.344036063842772Q16.49521210571289,25.394856063842774,16.42860210571289,25.439356063842773Q16.36200210571289,25.483866063842775,16.29135210571289,25.521626063842774Q16.220702105712892,25.559396063842772,16.14669210571289,25.590046063842774Q16.07267210571289,25.620706063842775,15.996012105712891,25.643956063842772Q15.91935210571289,25.667216063842773,15.84078210571289,25.682846063842774Q15.76222210571289,25.698466063842773,15.68249210571289,25.706326063842774Q15.60277210571289,25.714176063842775,15.522662105712891,25.714176063842775Q15.44255210571289,25.714176063842775,15.36283210571289,25.706326063842774Q15.28310210571289,25.698466063842773,15.204532105712891,25.682846063842774Q15.12596210571289,25.667216063842773,15.04930210571289,25.643956063842772Q14.972642105712891,25.620706063842775,14.89863210571289,25.590046063842774Q14.824624105712891,25.559396063842772,14.75397410571289,25.521626063842774Q14.68332410571289,25.483866063842775,14.61671510571289,25.439356063842773Q14.550107105712891,25.394856063842774,14.488182105712891,25.344036063842772Q14.42625710571289,25.293216063842774,14.36961110571289,25.236566063842773Q14.312965105712891,25.179916063842775,14.262145105712891,25.117996063842774Q14.21132410571289,25.056066063842774,14.16681810571289,24.989456063842773Q14.12231110571289,24.922856063842772,14.08454810571289,24.85220606384277Q14.04678510571289,24.781556063842775,14.01612910571289,24.707546063842774Q13.98547220571289,24.633526063842773,13.96221770571289,24.556866063842772Q13.93896330571289,24.480206063842772,13.92333480571289,24.401636063842773Q13.907706205712891,24.323076063842773,13.89985417571289,24.243346063842772Q13.89200210571289,24.163626063842774,13.89200210571289,24.083516063842772Q13.89200210571289,24.003406063842775,13.89985417571289,23.923686063842773Q13.907706205712891,23.843956063842775,13.92333480571289,23.765386063842772Q13.93896330571289,23.686816063842773,13.96221770571289,23.610156063842773Q13.98547220571289,23.533496063842772,14.01612910571289,23.459486063842775Q14.04678510571289,23.385478063842772,14.08454810571289,23.314828063842775Q14.12231110571289,23.244178063842774,14.16681810571289,23.177570063842772Q14.21132410571289,23.110961063842772,14.262145105712891,23.049036063842774Q14.312965105712891,22.987111063842775,14.36961110571289,22.930465063842774Q14.42625710571289,22.873819063842774,14.488182105712891,22.822999063842772Q14.550107105712891,22.772178063842773,14.61671510571289,22.727672063842775Q14.68332410571289,22.68316506384277,14.75397410571289,22.645402063842774Q14.824624105712891,22.60763906384277,14.89863210571289,22.576983063842775Q14.972642105712891,22.546326163842775,15.04930210571289,22.523071663842774Q15.12596210571289,22.499817263842772,15.204532105712891,22.484188763842774Q15.28310210571289,22.468560163842774,15.36283210571289,22.460708133842772Q15.44255210571289,22.452856063842773,15.522662105712891,22.452856063842773Q15.60277210571289,22.452856063842773,15.68249210571289,22.460708133842772Q15.76222210571289,22.468560163842774,15.84078210571289,22.484188763842774Q15.91935210571289,22.499817263842772,15.996012105712891,22.523071663842774Q16.07267210571289,22.546326163842775,16.14669210571289,22.576983063842775Q16.220702105712892,22.60763906384277,16.29135210571289,22.645402063842774Q16.36200210571289,22.68316506384277,16.42860210571289,22.727672063842775Q16.49521210571289,22.772178063842773,16.55714210571289,22.822999063842772Q16.619062105712892,22.873819063842774,16.67571210571289,22.930465063842774Q16.73235210571289,22.987111063842775,16.78318210571289,23.049036063842774Q16.83400210571289,23.110961063842772,16.87850210571289,23.177570063842772Q16.923012105712893,23.244178063842774,16.96077210571289,23.314828063842775Q16.99854210571289,23.385478063842772,17.02919210571289,23.459486063842775Q17.059852105712892,23.533496063842772,17.08310210571289,23.610156063842773Q17.10636210571289,23.686816063842773,17.12199210571289,23.765386063842772Q17.13761210571289,23.843956063842775,17.14547210571289,23.923686063842773Q17.153322105712892,24.003406063842775,17.153322105712892,24.083516063842772ZM15.15332210571289,24.083516063842772Q15.15332210571289,24.119896063842774,15.160422105712891,24.155566063842773Q15.167512105712891,24.191246063842772,15.18143210571289,24.224856063842772Q15.19535210571289,24.258466063842775,15.215562105712891,24.288706063842774Q15.23577210571289,24.318956063842773,15.261502105712891,24.344676063842773Q15.28722210571289,24.370396063842772,15.31746210571289,24.390606063842775Q15.34771210571289,24.410816063842773,15.38132210571289,24.424746063842772Q15.414932105712891,24.438666063842774,15.45060210571289,24.445756063842772Q15.48628210571289,24.452856063842773,15.522662105712891,24.452856063842773Q15.55904210571289,24.452856063842773,15.59471210571289,24.445756063842772Q15.630392105712891,24.438666063842774,15.66400210571289,24.424746063842772Q15.69761210571289,24.410816063842773,15.727852105712891,24.390606063842775Q15.75810210571289,24.370396063842772,15.78382210571289,24.344676063842773Q15.809542105712891,24.318956063842773,15.82975210571289,24.288706063842774Q15.84996210571289,24.258466063842775,15.86389210571289,24.224856063842772Q15.877812105712891,24.191246063842772,15.884902105712891,24.155566063842773Q15.89200210571289,24.119896063842774,15.89200210571289,24.083516063842772Q15.89200210571289,24.047136063842775,15.884902105712891,24.011456063842772Q15.877812105712891,23.975786063842772,15.86389210571289,23.942176063842773Q15.84996210571289,23.908566063842773,15.82975210571289,23.878316063842774Q15.809542105712891,23.848076063842772,15.78382210571289,23.822356063842772Q15.75810210571289,23.796626063842773,15.727852105712891,23.776416063842774Q15.69761210571289,23.756206063842775,15.66400210571289,23.742286063842773Q15.630392105712891,23.728366063842774,15.59471210571289,23.721276063842772Q15.55904210571289,23.714176063842775,15.522662105712891,23.714176063842775Q15.48628210571289,23.714176063842775,15.45060210571289,23.721276063842772Q15.414932105712891,23.728366063842774,15.38132210571289,23.742286063842773Q15.34771210571289,23.756206063842775,15.31746210571289,23.776416063842774Q15.28722210571289,23.796626063842773,15.261502105712891,23.822356063842772Q15.23577210571289,23.848076063842772,15.215562105712891,23.878316063842774Q15.19535210571289,23.908566063842773,15.18143210571289,23.942176063842773Q15.167512105712891,23.975786063842772,15.16041210571289,24.011456063842772Q15.15332210571289,24.047136063842775,15.15332210571289,24.083516063842772Z" fill="#FFFFFF" fill-opacity="1"/></g><g><path d="M12.261214618988037,14.70722478881836Q12.261214618988037,14.78733478881836,12.253364618988037,14.86705478881836Q12.245504618988036,14.94678478881836,12.229884618988038,15.025344788818359Q12.214254618988036,15.10391478881836,12.190994618988038,15.18057478881836Q12.167744618988037,15.257234788818359,12.137084618988037,15.33125478881836Q12.106434618988036,15.405264788818359,12.068664618988038,15.47591478881836Q12.030904618988037,15.54656478881836,11.986394618988037,15.61316478881836Q11.941894618988037,15.67977478881836,11.891074618988037,15.74170478881836Q11.840244618988038,15.80362478881836,11.783604618988036,15.860274788818359Q11.726954618988037,15.91692478881836,11.665034618988038,15.96774478881836Q11.603104618988038,16.01856478881836,11.536494618988037,16.06306478881836Q11.469894618988038,16.10757478881836,11.399244618988037,16.14533478881836Q11.328594618988037,16.18310478881836,11.254584618988037,16.21375478881836Q11.180564618988036,16.24441478881836,11.103904618988038,16.267664788818358Q11.027244618988037,16.29092478881836,10.948674618988036,16.30655478881836Q10.870114618988037,16.32217478881836,10.790384618988037,16.33003478881836Q10.710664618988037,16.33788478881836,10.630554618988038,16.33788478881836Q10.550444618988037,16.33788478881836,10.470724618988037,16.33003478881836Q10.390994618988037,16.32217478881836,10.312424618988038,16.30655478881836Q10.233854618988037,16.29092478881836,10.157194618988036,16.267664788818358Q10.080534618988038,16.24441478881836,10.006524618988037,16.21375478881836Q9.932516618988037,16.18310478881836,9.861866618988037,16.14533478881836Q9.791216618988036,16.10757478881836,9.724607618988037,16.06306478881836Q9.657999618988038,16.01856478881836,9.596074618988037,15.96774478881836Q9.534149618988037,15.91692478881836,9.477503618988036,15.860274788818359Q9.420857618988038,15.80362478881836,9.370037618988038,15.74170478881836Q9.319216618988037,15.67977478881836,9.274710618988037,15.61316478881836Q9.230203618988037,15.54656478881836,9.192440618988037,15.47591478881836Q9.154677618988037,15.405264788818359,9.124021618988037,15.33125478881836Q9.093364718988036,15.257234788818359,9.070110218988036,15.18057478881836Q9.046855818988037,15.10391478881836,9.031227318988037,15.025344788818359Q9.015598718988038,14.94678478881836,9.007746688988037,14.86705478881836Q8.999894618988037,14.78733478881836,8.999894618988037,14.70722478881836Q8.999894618988037,14.627114788818359,9.007746688988037,14.547394788818359Q9.015598718988038,14.46766478881836,9.031227318988037,14.38909478881836Q9.046855818988037,14.310524788818359,9.070110218988036,14.233864788818359Q9.093364718988036,14.15720478881836,9.124021618988037,14.083194788818359Q9.154677618988037,14.00918678881836,9.192440618988037,13.93853678881836Q9.230203618988037,13.867886788818359,9.274710618988037,13.80127878881836Q9.319216618988037,13.73466978881836,9.370037618988038,13.67274478881836Q9.420857618988038,13.61081978881836,9.477503618988036,13.554173788818359Q9.534149618988037,13.49752778881836,9.596074618988037,13.44670778881836Q9.657999618988038,13.395886788818359,9.724607618988037,13.351380788818359Q9.791216618988036,13.30687378881836,9.861866618988037,13.26911078881836Q9.932516618988037,13.23134778881836,10.006524618988037,13.200691788818359Q10.080534618988038,13.170034888818359,10.157194618988036,13.146780388818359Q10.233854618988037,13.12352598881836,10.312424618988038,13.10789748881836Q10.390994618988037,13.09226888881836,10.470724618988037,13.08441685881836Q10.550444618988037,13.07656478881836,10.630554618988038,13.07656478881836Q10.710664618988037,13.07656478881836,10.790384618988037,13.08441685881836Q10.870114618988037,13.09226888881836,10.948674618988036,13.10789748881836Q11.027244618988037,13.12352598881836,11.103904618988038,13.146780388818359Q11.180564618988036,13.170034888818359,11.254584618988037,13.200691788818359Q11.328594618988037,13.23134778881836,11.399244618988037,13.26911078881836Q11.469894618988038,13.30687378881836,11.536494618988037,13.351380788818359Q11.603104618988038,13.395886788818359,11.665034618988038,13.44670778881836Q11.726954618988037,13.49752778881836,11.783604618988036,13.554173788818359Q11.840244618988038,13.61081978881836,11.891074618988037,13.67274478881836Q11.941894618988037,13.73466978881836,11.986394618988037,13.80127878881836Q12.030904618988037,13.867886788818359,12.068664618988038,13.93853678881836Q12.106434618988036,14.00918678881836,12.137084618988037,14.083194788818359Q12.167744618988037,14.15720478881836,12.190994618988038,14.233864788818359Q12.214254618988036,14.310524788818359,12.229884618988038,14.38909478881836Q12.245504618988036,14.46766478881836,12.253364618988037,14.547394788818359Q12.261214618988037,14.627114788818359,12.261214618988037,14.70722478881836ZM10.261214618988037,14.70722478881836Q10.261214618988037,14.74360478881836,10.268314618988038,14.779274788818359Q10.275404618988038,14.81495478881836,10.289324618988037,14.84856478881836Q10.303244618988037,14.882174788818359,10.323454618988038,14.91241478881836Q10.343664618988036,14.942664788818359,10.369394618988037,14.968384788818359Q10.395114618988037,14.99410478881836,10.425354618988036,15.014314788818359Q10.455604618988037,15.03452478881836,10.489214618988036,15.04845478881836Q10.522824618988038,15.06237478881836,10.558494618988037,15.06946478881836Q10.594174618988037,15.07656478881836,10.630554618988038,15.07656478881836Q10.666934618988037,15.07656478881836,10.702604618988037,15.06946478881836Q10.738284618988038,15.06237478881836,10.771894618988037,15.04845478881836Q10.805504618988037,15.03452478881836,10.835744618988038,15.014314788818359Q10.865994618988037,14.99410478881836,10.891714618988036,14.968384788818359Q10.917434618988038,14.942664788818359,10.937644618988037,14.91241478881836Q10.957854618988037,14.882174788818359,10.971784618988037,14.84856478881836Q10.985704618988038,14.81495478881836,10.992794618988038,14.779274788818359Q10.999894618988037,14.74360478881836,10.999894618988037,14.70722478881836Q10.999894618988037,14.670844788818359,10.992794618988038,14.63516478881836Q10.985704618988038,14.59949478881836,10.971784618988037,14.565884788818359Q10.957854618988037,14.53227478881836,10.937644618988037,14.502024788818359Q10.917434618988038,14.47178478881836,10.891714618988036,14.44606478881836Q10.865994618988037,14.420334788818359,10.835744618988038,14.40012478881836Q10.805504618988037,14.37991478881836,10.771894618988037,14.365994788818359Q10.738284618988038,14.35207478881836,10.702604618988037,14.34498478881836Q10.666934618988037,14.337884788818359,10.630554618988038,14.337884788818359Q10.594174618988037,14.337884788818359,10.558494618988037,14.34498478881836Q10.522824618988038,14.35207478881836,10.489214618988036,14.365994788818359Q10.455604618988037,14.37991478881836,10.425354618988036,14.40012478881836Q10.395114618988037,14.420334788818359,10.369394618988037,14.44606478881836Q10.343664618988036,14.47178478881836,10.323454618988038,14.502024788818359Q10.303244618988037,14.53227478881836,10.289324618988037,14.565884788818359Q10.275404618988038,14.59949478881836,10.268304618988036,14.63516478881836Q10.261214618988037,14.670844788818359,10.261214618988037,14.70722478881836Z" fill="#FFFFFF" fill-opacity="1"/></g><g><path d="M20.4148385836792,8.3884226171875Q20.4148385836792,8.5386226171875,20.4001185836792,8.6881026171875Q20.385398583679198,8.8375826171875,20.3560885836792,8.984902617187501Q20.3267885836792,9.1322226171875,20.2831885836792,9.2759626171875Q20.239578583679197,9.4196926171875,20.1820985836792,9.558472617187501Q20.1246185836792,9.6972426171875,20.0538185836792,9.8297126171875Q19.9830085836792,9.9621726171875,19.899558583679198,10.087062617187499Q19.8161085836792,10.211962617187499,19.7208285836792,10.3280626171875Q19.625538583679198,10.444172617187501,19.519328583679197,10.5503926171875Q19.4131085836792,10.656602617187499,19.296998583679198,10.751892617187501Q19.1808985836792,10.8471726171875,19.055998583679198,10.930622617187499Q18.931108583679197,11.0140726171875,18.7986485836792,11.0848826171875Q18.666178583679198,11.1556826171875,18.5273985836792,11.2131726171875Q18.3886285836792,11.270652617187501,18.2448985836792,11.314252617187499Q18.1011585836792,11.3578526171875,17.9538385836792,11.3871526171875Q17.8065185836792,11.4164626171875,17.6570385836792,11.431182617187499Q17.5075585836792,11.4459026171875,17.3573585836792,11.4459026171875Q17.2071485836792,11.4459026171875,17.0576685836792,11.431182617187499Q16.9081885836792,11.4164626171875,16.760868583679198,11.3871526171875Q16.6135485836792,11.3578526171875,16.4698085836792,11.314252617187499Q16.326078583679198,11.270652617187501,16.1873085836792,11.2131726171875Q16.0485385836792,11.1556826171875,15.916068583679198,11.0848826171875Q15.783598583679199,11.0140726171875,15.6587085836792,10.930622617187499Q15.5338185836792,10.8471726171875,15.417708583679198,10.751892617187501Q15.3015985836792,10.656602617187499,15.1953855836792,10.5503926171875Q15.089174583679199,10.444172617187501,14.9938855836792,10.3280626171875Q14.898596583679199,10.211962617187499,14.815147583679199,10.087062617187499Q14.731698583679199,9.9621726171875,14.6608925836792,9.8297126171875Q14.590086583679199,9.6972426171875,14.5326055836792,9.5584626171875Q14.475124583679198,9.4196926171875,14.431522583679198,9.2759626171875Q14.3879207836792,9.1322226171875,14.3586172836792,8.984902617187501Q14.3293138836792,8.8375826171875,14.3145911836792,8.6881026171875Q14.2998685836792,8.5386226171875,14.2998685836792,8.3884226171875Q14.2998685836792,8.2382126171875,14.3145911836792,8.0887326171875Q14.3293138836792,7.9392526171875,14.3586172836792,7.7919326171875Q14.3879207836792,7.6446126171875,14.431522583679198,7.5008726171875Q14.475124583679198,7.3571426171875,14.5326055836792,7.2183726171875Q14.590086583679199,7.0796026171875,14.6608925836792,6.9471326171875Q14.731698583679199,6.8146626171874995,14.815147583679199,6.6897726171875Q14.898596583679199,6.5648826171875,14.9938855836792,6.4487726171875Q15.089174583679199,6.3326626171875,15.1953855836792,6.2264496171875Q15.3015985836792,6.1202386171875,15.417708583679198,6.0249496171875Q15.5338185836792,5.9296616171875,15.6587085836792,5.8462116171875Q15.783598583679199,5.7627626171875,15.916068583679198,5.6919566171875005Q16.0485385836792,5.6211506171875,16.1873085836792,5.5636696171875Q16.326078583679198,5.5061886171875,16.4698085836792,5.4625866171875Q16.6135485836792,5.4189848171875,16.760868583679198,5.3896813171875Q16.9081885836792,5.3603779171875,17.0576685836792,5.3456552171875Q17.2071485836792,5.3309326171875,17.3573585836792,5.3309326171875Q17.5075585836792,5.3309326171875,17.6570385836792,5.3456552171875Q17.8065185836792,5.3603779171875,17.9538385836792,5.3896813171875Q18.1011585836792,5.4189848171875,18.2448985836792,5.4625866171875Q18.3886285836792,5.5061886171875,18.5273985836792,5.5636696171875Q18.666178583679198,5.6211506171875,18.7986485836792,5.6919566171875005Q18.931108583679197,5.7627626171875,19.055998583679198,5.8462116171875Q19.1808985836792,5.9296616171875,19.296998583679198,6.0249496171875Q19.4131085836792,6.1202386171875,19.519328583679197,6.2264496171875Q19.625538583679198,6.3326626171875,19.7208185836792,6.4487726171875Q19.8161085836792,6.5648826171875,19.899558583679198,6.6897726171875Q19.9830085836792,6.8146626171874995,20.0538185836792,6.9471326171875Q20.1246185836792,7.0796026171875,20.1820985836792,7.2183726171875Q20.239578583679197,7.3571426171875,20.2831885836792,7.5008726171875Q20.3267885836792,7.6446126171875,20.3560885836792,7.7919326171875Q20.385398583679198,7.9392526171875,20.4001185836792,8.0887326171875Q20.4148385836792,8.2382126171875,20.4148385836792,8.3884226171875ZM18.4148385836792,8.3884226171875Q18.4148385836792,8.3364726171875,18.4097485836792,8.2847626171875Q18.4046585836792,8.2330626171875,18.3945185836792,8.1821126171875Q18.3843885836792,8.131162617187499,18.3693085836792,8.0814426171875Q18.3542285836792,8.031732617187501,18.3343485836792,7.9837326171875Q18.3144685836792,7.9357426171875005,18.2899785836792,7.8899226171875Q18.2654885836792,7.844102617187501,18.2366185836792,7.8009126171875Q18.2077585836792,7.7577126171875,18.1747985836792,7.717552617187501Q18.1418485836792,7.6774026171875,18.1051085836792,7.6406626171875Q18.0683785836792,7.6039326171875,18.028218583679198,7.5709726171875005Q17.988058583679198,7.5380126171874995,17.9448585836792,7.5091526171875Q17.9016685836792,7.4802926171875,17.855848583679197,7.4558026171875Q17.8100285836792,7.4313126171874995,17.7620385836792,7.4114326171875Q17.714038583679198,7.3915526171875,17.6643285836792,7.3764726171875Q17.6146085836792,7.3613826171875,17.5636585836792,7.3512526171875Q17.5127085836792,7.3411126171875,17.4610085836792,7.3360226171875Q17.4093085836792,7.3309326171875,17.3573585836792,7.3309326171875Q17.3054085836792,7.3309326171875,17.2536985836792,7.3360226171875Q17.2019985836792,7.3411126171875,17.1510485836792,7.3512526171875Q17.1000985836792,7.3613826171875,17.050378583679198,7.3764726171875Q17.0006685836792,7.3915526171875,16.9526685836792,7.4114326171875Q16.9046785836792,7.4313126171874995,16.8588585836792,7.4558026171875Q16.813038583679198,7.4802926171875,16.7698485836792,7.5091526171875Q16.7266485836792,7.5380126171874995,16.6864885836792,7.5709726171875005Q16.6463385836792,7.6039326171875,16.6095985836792,7.6406626171875Q16.5728685836792,7.6774026171875,16.5399085836792,7.717552617187501Q16.5069485836792,7.7577126171875,16.4780885836792,7.8009126171875Q16.4492285836792,7.844102617187501,16.4247385836792,7.8899226171875Q16.4002485836792,7.9357426171875005,16.3803685836792,7.9837326171875Q16.3604885836792,8.031732617187501,16.3453985836792,8.0814426171875Q16.3303185836792,8.131162617187499,16.320188583679197,8.1821126171875Q16.310048583679198,8.2330626171875,16.3049585836792,8.2847626171875Q16.2998685836792,8.3364726171875,16.2998685836792,8.3884226171875Q16.2998685836792,8.4403726171875,16.3049585836792,8.4920726171875Q16.310048583679198,8.5437726171875,16.320188583679197,8.5947226171875Q16.3303185836792,8.6456726171875,16.3453985836792,8.6953926171875Q16.3604885836792,8.7451026171875,16.3803685836792,8.7931026171875Q16.4002485836792,8.841092617187499,16.4247385836792,8.8869126171875Q16.4492285836792,8.9327326171875,16.4780885836792,8.9759226171875Q16.5069485836792,9.0191226171875,16.5399085836792,9.059282617187499Q16.5728685836792,9.0994426171875,16.6095985836792,9.1361726171875Q16.6463385836792,9.1729126171875,16.6864885836792,9.205862617187499Q16.7266485836792,9.2388226171875,16.7698485836792,9.2676826171875Q16.813038583679198,9.2965526171875,16.8588585836792,9.3210426171875Q16.9046785836792,9.3455326171875,16.9526685836792,9.3654126171875Q17.0006685836792,9.385292617187499,17.050378583679198,9.4003726171875Q17.1000985836792,9.415452617187501,17.1510485836792,9.4255826171875Q17.2019985836792,9.435722617187501,17.2536985836792,9.4408126171875Q17.3054085836792,9.4459026171875,17.3573585836792,9.4459026171875Q17.4093085836792,9.4459026171875,17.4610085836792,9.4408126171875Q17.5127085836792,9.435722617187501,17.5636585836792,9.4255826171875Q17.6146085836792,9.415452617187501,17.6643285836792,9.4003726171875Q17.714038583679198,9.385292617187499,17.7620385836792,9.3654126171875Q17.8100285836792,9.3455326171875,17.855848583679197,9.3210426171875Q17.9016685836792,9.2965526171875,17.9448585836792,9.2676826171875Q17.988058583679198,9.2388226171875,18.028218583679198,9.205862617187499Q18.0683785836792,9.1729126171875,18.1051085836792,9.1361726171875Q18.1418485836792,9.0994426171875,18.1747985836792,9.059282617187499Q18.2077585836792,9.0191226171875,18.2366185836792,8.9759226171875Q18.2654885836792,8.9327326171875,18.2899785836792,8.8869126171875Q18.3144685836792,8.841092617187499,18.3343485836792,8.7931026171875Q18.3542285836792,8.7451026171875,18.3693085836792,8.6953926171875Q18.3843885836792,8.6456726171875,18.3945185836792,8.5947226171875Q18.4046585836792,8.5437726171875,18.4097485836792,8.4920726171875Q18.4148385836792,8.4403726171875,18.4148385836792,8.3884226171875Z" fill="#FFFFFF" fill-opacity="1"/></g><g><path d="M23.675825865478515,18.98770869659424Q23.675825865478515,19.137908696594238,23.661105865478515,19.28738869659424Q23.646385865478514,19.43686869659424,23.617075865478515,19.58418869659424Q23.587775865478516,19.73150869659424,23.544175865478515,19.875248696594237Q23.500565865478514,20.01897869659424,23.443085865478515,20.15775869659424Q23.385605865478517,20.296528696594237,23.314805865478515,20.42899869659424Q23.243995865478517,20.561458696594237,23.160545865478515,20.686348696594237Q23.077095865478515,20.811248696594237,22.981815865478517,20.927348696594237Q22.886525865478514,21.04345869659424,22.780315865478514,21.149678696594236Q22.674095865478517,21.255888696594237,22.557985865478514,21.35117869659424Q22.441885865478515,21.446458696594238,22.316985865478514,21.529908696594237Q22.192095865478514,21.61335869659424,22.059635865478516,21.684168696594238Q21.927165865478514,21.75496869659424,21.788385865478517,21.812458696594238Q21.649615865478516,21.86993869659424,21.505885865478515,21.913538696594237Q21.362145865478517,21.95713869659424,21.214825865478517,21.986438696594238Q21.067505865478516,22.015748696594237,20.918025865478516,22.030468696594237Q20.768545865478515,22.045188696594238,20.618345865478517,22.045188696594238Q20.468135865478516,22.045188696594238,20.318655865478515,22.030468696594237Q20.169175865478515,22.015748696594237,20.021855865478514,21.986438696594238Q19.874535865478517,21.95713869659424,19.730795865478516,21.913538696594237Q19.587065865478515,21.86993869659424,19.448295865478517,21.812458696594238Q19.309525865478516,21.75496869659424,19.177055865478515,21.684168696594238Q19.044585865478517,21.61335869659424,18.919695865478516,21.529908696594237Q18.794805865478516,21.446458696594238,18.678695865478517,21.35117869659424Q18.562585865478514,21.255888696594237,18.456372865478517,21.149678696594236Q18.350161865478515,21.04345869659424,18.254872865478514,20.927348696594237Q18.159583865478517,20.811248696594237,18.076134865478515,20.686348696594237Q17.992685865478517,20.561458696594237,17.921879865478516,20.42899869659424Q17.851073865478515,20.296528696594237,17.793592865478516,20.15774869659424Q17.736111865478517,20.01897869659424,17.692509865478517,19.875248696594237Q17.648908065478516,19.73150869659424,17.619604565478515,19.58418869659424Q17.590301165478515,19.43686869659424,17.575578465478515,19.28738869659424Q17.560855865478516,19.137908696594238,17.560855865478516,18.98770869659424Q17.560855865478516,18.83749869659424,17.575578465478515,18.688018696594238Q17.590301165478515,18.538538696594237,17.619604565478515,18.391218696594237Q17.648908065478516,18.24389869659424,17.692509865478517,18.10015869659424Q17.736111865478517,17.956428696594237,17.793592865478516,17.81765869659424Q17.851073865478515,17.67888869659424,17.921879865478516,17.546418696594237Q17.992685865478517,17.41394869659424,18.076134865478515,17.28905869659424Q18.159583865478517,17.16416869659424,18.254872865478514,17.04805869659424Q18.350161865478515,16.931948696594237,18.456372865478517,16.82573569659424Q18.562585865478514,16.719524696594238,18.678695865478517,16.624235696594237Q18.794805865478516,16.528947696594237,18.919695865478516,16.445497696594238Q19.044585865478517,16.36204869659424,19.177055865478515,16.29124269659424Q19.309525865478516,16.220436696594238,19.448295865478517,16.16295569659424Q19.587065865478515,16.10547469659424,19.730795865478516,16.06187269659424Q19.874535865478517,16.018270896594238,20.021855865478514,15.988967396594239Q20.169175865478515,15.959663996594239,20.318655865478515,15.944941296594239Q20.468135865478516,15.930218696594238,20.618345865478517,15.930218696594238Q20.768545865478515,15.930218696594238,20.918025865478516,15.944941296594239Q21.067505865478516,15.959663996594239,21.214825865478517,15.988967396594239Q21.362145865478517,16.018270896594238,21.505885865478515,16.06187269659424Q21.649615865478516,16.10547469659424,21.788385865478517,16.16295569659424Q21.927165865478514,16.220436696594238,22.059635865478516,16.29124269659424Q22.192095865478514,16.36204869659424,22.316985865478514,16.445497696594238Q22.441885865478515,16.528947696594237,22.557985865478514,16.624235696594237Q22.674095865478517,16.719524696594238,22.780315865478514,16.82573569659424Q22.886525865478514,16.931948696594237,22.981805865478517,17.04805869659424Q23.077095865478515,17.16416869659424,23.160545865478515,17.28905869659424Q23.243995865478517,17.41394869659424,23.314805865478515,17.546418696594237Q23.385605865478517,17.67888869659424,23.443085865478515,17.81765869659424Q23.500565865478514,17.956428696594237,23.544175865478515,18.10015869659424Q23.587775865478516,18.24389869659424,23.617075865478515,18.391218696594237Q23.646385865478514,18.538538696594237,23.661105865478515,18.688018696594238Q23.675825865478515,18.83749869659424,23.675825865478515,18.98770869659424ZM21.675825865478515,18.98770869659424Q21.675825865478515,18.935758696594238,21.670735865478516,18.88404869659424Q21.665645865478517,18.832348696594238,21.655505865478517,18.781398696594238Q21.645375865478517,18.730448696594237,21.630295865478516,18.680728696594237Q21.615215865478515,18.63101869659424,21.595335865478518,18.583018696594237Q21.575455865478517,18.53502869659424,21.550965865478517,18.48920869659424Q21.526475865478517,18.443388696594237,21.497605865478516,18.400198696594238Q21.468745865478517,18.35699869659424,21.435785865478515,18.31683869659424Q21.402835865478515,18.27668869659424,21.366095865478517,18.23994869659424Q21.329365865478515,18.203218696594238,21.289205865478515,18.17025869659424Q21.249045865478514,18.13729869659424,21.205845865478516,18.108438696594238Q21.162655865478516,18.07957869659424,21.116835865478514,18.05508869659424Q21.071015865478515,18.03059869659424,21.023025865478516,18.01071869659424Q20.975025865478514,17.99083869659424,20.925315865478517,17.975758696594237Q20.875595865478516,17.96066869659424,20.824645865478516,17.950538696594236Q20.773695865478516,17.940398696594237,20.721995865478515,17.935308696594237Q20.670295865478515,17.93021869659424,20.618345865478517,17.93021869659424Q20.566395865478516,17.93021869659424,20.514685865478516,17.935308696594237Q20.462985865478515,17.940398696594237,20.412035865478515,17.950538696594236Q20.361085865478515,17.96066869659424,20.311365865478514,17.975758696594237Q20.261655865478517,17.99083869659424,20.213655865478515,18.01071869659424Q20.165665865478516,18.03059869659424,20.119845865478517,18.05508869659424Q20.074025865478514,18.07957869659424,20.030835865478515,18.108438696594238Q19.987635865478516,18.13729869659424,19.947475865478516,18.17025869659424Q19.907325865478516,18.203218696594238,19.870585865478517,18.23994869659424Q19.833855865478515,18.27668869659424,19.800895865478516,18.31683869659424Q19.767935865478517,18.35699869659424,19.739075865478515,18.400198696594238Q19.710215865478517,18.443388696594237,19.685725865478517,18.48920869659424Q19.661235865478517,18.53502869659424,19.641355865478516,18.583018696594237Q19.621475865478516,18.63101869659424,19.606385865478515,18.680728696594237Q19.591305865478517,18.730448696594237,19.581175865478514,18.781398696594238Q19.571035865478514,18.832348696594238,19.565945865478515,18.88404869659424Q19.560855865478516,18.935758696594238,19.560855865478516,18.98770869659424Q19.560855865478516,19.039658696594238,19.565945865478515,19.091358696594238Q19.571035865478514,19.143058696594238,19.581175865478514,19.19400869659424Q19.591305865478517,19.24495869659424,19.606385865478515,19.29467869659424Q19.621475865478516,19.344388696594237,19.641355865478516,19.39238869659424Q19.661235865478517,19.440378696594237,19.685725865478517,19.486198696594236Q19.710215865478517,19.53201869659424,19.739075865478515,19.57520869659424Q19.767935865478517,19.618408696594237,19.800895865478516,19.658568696594237Q19.833855865478515,19.698728696594237,19.870585865478517,19.73545869659424Q19.907325865478516,19.772198696594238,19.947475865478516,19.805148696594237Q19.987635865478516,19.83810869659424,20.030835865478515,19.86696869659424Q20.074025865478514,19.89583869659424,20.119845865478517,19.92032869659424Q20.165665865478516,19.94481869659424,20.213655865478515,19.96469869659424Q20.261655865478517,19.984578696594237,20.311365865478514,19.99965869659424Q20.361085865478515,20.01473869659424,20.412035865478515,20.02486869659424Q20.462985865478515,20.03500869659424,20.514685865478516,20.04009869659424Q20.566395865478516,20.045188696594238,20.618345865478517,20.045188696594238Q20.670295865478515,20.045188696594238,20.721995865478515,20.04009869659424Q20.773695865478516,20.03500869659424,20.824645865478516,20.02486869659424Q20.875595865478516,20.01473869659424,20.925315865478517,19.99965869659424Q20.975025865478514,19.984578696594237,21.023025865478516,19.96469869659424Q21.071015865478515,19.94481869659424,21.116835865478514,19.92032869659424Q21.162655865478516,19.89583869659424,21.205845865478516,19.86696869659424Q21.249045865478514,19.83810869659424,21.289205865478515,19.805148696594237Q21.329365865478515,19.772198696594238,21.366095865478517,19.73545869659424Q21.402835865478515,19.698728696594237,21.435785865478515,19.658568696594237Q21.468745865478517,19.618408696594237,21.497605865478516,19.57520869659424Q21.526475865478517,19.53201869659424,21.550965865478517,19.486198696594236Q21.575455865478517,19.440378696594237,21.595335865478518,19.39238869659424Q21.615215865478515,19.344388696594237,21.630295865478516,19.29467869659424Q21.645375865478517,19.24495869659424,21.655505865478517,19.19400869659424Q21.665645865478517,19.143058696594238,21.670735865478516,19.091358696594238Q21.675825865478515,19.039658696594238,21.675825865478515,18.98770869659424Z" fill="#FFFFFF" fill-opacity="1"/></g><g><path d="M31.829453261108398,24.69501555847168Q31.829453261108398,24.84521555847168,31.814733261108397,24.99469555847168Q31.800013261108397,25.14417555847168,31.770703261108398,25.29149555847168Q31.7414032611084,25.43881555847168,31.697803261108398,25.58255555847168Q31.654193261108396,25.72628555847168,31.5967132611084,25.86506555847168Q31.5392332611084,26.00383555847168,31.468433261108398,26.13630555847168Q31.3976232611084,26.268765558471678,31.314173261108397,26.39365555847168Q31.2307232611084,26.51855555847168,31.1354432611084,26.634655558471678Q31.040153261108397,26.75076555847168,30.933943261108396,26.856985558471678Q30.8277232611084,26.96319555847168,30.711613261108397,27.05848555847168Q30.595513261108398,27.15376555847168,30.470613261108397,27.23721555847168Q30.345723261108397,27.32066555847168,30.2132632611084,27.39147555847168Q30.080793261108397,27.46227555847168,29.9420132611084,27.51976555847168Q29.8032432611084,27.57724555847168,29.659513261108398,27.62084555847168Q29.5157732611084,27.66444555847168,29.3684532611084,27.69374555847168Q29.2211332611084,27.72305555847168,29.0716532611084,27.73777555847168Q28.922173261108398,27.75249555847168,28.7719732611084,27.75249555847168Q28.6217632611084,27.75249555847168,28.472283261108398,27.73777555847168Q28.322803261108398,27.72305555847168,28.175483261108397,27.69374555847168Q28.0281632611084,27.66444555847168,27.8844232611084,27.62084555847168Q27.740693261108397,27.57724555847168,27.6019232611084,27.51976555847168Q27.4631532611084,27.46227555847168,27.330683261108398,27.39147555847168Q27.1982132611084,27.32066555847168,27.0733232611084,27.23721555847168Q26.9484332611084,27.15376555847168,26.8323232611084,27.05848555847168Q26.716213261108397,26.96319555847168,26.6100002611084,26.856985558471678Q26.5037892611084,26.75076555847168,26.408500261108397,26.634655558471678Q26.3132112611084,26.51855555847168,26.229762261108398,26.39365555847168Q26.1463132611084,26.268765558471678,26.0755072611084,26.13630555847168Q26.004701261108398,26.00383555847168,25.9472202611084,25.86505555847168Q25.8897392611084,25.72628555847168,25.8461372611084,25.58255555847168Q25.8025354611084,25.43881555847168,25.773231961108397,25.29149555847168Q25.743928561108397,25.14417555847168,25.729205861108397,24.99469555847168Q25.7144832611084,24.84521555847168,25.7144832611084,24.69501555847168Q25.7144832611084,24.54480555847168,25.729205861108397,24.39532555847168Q25.743928561108397,24.24584555847168,25.773231961108397,24.098525558471678Q25.8025354611084,23.95120555847168,25.8461372611084,23.80746555847168Q25.8897392611084,23.66373555847168,25.9472202611084,23.52496555847168Q26.004701261108398,23.38619555847168,26.0755072611084,23.25372555847168Q26.1463132611084,23.12125555847168,26.229762261108398,22.99636555847168Q26.3132112611084,22.87147555847168,26.408500261108397,22.75536555847168Q26.5037892611084,22.639255558471678,26.6100002611084,22.53304255847168Q26.716213261108397,22.42683155847168,26.8323232611084,22.33154255847168Q26.9484332611084,22.23625455847168,27.0733232611084,22.15280455847168Q27.1982132611084,22.06935555847168,27.330683261108398,21.99854955847168Q27.4631532611084,21.92774355847168,27.6019232611084,21.87026255847168Q27.740693261108397,21.81278155847168,27.8844232611084,21.76917955847168Q28.0281632611084,21.72557775847168,28.175483261108397,21.69627425847168Q28.322803261108398,21.66697085847168,28.472283261108398,21.65224815847168Q28.6217632611084,21.63752555847168,28.7719732611084,21.63752555847168Q28.922173261108398,21.63752555847168,29.0716532611084,21.65224815847168Q29.2211332611084,21.66697085847168,29.3684532611084,21.69627425847168Q29.5157732611084,21.72557775847168,29.659513261108398,21.76917955847168Q29.8032432611084,21.81278155847168,29.9420132611084,21.87026255847168Q30.080793261108397,21.92774355847168,30.2132632611084,21.99854955847168Q30.345723261108397,22.06935555847168,30.470613261108397,22.15280455847168Q30.595513261108398,22.23625455847168,30.711613261108397,22.33154255847168Q30.8277232611084,22.42683155847168,30.933943261108396,22.53304255847168Q31.040153261108397,22.639255558471678,31.1354332611084,22.75536555847168Q31.2307232611084,22.87147555847168,31.314173261108397,22.99636555847168Q31.3976232611084,23.12125555847168,31.468433261108398,23.25372555847168Q31.5392332611084,23.38619555847168,31.5967132611084,23.52496555847168Q31.654193261108396,23.66373555847168,31.697803261108398,23.80746555847168Q31.7414032611084,23.95120555847168,31.770703261108398,24.098525558471678Q31.800013261108397,24.24584555847168,31.814733261108397,24.39532555847168Q31.829453261108398,24.54480555847168,31.829453261108398,24.69501555847168ZM29.829453261108398,24.69501555847168Q29.829453261108398,24.64306555847168,29.8243632611084,24.59135555847168Q29.8192732611084,24.53965555847168,29.8091332611084,24.48870555847168Q29.7990032611084,24.43775555847168,29.7839232611084,24.388035558471678Q29.768843261108398,24.33832555847168,29.7489632611084,24.29032555847168Q29.7290832611084,24.24233555847168,29.7045932611084,24.19651555847168Q29.6801032611084,24.15069555847168,29.6512332611084,24.10750555847168Q29.6223732611084,24.06430555847168,29.589413261108398,24.02414555847168Q29.556463261108398,23.98399555847168,29.5197232611084,23.94725555847168Q29.482993261108398,23.91052555847168,29.442833261108397,23.87756555847168Q29.402673261108397,23.84460555847168,29.3594732611084,23.81574555847168Q29.3162832611084,23.78688555847168,29.270463261108397,23.76239555847168Q29.224643261108397,23.73790555847168,29.1766532611084,23.71802555847168Q29.128653261108397,23.69814555847168,29.0789432611084,23.68306555847168Q29.0292232611084,23.66797555847168,28.9782732611084,23.657845558471678Q28.9273232611084,23.647705558471678,28.875623261108398,23.64261555847168Q28.823923261108398,23.63752555847168,28.7719732611084,23.63752555847168Q28.7200232611084,23.63752555847168,28.6683132611084,23.64261555847168Q28.616613261108398,23.647705558471678,28.565663261108398,23.657845558471678Q28.514713261108398,23.66797555847168,28.464993261108397,23.68306555847168Q28.4152832611084,23.69814555847168,28.367283261108398,23.71802555847168Q28.3192932611084,23.73790555847168,28.2734732611084,23.76239555847168Q28.227653261108397,23.78688555847168,28.184463261108398,23.81574555847168Q28.1412632611084,23.84460555847168,28.1011032611084,23.87756555847168Q28.0609532611084,23.91052555847168,28.0242132611084,23.94725555847168Q27.987483261108398,23.98399555847168,27.9545232611084,24.02414555847168Q27.9215632611084,24.06430555847168,27.892703261108398,24.10750555847168Q27.8638432611084,24.15069555847168,27.8393532611084,24.19651555847168Q27.8148632611084,24.24233555847168,27.7949832611084,24.29032555847168Q27.7751032611084,24.33832555847168,27.760013261108398,24.388035558471678Q27.7449332611084,24.43775555847168,27.734803261108397,24.48870555847168Q27.724663261108397,24.53965555847168,27.719573261108398,24.59135555847168Q27.7144832611084,24.64306555847168,27.7144832611084,24.69501555847168Q27.7144832611084,24.74696555847168,27.719573261108398,24.79866555847168Q27.724663261108397,24.85036555847168,27.734803261108397,24.90131555847168Q27.7449332611084,24.95226555847168,27.760013261108398,25.00198555847168Q27.7751032611084,25.05169555847168,27.7949832611084,25.09969555847168Q27.8148632611084,25.14768555847168,27.8393532611084,25.193505558471678Q27.8638432611084,25.23932555847168,27.892703261108398,25.28251555847168Q27.9215632611084,25.32571555847168,27.9545232611084,25.36587555847168Q27.987483261108398,25.40603555847168,28.0242132611084,25.44276555847168Q28.0609532611084,25.47950555847168,28.1011032611084,25.51245555847168Q28.1412632611084,25.54541555847168,28.184463261108398,25.57427555847168Q28.227653261108397,25.60314555847168,28.2734732611084,25.62763555847168Q28.3192932611084,25.65212555847168,28.367283261108398,25.67200555847168Q28.4152832611084,25.69188555847168,28.464993261108397,25.70696555847168Q28.514713261108398,25.72204555847168,28.565663261108398,25.73217555847168Q28.616613261108398,25.74231555847168,28.6683132611084,25.74740555847168Q28.7200232611084,25.75249555847168,28.7719732611084,25.75249555847168Q28.823923261108398,25.75249555847168,28.875623261108398,25.74740555847168Q28.9273232611084,25.74231555847168,28.9782732611084,25.73217555847168Q29.0292232611084,25.72204555847168,29.0789432611084,25.70696555847168Q29.128653261108397,25.69188555847168,29.1766532611084,25.67200555847168Q29.224643261108397,25.65212555847168,29.270463261108397,25.62763555847168Q29.3162832611084,25.60314555847168,29.3594732611084,25.57427555847168Q29.402673261108397,25.54541555847168,29.442833261108397,25.51245555847168Q29.482993261108398,25.47950555847168,29.5197232611084,25.44276555847168Q29.556463261108398,25.40603555847168,29.589413261108398,25.36587555847168Q29.6223732611084,25.32571555847168,29.6512332611084,25.28251555847168Q29.6801032611084,25.23932555847168,29.7045932611084,25.193505558471678Q29.7290832611084,25.14768555847168,29.7489632611084,25.09969555847168Q29.768843261108398,25.05169555847168,29.7839232611084,25.00198555847168Q29.7990032611084,24.95226555847168,29.8091332611084,24.90131555847168Q29.8192732611084,24.85036555847168,29.8243632611084,24.79866555847168Q29.829453261108398,24.74696555847168,29.829453261108398,24.69501555847168Z" fill="#FFFFFF" fill-opacity="1"/></g><g><path d="M9.00022390625,21.026032098999025Q9.00022390625,21.176232098999023,8.985503906249999,21.325712098999023Q8.97078390625,21.475192098999024,8.94147390625,21.622512098999024Q8.91217390625,21.769832098999025,8.868573906249999,21.913572098999023Q8.82496390625,22.057302098999024,8.76748390625,22.196082098999025Q8.71000390625,22.334852098999022,8.63920390625,22.467322098999023Q8.56839390625,22.59978209899902,8.484943906249999,22.724672098999022Q8.40149390625,22.849572098999023,8.306213906250001,22.965672098999022Q8.210923906249999,23.081782098999025,8.10471390625,23.18800209899902Q7.99849390625,23.294212098999022,7.88238390625,23.389502098999024Q7.76628390625,23.484782098999023,7.64138390625,23.568232098999022Q7.51649390625,23.651682098999025,7.38403390625,23.722492098999023Q7.25156390625,23.793292098999025,7.11278390625,23.850782098999023Q6.97401390625,23.908262098999025,6.83028390625,23.951862098999023Q6.68654390625,23.995462098999024,6.53922390625,24.024762098999023Q6.3919039062500005,24.054072098999022,6.24242390625,24.068792098999022Q6.0929439062499995,24.083512098999023,5.94274390625,24.083512098999023Q5.79253390625,24.083512098999023,5.64305390625,24.068792098999022Q5.49357390625,24.054072098999022,5.34625390625,24.024762098999023Q5.19893390625,23.995462098999024,5.05519390625,23.951862098999023Q4.91146390625,23.908262098999025,4.77269390625,23.850782098999023Q4.63392390625,23.793292098999025,4.50145390625,23.722492098999023Q4.3689839062499995,23.651682098999025,4.24409390625,23.568232098999022Q4.11920390625,23.484782098999023,4.00309390625,23.389502098999024Q3.8869839062500002,23.294212098999022,3.78077090625,23.18800209899902Q3.67455990625,23.081782098999025,3.57927090625,22.965672098999022Q3.48398190625,22.849572098999023,3.40053290625,22.724672098999022Q3.31708390625,22.59978209899902,3.24627790625,22.467322098999023Q3.17547190625,22.334852098999022,3.11799090625,22.196072098999025Q3.06050990625,22.057302098999024,3.01690790625,21.913572098999023Q2.97330610625,21.769832098999025,2.94400260625,21.622512098999024Q2.91469920625,21.475192098999024,2.89997650625,21.325712098999023Q2.88525390625,21.176232098999023,2.88525390625,21.026032098999025Q2.88525390625,20.875822098999024,2.89997650625,20.726342098999023Q2.91469920625,20.576862098999023,2.94400260625,20.429542098999022Q2.97330610625,20.282222098999025,3.01690790625,20.138482098999024Q3.06050990625,19.994752098999022,3.11799090625,19.855982098999025Q3.17547190625,19.717212098999024,3.24627790625,19.584742098999023Q3.31708390625,19.452272098999025,3.40053290625,19.327382098999024Q3.48398190625,19.202492098999024,3.57927090625,19.086382098999024Q3.67455990625,18.970272098999022,3.78077090625,18.864059098999025Q3.8869839062500002,18.757848098999023,4.00309390625,18.662559098999022Q4.11920390625,18.567271098999022,4.24409390625,18.483821098999023Q4.3689839062499995,18.400372098999025,4.50145390625,18.329566098999024Q4.63392390625,18.258760098999023,4.77269390625,18.201279098999024Q4.91146390625,18.143798098999024,5.05519390625,18.100196098999024Q5.19893390625,18.056594298999023,5.34625390625,18.027290798999022Q5.49357390625,17.997987398999022,5.64305390625,17.983264698999022Q5.79253390625,17.968542098999023,5.94274390625,17.968542098999023Q6.0929439062499995,17.968542098999023,6.24242390625,17.983264698999022Q6.3919039062500005,17.997987398999022,6.53922390625,18.027290798999022Q6.68654390625,18.056594298999023,6.83028390625,18.100196098999024Q6.97401390625,18.143798098999024,7.11278390625,18.201279098999024Q7.25156390625,18.258760098999023,7.38403390625,18.329566098999024Q7.51649390625,18.400372098999025,7.64138390625,18.483821098999023Q7.76628390625,18.567271098999022,7.88238390625,18.662559098999022Q7.99849390625,18.757848098999023,8.10471390625,18.864059098999025Q8.210923906249999,18.970272098999022,8.306203906250001,19.086382098999024Q8.40149390625,19.202492098999024,8.484943906249999,19.327382098999024Q8.56839390625,19.452272098999025,8.63920390625,19.584742098999023Q8.71000390625,19.717212098999024,8.76748390625,19.855982098999025Q8.82496390625,19.994752098999022,8.868573906249999,20.138482098999024Q8.91217390625,20.282222098999025,8.94147390625,20.429542098999022Q8.97078390625,20.576862098999023,8.985503906249999,20.726342098999023Q9.00022390625,20.875822098999024,9.00022390625,21.026032098999025ZM7.00022390625,21.026032098999025Q7.00022390625,20.974082098999023,6.99513390625,20.922372098999023Q6.99004390625,20.870672098999023,6.97990390625,20.819722098999023Q6.96977390625,20.768772098999023,6.95469390625,20.719052098999022Q6.93961390625,20.669342098999024,6.91973390625,20.621342098999023Q6.89985390625,20.573352098999024,6.87536390625,20.527532098999025Q6.8508739062499995,20.481712098999022,6.82200390625,20.438522098999023Q6.79314390625,20.395322098999024,6.76018390625,20.355162098999024Q6.7272339062499995,20.315012098999023,6.6904939062499995,20.278272098999025Q6.65376390625,20.241542098999023,6.61360390625,20.208582098999024Q6.5734439062500005,20.175622098999025,6.53024390625,20.146762098999023Q6.48705390625,20.117902098999025,6.44123390625,20.093412098999025Q6.39541390625,20.068922098999025,6.34742390625,20.049042098999024Q6.29942390625,20.029162098999024,6.249713906249999,20.014082098999022Q6.1999939062500005,19.998992098999025,6.14904390625,19.98886209899902Q6.09809390625,19.97872209899902,6.04639390625,19.973632098999023Q5.99469390625,19.968542098999023,5.94274390625,19.968542098999023Q5.89079390625,19.968542098999023,5.83908390625,19.973632098999023Q5.78738390625,19.97872209899902,5.736433906249999,19.98886209899902Q5.68548390625,19.998992098999025,5.63576390625,20.014082098999022Q5.58605390625,20.029162098999024,5.53805390625,20.049042098999024Q5.4900639062500005,20.068922098999025,5.44424390625,20.093412098999025Q5.398423906250001,20.117902098999025,5.35523390625,20.146762098999023Q5.31203390625,20.175622098999025,5.271873906250001,20.208582098999024Q5.23172390625,20.241542098999023,5.19498390625,20.278272098999025Q5.15825390625,20.315012098999023,5.1252939062500005,20.355162098999024Q5.0923339062499995,20.395322098999024,5.06347390625,20.438522098999023Q5.03461390625,20.481712098999022,5.01012390625,20.527532098999025Q4.9856339062499995,20.573352098999024,4.96575390625,20.621342098999023Q4.94587390625,20.669342098999024,4.930783906249999,20.719052098999022Q4.91570390625,20.768772098999023,4.90557390625,20.819722098999023Q4.89543390625,20.870672098999023,4.89034390625,20.922372098999023Q4.88525390625,20.974082098999023,4.88525390625,21.026032098999025Q4.88525390625,21.077982098999023,4.89034390625,21.129682098999023Q4.89543390625,21.181382098999023,4.90557390625,21.232332098999024Q4.91570390625,21.283282098999024,4.930783906249999,21.333002098999025Q4.94587390625,21.382712098999022,4.96575390625,21.430712098999024Q4.9856339062499995,21.478702098999022,5.01012390625,21.52452209899902Q5.03461390625,21.570342098999024,5.06347390625,21.613532098999023Q5.0923339062499995,21.656732098999022,5.1252939062500005,21.696892098999022Q5.15825390625,21.737052098999023,5.19498390625,21.773782098999025Q5.23172390625,21.810522098999023,5.271873906250001,21.843472098999023Q5.31203390625,21.876432098999025,5.35523390625,21.905292098999023Q5.398423906250001,21.934162098999025,5.44424390625,21.958652098999025Q5.4900639062500005,21.983142098999025,5.53805390625,22.003022098999026Q5.58605390625,22.022902098999023,5.63576390625,22.037982098999024Q5.68548390625,22.053062098999025,5.736433906249999,22.063192098999025Q5.78738390625,22.073332098999025,5.83908390625,22.078422098999024Q5.89079390625,22.083512098999023,5.94274390625,22.083512098999023Q5.99469390625,22.083512098999023,6.04639390625,22.078422098999024Q6.09809390625,22.073332098999025,6.14904390625,22.063192098999025Q6.1999939062500005,22.053062098999025,6.249713906249999,22.037982098999024Q6.29942390625,22.022902098999023,6.34742390625,22.003022098999026Q6.39541390625,21.983142098999025,6.44123390625,21.958652098999025Q6.48705390625,21.934162098999025,6.53024390625,21.905292098999023Q6.5734439062500005,21.876432098999025,6.61360390625,21.843472098999023Q6.65376390625,21.810522098999023,6.6904939062499995,21.773782098999025Q6.7272339062499995,21.737052098999023,6.76018390625,21.696892098999022Q6.79314390625,21.656732098999022,6.82200390625,21.613532098999023Q6.8508739062499995,21.570342098999024,6.87536390625,21.52452209899902Q6.89985390625,21.478702098999022,6.91973390625,21.430712098999024Q6.93961390625,21.382712098999022,6.95469390625,21.333002098999025Q6.96977390625,21.283282098999024,6.97990390625,21.232332098999024Q6.99004390625,21.181382098999023,6.99513390625,21.129682098999023Q7.00022390625,21.077982098999023,7.00022390625,21.026032098999025Z" fill="#FFFFFF" fill-opacity="1"/></g></g></g><script xmlns=""/></svg>