<svg xmlns="http://www.w3.org/2000/svg" xmlns:xlink="http://www.w3.org/1999/xlink" fill="none" version="1.1" width="32" height="32" viewBox="0 0 32 32"><g><g/><g transform="matrix(0.7071067690849304,0.7071067690849304,-0.7071067690849304,0.7071067690849304,4.609821185721231,-7.549773862129328)"><g><g><path d="M21.891924517059326,3.484069261703491L21.891924517059326,8.38633926170349Q21.891924517059326,8.484829261703492,21.911144517059327,8.58142926170349Q21.930354517059328,8.678029261703491,21.968044517059326,8.769019261703491Q22.005734517059327,8.860009261703492,22.060454517059327,8.941909261703492Q22.115174517059327,9.023799261703491,22.184824517059326,9.093439261703491Q22.254464517059326,9.16308926170349,22.336354517059327,9.21780926170349Q22.41824451705933,9.27251926170349,22.509244517059326,9.310219261703491Q22.600234517059327,9.347909261703492,22.696834517059326,9.367119261703492Q22.793434517059325,9.38633926170349,22.891924517059326,9.38633926170349Q22.990414517059328,9.38633926170349,23.087014517059327,9.367119261703492Q23.183614517059326,9.347909261703492,23.274614517059327,9.310219261703491Q23.365604517059325,9.27251926170349,23.447494517059326,9.21780926170349Q23.529384517059327,9.16308926170349,23.599034517059327,9.093439261703491Q23.668674517059326,9.023799261703491,23.723394517059326,8.941909261703492Q23.778114517059326,8.860009261703492,23.815804517059327,8.769019261703491Q23.853494517059325,8.678029261703491,23.872714517059325,8.58142926170349Q23.891924517059326,8.484829261703492,23.891924517059326,8.38633926170349L23.891924517059326,8.385359261703492L23.891924517059326,1.7896592617034912Q23.891924517059326,1.6911678617034913,23.872714517059325,1.5945692617034912Q23.853494517059325,1.4979702617034913,23.815804517059327,1.406976261703491Q23.778114517059326,1.3159812617034912,23.723394517059326,1.2340892617034913Q23.668674517059326,1.1521962617034913,23.599034517059327,1.082552261703491Q23.529384517059327,1.0129082617034912,23.447494517059326,0.9581892617034912Q23.365604517059325,0.9034712617034912,23.274614517059327,0.8657802617034912Q23.183614517059326,0.8280892617034912,23.087014517059327,0.8088742617034912Q22.990414517059328,0.7896592617034912,22.891924517059326,0.7896592617034912Q22.634204517059327,0.7896592617034912,22.408584517059325,0.9142262617034912L16.689934517059328,4.071579261703491Q16.572550517059327,4.136389261703491,16.476386517059325,4.229839261703491Q16.380222517059327,4.323279261703491,16.312071517059326,4.438759261703491Q16.243920517059326,4.554229261703491,16.208597517059324,4.683579261703491Q16.173274517059326,4.812929261703491,16.173274517059326,4.947019261703492L16.173274517059326,8.38633926170349Q16.173274517059326,8.484829261703492,16.192489517059325,8.58142926170349Q16.211704517059324,8.678029261703491,16.249395517059327,8.769019261703491Q16.287086517059326,8.860009261703492,16.341804517059327,8.941909261703492Q16.396523517059325,9.023799261703491,16.466167517059326,9.093439261703491Q16.535811517059326,9.16308926170349,16.617704517059327,9.21780926170349Q16.699596517059327,9.27251926170349,16.790591517059326,9.310219261703491Q16.881585517059325,9.347909261703492,16.978184517059326,9.367119261703492Q17.074783117059326,9.38633926170349,17.173274517059326,9.38633926170349Q17.271765917059327,9.38633926170349,17.368364517059327,9.367119261703492Q17.464963517059328,9.347909261703492,17.555957517059326,9.310219261703491Q17.646952517059326,9.27251926170349,17.728844517059326,9.21780926170349Q17.810737517059327,9.16308926170349,17.880381517059327,9.093439261703491Q17.950025517059327,9.023799261703491,18.004744517059326,8.941909261703492Q18.059462517059327,8.860009261703492,18.097153517059326,8.769019261703491Q18.134844517059328,8.678029261703491,18.154059517059327,8.58142926170349Q18.173274517059326,8.484829261703492,18.173274517059326,8.38633926170349L18.173274517059326,5.537189261703491L21.891924517059326,3.484069261703491Z" fill-rule="evenodd" fill="#FFFFFF" fill-opacity="1"/></g><g transform="matrix(1,0,0,-1,0,29.966025829315186)"><path d="M21.891924517059326,16.677422914657594L21.891924517059326,21.579692914657592Q21.891924517059326,21.678182914657594,21.911144517059327,21.774782914657592Q21.930354517059328,21.871382914657595,21.968044517059326,21.962372914657593Q22.005734517059327,22.053362914657594,22.060454517059327,22.135262914657595Q22.115174517059327,22.217152914657593,22.184824517059326,22.286792914657592Q22.254464517059326,22.356442914657592,22.336354517059327,22.41116291465759Q22.41824451705933,22.46587291465759,22.509244517059326,22.503572914657592Q22.600234517059327,22.541262914657594,22.696834517059326,22.560472914657595Q22.793434517059325,22.579692914657592,22.891924517059326,22.579692914657592Q22.990414517059328,22.579692914657592,23.087014517059327,22.560472914657595Q23.183614517059326,22.541262914657594,23.274614517059327,22.503572914657592Q23.365604517059325,22.46587291465759,23.447494517059326,22.41116291465759Q23.529384517059327,22.356442914657592,23.599034517059327,22.286792914657592Q23.668674517059326,22.217152914657593,23.723394517059326,22.135262914657595Q23.778114517059326,22.053362914657594,23.815804517059327,21.962372914657593Q23.853494517059325,21.871382914657595,23.872714517059325,21.774782914657592Q23.891924517059326,21.678182914657594,23.891924517059326,21.579692914657592L23.891924517059326,21.578712914657594L23.891924517059326,14.983012914657593Q23.891924517059326,14.884521514657592,23.872714517059325,14.787922914657592Q23.853494517059325,14.691323914657593,23.815804517059327,14.600329914657593Q23.778114517059326,14.509334914657593,23.723394517059326,14.427442914657593Q23.668674517059326,14.345549914657592,23.599034517059327,14.275905914657592Q23.529384517059327,14.206261914657592,23.447494517059326,14.151542914657593Q23.365604517059325,14.096824914657592,23.274614517059327,14.059133914657593Q23.183614517059326,14.021442914657593,23.087014517059327,14.002227914657592Q22.990414517059328,13.983012914657593,22.891924517059326,13.983012914657593Q22.634204517059327,13.983012914657593,22.408584517059325,14.107579914657594L16.689934517059328,17.264932914657592Q16.572550517059327,17.329742914657594,16.476386517059325,17.42319291465759Q16.380222517059327,17.516632914657592,16.312071517059326,17.632112914657593Q16.243920517059326,17.747582914657592,16.208597517059324,17.876932914657594Q16.173274517059326,18.006282914657593,16.173274517059326,18.140372914657593L16.173274517059326,21.579692914657592Q16.173274517059326,21.678182914657594,16.192489517059325,21.774782914657592Q16.211704517059324,21.871382914657595,16.249395517059327,21.962372914657593Q16.287086517059326,22.053362914657594,16.341804517059327,22.135262914657595Q16.396523517059325,22.217152914657593,16.466167517059326,22.286792914657592Q16.535811517059326,22.356442914657592,16.617704517059327,22.41116291465759Q16.699596517059327,22.46587291465759,16.790591517059326,22.503572914657592Q16.881585517059325,22.541262914657594,16.978184517059326,22.560472914657595Q17.074783117059326,22.579692914657592,17.173274517059326,22.579692914657592Q17.271765917059327,22.579692914657592,17.368364517059327,22.560472914657595Q17.464963517059328,22.541262914657594,17.555957517059326,22.503572914657592Q17.646952517059326,22.46587291465759,17.728844517059326,22.41116291465759Q17.810737517059327,22.356442914657592,17.880381517059327,22.286792914657592Q17.950025517059327,22.217152914657593,18.004744517059326,22.135262914657595Q18.059462517059327,22.053362914657594,18.097153517059326,21.962372914657593Q18.134844517059328,21.871382914657595,18.154059517059327,21.774782914657592Q18.173274517059326,21.678182914657594,18.173274517059326,21.579692914657592L18.173274517059326,18.730542914657594L21.891924517059326,16.677422914657594Z" fill-rule="evenodd" fill="#FFFFFF" fill-opacity="1"/></g></g><g><path d="M10.418293952941895,11.684667674942016L10.418293952941895,5.087997674942017Q10.418293952941895,4.989506274942016,10.437508952941894,4.892907674942016Q10.456723952941894,4.796308674942017,10.494414952941895,4.7053146749420165Q10.532105952941894,4.614319674942017,10.586823952941895,4.532427674942016Q10.641542952941894,4.450534674942016,10.711186952941894,4.380890674942017Q10.780830952941894,4.311246674942017,10.862723952941895,4.256527674942016Q10.944615952941895,4.201809674942017,11.035610952941894,4.164118674942016Q11.126604952941895,4.126427674942017,11.223203952941894,4.107212674942017Q11.319802552941894,4.087997674942017,11.418293952941895,4.087997674942017L15.482563952941895,4.087997674942017Q15.581053952941893,4.087997674942017,15.677653952941895,4.107212674942017Q15.774253952941894,4.126427674942017,15.865253952941895,4.164118674942016Q15.956243952941895,4.201809674942017,16.038133952941894,4.256527674942016Q16.120033952941895,4.311246674942017,16.189673952941895,4.380890674942017Q16.259313952941895,4.450534674942016,16.314033952941895,4.532427674942016Q16.368753952941894,4.614319674942017,16.406443952941896,4.7053146749420165Q16.444133952941893,4.796308674942017,16.463353952941894,4.892907674942016Q16.482563952941895,4.989506274942016,16.482563952941895,5.087997674942017L16.482563952941895,11.684667674942016Q16.482563952941895,11.783157674942016,16.463353952941894,11.879757674942017Q16.444133952941893,11.976357674942015,16.406443952941896,12.067347674942017Q16.368753952941894,12.158347674942018,16.314033952941895,12.240237674942016Q16.259313952941895,12.322127674942017,16.189673952941895,12.391777674942016Q16.120033952941895,12.461417674942016,16.038133952941894,12.516137674942016Q15.956243952941895,12.570857674942015,15.865253952941895,12.608547674942017Q15.774253952941894,12.646237674942016,15.677653952941895,12.665447674942016Q15.581053952941893,12.684667674942016,15.482563952941895,12.684667674942016L11.418293952941895,12.684667674942016Q11.319802552941894,12.684667674942016,11.223203952941894,12.665447674942016Q11.126604952941895,12.646237674942016,11.035610952941894,12.608547674942017Q10.944615952941895,12.570857674942015,10.862723952941895,12.516137674942016Q10.780830952941894,12.461417674942016,10.711186952941894,12.391777674942016Q10.641542952941894,12.322127674942017,10.586823952941895,12.240237674942016Q10.532105952941894,12.158347674942018,10.494414952941895,12.067347674942017Q10.456723952941894,11.976357674942015,10.437508952941894,11.879757674942017Q10.418293952941895,11.783157674942016,10.418293952941895,11.684667674942016ZM12.418293952941895,6.087997674942017L12.418293952941895,10.684667674942016L14.482563952941895,10.684667674942016L14.482563952941895,6.087997674942017L12.418293952941895,6.087997674942017Z" fill="#FFFFFF" fill-opacity="1"/></g></g><g><g><g><path d="M22.282547249755858,13.358282015441894Q22.17938724975586,13.307427015441895,22.06738724975586,13.281317015441894Q21.95537724975586,13.255208015441895,21.840367249755857,13.255208015441895Q21.72535724975586,13.255208015441895,21.61334724975586,13.281317015441894Q21.50133724975586,13.307427015441895,21.39818724975586,13.358282015441894L16.13865524975586,15.951218015441894Q15.96024624975586,16.039168015441895,15.82907624975586,16.188708015441893Q15.69790624975586,16.338238015441895,15.63394524975586,16.526588015441895Q15.56998724975586,16.714938015441895,15.58297024975586,16.913428015441895Q15.59595624975586,17.111908015441895,15.683911249755859,17.290318015441894Q15.75694324975586,17.438458015441896,15.873730249755859,17.555248015441894Q15.99051724975586,17.672038015441895,16.13865524975586,17.745068015441895L21.39818724975586,20.337998015441894Q21.50133724975586,20.388848015441894,21.61334724975586,20.414958015441893Q21.72535724975586,20.441068015441893,21.840367249755857,20.441068015441893Q21.95537724975586,20.441068015441893,22.06738724975586,20.414958015441893Q22.17938724975586,20.388848015441894,22.282547249755858,20.337998015441894L27.542037249755857,17.745068015441895Q27.630437249755857,17.701518015441895,27.70853724975586,17.641568015441894Q27.78673724975586,17.581618015441894,27.85163724975586,17.507578015441894Q27.91663724975586,17.433528015441894,27.965837249755857,17.348238015441893Q28.01513724975586,17.262948015441893,28.046737249755857,17.169688015441896Q28.078437249755858,17.076428015441895,28.09133724975586,16.978788015441893Q28.10413724975586,16.881138015441895,28.09773724975586,16.782858015441896Q28.09133724975586,16.684578015441893,28.06583724975586,16.589438015441893Q28.040337249755858,16.494298015441895,27.99683724975586,16.405958015441893Q27.92373724975586,16.257818015441895,27.807037249755858,16.141028015441893Q27.69023724975586,16.024248015441895,27.542037249755857,15.951218015441894L22.282547249755858,13.358282015441894ZM21.840367249755857,15.370128015441894L18.84234724975586,16.848138015441894L21.840367249755857,18.326148015441895L24.838377249755858,16.848138015441894L21.840367249755857,15.370128015441894Z" fill-rule="evenodd" fill="#FFFFFF" fill-opacity="1"/></g><g><path d="M16.138656249755858,24.580986200180053L21.39818724975586,27.173946200180055Q21.60725724975586,27.276946200180056,21.840367249755857,27.276946200180056Q21.93885724975586,27.276946200180056,22.035457249755858,27.25774620018005Q22.13205724975586,27.238546200180053,22.223047249755858,27.200846200180052Q22.31403724975586,27.16314620018005,22.39593724975586,27.108446200180055Q22.477827249755858,27.053746200180054,22.54746724975586,26.984046200180053Q22.617117249755857,26.914446200180052,22.67183724975586,26.832556200180054Q22.72654724975586,26.750656200180053,22.76424724975586,26.659666200180055Q22.80193724975586,26.568676200180054,22.82114724975586,26.472076200180055Q22.840367249755857,26.375476200180053,22.840367249755857,26.276986200180055L22.840367249755857,19.514736200180053Q22.840367249755857,19.376166200180055,22.80268724975586,19.242816200180055Q22.76500724975586,19.109456200180055,22.69247724975586,18.991386200180052Q22.61995724975586,18.873306200180053,22.51805724975586,18.779396200180052Q22.41615724975586,18.685486200180055,22.29256724975586,18.622816200180054L17.03303924975586,15.956231200180053Q16.81985524975586,15.848146200180054,16.58083724975586,15.848146200180054Q16.48234584975586,15.848146200180054,16.38574724975586,15.867361200180053Q16.289148249755858,15.886576200180054,16.19815424975586,15.924267200180054Q16.10715924975586,15.961958200180053,16.02526724975586,16.016676200180054Q15.943374249755859,16.071395200180053,15.873730249755859,16.141039200180053Q15.804086249755859,16.210683200180053,15.74936724975586,16.292576200180054Q15.694649249755859,16.374468200180054,15.65695824975586,16.465463200180054Q15.61926724975586,16.556457200180052,15.600052249755858,16.653056200180053Q15.58083724975586,16.749654800180053,15.58083724975586,16.848146200180054L15.58083724975586,23.684056200180052Q15.58083724975586,23.824056200180053,15.61928324975586,23.958676200180054Q15.65773024975586,24.093296200180053,15.73166624975586,24.212176200180053Q15.80560324975586,24.331066200180054,15.909345249755859,24.425066200180055Q16.013086249755858,24.519076200180052,16.138656249755858,24.580986200180053ZM20.840367249755857,24.669066200180055L17.58083724975586,23.062136200180053L17.58083724975586,18.476326200180054L20.840367249755857,20.128916200180054L20.840367249755857,24.669066200180055Z" fill-rule="evenodd" fill="#FFFFFF" fill-opacity="1"/></g><g transform="matrix(-1,0,0,1,54.19978141784668,0)"><path d="M26.65770970892334,24.580986200180053L31.91724070892334,27.173946200180055Q32.12631070892334,27.276946200180056,32.35942070892334,27.276946200180056Q32.457910708923336,27.276946200180056,32.55451070892334,27.25774620018005Q32.65111070892334,27.238546200180053,32.74210070892334,27.200846200180052Q32.833090708923336,27.16314620018005,32.91499070892334,27.108446200180055Q32.99688070892334,27.053746200180054,33.06652070892334,26.984046200180053Q33.13617070892334,26.914446200180052,33.19089070892334,26.832556200180054Q33.24560070892334,26.750656200180053,33.28330070892334,26.659666200180055Q33.32099070892334,26.568676200180054,33.34020070892334,26.472076200180055Q33.35942070892334,26.375476200180053,33.35942070892334,26.276986200180055L33.35942070892334,19.514736200180053Q33.35942070892334,19.376166200180055,33.32174070892334,19.242816200180055Q33.28406070892334,19.109456200180055,33.21153070892334,18.991386200180052Q33.13901070892334,18.873306200180053,33.037110708923336,18.779396200180052Q32.93521070892334,18.685486200180055,32.81162070892334,18.622816200180054L27.55209270892334,15.956231200180053Q27.33890870892334,15.848146200180054,27.09989070892334,15.848146200180054Q27.00139930892334,15.848146200180054,26.90480070892334,15.867361200180053Q26.808201708923338,15.886576200180054,26.71720770892334,15.924267200180054Q26.62621270892334,15.961958200180053,26.54432070892334,16.016676200180054Q26.46242770892334,16.071395200180053,26.39278370892334,16.141039200180053Q26.32313970892334,16.210683200180053,26.26842070892334,16.292576200180054Q26.21370270892334,16.374468200180054,26.17601170892334,16.465463200180054Q26.138320708923338,16.556457200180052,26.11910570892334,16.653056200180053Q26.09989070892334,16.749654800180053,26.09989070892334,16.848146200180054L26.09989070892334,23.684056200180052Q26.09989070892334,23.824056200180053,26.13833670892334,23.958676200180054Q26.176783708923338,24.093296200180053,26.25071970892334,24.212176200180053Q26.32465670892334,24.331066200180054,26.42839870892334,24.425066200180055Q26.53213970892334,24.519076200180052,26.65770970892334,24.580986200180053ZM31.359420708923338,24.669066200180055L28.09989070892334,23.062136200180053L28.09989070892334,18.476326200180054L31.359420708923338,20.128916200180054L31.359420708923338,24.669066200180055Z" fill-rule="evenodd" fill="#FFFFFF" fill-opacity="1"/></g><g><path d="M22.282547249755858,20.19418089163208Q22.17938724975586,20.14332589163208,22.06738724975586,20.117215891632082Q21.95537724975586,20.09110689163208,21.840367249755857,20.09110689163208Q21.72535724975586,20.09110689163208,21.61334724975586,20.117215891632082Q21.50133724975586,20.14332589163208,21.39818724975586,20.19418089163208L16.13865524975586,22.78711689163208Q15.96024624975586,22.87506689163208,15.82907624975586,23.02460689163208Q15.69790624975586,23.17413689163208,15.63394524975586,23.36248689163208Q15.56998724975586,23.55083689163208,15.58297024975586,23.74932689163208Q15.59595624975586,23.94780689163208,15.683911249755859,24.12621689163208Q15.75694324975586,24.27435689163208,15.873730249755859,24.39114689163208Q15.99051724975586,24.50793689163208,16.13865524975586,24.58096689163208L21.39818724975586,27.17389689163208Q21.50133724975586,27.22474689163208,21.61334724975586,27.25085689163208Q21.72535724975586,27.276966891632078,21.840367249755857,27.276966891632078Q21.95537724975586,27.276966891632078,22.06738724975586,27.25085689163208Q22.17938724975586,27.22474689163208,22.282547249755858,27.17389689163208L27.542037249755857,24.58096689163208Q27.630437249755857,24.53741689163208,27.70853724975586,24.47746689163208Q27.78673724975586,24.41751689163208,27.85163724975586,24.34347689163208Q27.91663724975586,24.26942689163208,27.965837249755857,24.18413689163208Q28.01513724975586,24.09884689163208,28.046737249755857,24.00558689163208Q28.078437249755858,23.91232689163208,28.09133724975586,23.81468689163208Q28.10413724975586,23.71703689163208,28.09773724975586,23.61875689163208Q28.09133724975586,23.52047689163208,28.06583724975586,23.425336891632078Q28.040337249755858,23.33019689163208,27.99683724975586,23.24185689163208Q27.92373724975586,23.09371689163208,27.807037249755858,22.97692689163208Q27.69023724975586,22.86014689163208,27.542037249755857,22.78711689163208L22.282547249755858,20.19418089163208ZM21.840367249755857,22.20602689163208L18.84234724975586,23.68403689163208L21.840367249755857,25.16204689163208L24.838377249755858,23.68403689163208L21.840367249755857,22.20602689163208Z" fill-rule="evenodd" fill="#FFFFFF" fill-opacity="1"/></g><g><path d="M20.8403639793396,19.441084384918213Q20.8403639793396,19.342592984918213,20.8595789793396,19.245994384918212Q20.878793979339598,19.14939538491821,20.9164849793396,19.058401384918213Q20.9541759793396,18.967406384918213,21.0088939793396,18.885514384918213Q21.0636129793396,18.803621384918213,21.1332569793396,18.733977384918212Q21.2029009793396,18.664333384918212,21.2847939793396,18.609614384918213Q21.3666859793396,18.554896384918212,21.4576809793396,18.517205384918213Q21.548674979339598,18.47951438491821,21.6452739793396,18.460299384918212Q21.7418725793396,18.441084384918213,21.8403639793396,18.441084384918213Q21.9388553793396,18.441084384918213,22.0354539793396,18.460299384918212Q22.1320529793396,18.47951438491821,22.2230469793396,18.517205384918213Q22.3140419793396,18.554896384918212,22.3959339793396,18.609614384918213Q22.4778269793396,18.664333384918212,22.5474709793396,18.733977384918212Q22.6171149793396,18.803621384918213,22.6718339793396,18.885514384918213Q22.7265519793396,18.967406384918213,22.7642429793396,19.058401384918213Q22.8019339793396,19.14939538491821,22.8211489793396,19.245994384918212Q22.8403639793396,19.342592984918213,22.8403639793396,19.441084384918213L22.8403639793396,26.27699438491821Q22.8403639793396,26.375484384918213,22.8211489793396,26.47208438491821Q22.8019339793396,26.568684384918214,22.7642429793396,26.659684384918215Q22.7265519793396,26.750674384918213,22.6718339793396,26.832564384918214Q22.6171149793396,26.914454384918212,22.5474709793396,26.98410438491821Q22.4778269793396,27.05374438491821,22.3959339793396,27.108464384918214Q22.3140419793396,27.163184384918214,22.2230469793396,27.20087438491821Q22.1320529793396,27.238564384918213,22.0354539793396,27.257784384918214Q21.9388553793396,27.27699438491821,21.8403639793396,27.27699438491821Q21.7418725793396,27.27699438491821,21.6452739793396,27.257784384918214Q21.548674979339598,27.238564384918213,21.4576809793396,27.20087438491821Q21.3666859793396,27.163184384918214,21.2847939793396,27.108464384918214Q21.2029009793396,27.05374438491821,21.1332569793396,26.98410438491821Q21.0636129793396,26.914454384918212,21.0088939793396,26.832564384918214Q20.9541759793396,26.750674384918213,20.9164849793396,26.659684384918215Q20.878793979339598,26.568684384918214,20.8595789793396,26.47208438491821Q20.8403639793396,26.375484384918213,20.8403639793396,26.27699438491821L20.8403639793396,19.441084384918213Z" fill-rule="evenodd" fill="#FFFFFF" fill-opacity="1"/></g></g></g></g><script xmlns=""/></svg>