<svg xmlns="http://www.w3.org/2000/svg" xmlns:xlink="http://www.w3.org/1999/xlink" fill="none" version="1.1" width="32" height="32" viewBox="0 0 32 32"><g><g/><g><g/></g><g><path d="M22.74724609375,7.0780932891845705Q19.958346093750002,4.10179328918457,15.99993609375,4.10179328918457Q12.04152609375,4.10179328918457,9.25261609375,7.0780932891845705Q6.48974609375,10.02661328918457,6.48974609375,14.18382328918457Q6.48974609375,19.62829328918457,15.310386093750001,28.02649328918457L15.99993609375,28.68309328918457L16.68949609375,28.02649328918457Q25.51014609375,19.62829328918457,25.51014609375,14.18382328918457Q25.51014609375,10.02661328918457,22.74724609375,7.0780932891845705ZM10.71202609375,8.445613289184571Q12.90827609375,6.10179228918457,15.99993609375,6.10179228918457Q19.09164609375,6.10179328918457,21.287846093749998,8.44562328918457Q23.51014609375,10.81722328918457,23.51014609375,14.18382328918457Q23.51014609375,18.573893289184568,15.99994609375,25.91309328918457Q8.48974609375,18.573893289184568,8.48974609375,14.18382328918457Q8.48974609375,10.81722328918457,10.71202609375,8.445613289184571Z" fill-rule="evenodd" fill="#FFFFFF" fill-opacity="1"/></g><g><ellipse cx="16.000000476837158" cy="13.675781488418579" rx="3.1111111640930176" ry="3.1111109256744385" fill-opacity="0" stroke-opacity="1" stroke="#FFFFFF" fill="none" stroke-width="2"/></g></g></svg>