<svg xmlns="http://www.w3.org/2000/svg" xmlns:xlink="http://www.w3.org/1999/xlink" fill="none" version="1.1" width="182.15234375" height="182.15234375" viewBox="0 0 182.15234375 182.15234375"><g><g><g/><g><g><path d="M100.80867545593262,67.59266951370239L100.80867545593262,73.82986951370239L121.83089545593262,73.8301695137024L123.83089545593262,73.83026951370239C123.83089545593262,73.1609695137024,123.80869545593262,72.4939695137024,123.76449545593262,71.83026951370239C123.28309545593262,64.59356951370239,120.20179545593263,57.74676951370239,115.04849545593262,52.59354951370239C109.89659545593261,47.42191951370239,103.06989545593262,44.33915751370239,95.85479545593262,43.856471513702395C95.19108545593262,43.81206951370239,94.52408145593262,43.78966951370239,93.85479545593262,43.78966951370239L93.85479545593262,61.59266951370239L94.80867245593262,61.59266951370239C98.12238545593262,61.59266951370239,100.80867545593262,64.27896951370239,100.80867545593262,67.59266951370239ZM95.85479545593262,59.65396951370239Q98.50121545593262,59.97146951370239,100.46552545593262,61.93586951370239Q102.80867545593262,64.27896951370239,102.80867545593262,67.59266951370239L102.80867545593262,71.82986951370239L121.76869545593262,71.8301695137024Q121.11669545593261,61.4901695137024,113.63429545593262,54.00776951370239Q106.16289545593261,46.50778951370239,95.85479545593262,45.852419513702394L95.85479545593262,59.65396951370239Z" fill-rule="evenodd" fill="#FFFFFF" fill-opacity="1"/></g><g transform="matrix(-1,0,0,1,175.3447265625,0)"><path d="M87.67236328125,61.59266951370239L88.62624028125,61.59266951370239C91.93995328125,61.59266951370239,94.62624328125,64.27896951370239,94.62624328125,67.59266951370239L94.62624328125,73.82986951370239L117.64846328125,73.83026951370239C117.64846328125,65.8637695137024,114.49196328125001,58.21946951370239,108.86606328125,52.59354951370239C103.24016328125,46.94618951370239,95.61733328125,43.78966951370239,87.67236328125,43.78966951370239L87.67236328125,61.59266951370239Z" fill="#FFFFFF" fill-opacity="1"/></g><g transform="matrix(0,1,-1,0,162.68114709854126,-30.596978664398193)"><rect x="97.63906288146973" y="67.04208421707153" width="23.033966064453125" height="9.126206398010254" rx="1" fill-opacity="0" stroke-opacity="1" stroke="#FFFFFF" fill="none" stroke-width="2"/></g><g><path d="M81.34054125665855,78.5590672492981L57.69734125665855,78.5590672492981L57.69734125665855,104.9837672492981C57.69734125665855,123.4182672492981,72.64144125665855,138.3624672492981,91.07594125665855,138.3624672492981C109.51044125665854,138.3624672492981,124.45454125665854,123.4182672492981,124.45454125665854,104.9837672492981L124.45454125665854,78.5590672492981L100.81134125665855,78.5590672492981L100.81134125665855,93.2483672492981C100.81134125665855,94.3529672492981,99.91594125665856,95.2483672492981,98.81134125665855,95.2483672492981L83.34054125665855,95.2483672492981C82.23594125665855,95.2483672492981,81.34054125665855,94.3529672492981,81.34054125665855,93.2483672492981L81.34054125665855,78.5590672492981ZM59.69734125665855,104.9837672492981L59.69734125665855,80.5590672492981L79.34054125665855,80.5590672492981L79.34054125665855,93.2483672492981Q79.34054125665855,94.90526724929809,80.51214125665855,96.0767672492981Q81.68364125665855,97.2483672492981,83.34054125665855,97.2483672492981L98.81144125665855,97.2483672492981Q100.46824125665854,97.2483672492981,101.63984125665854,96.0767672492981Q102.81144125665855,94.90526724929809,102.81144125665855,93.2483672492981L102.81144125665855,80.5590672492981L122.45454125665854,80.5590672492981L122.45454125665854,104.9837672492981Q122.45454125665854,117.9812672492981,113.26404125665854,127.17186724929809Q104.07344125665855,136.3624672492981,91.07594125665855,136.3624672492981Q78.07854125665855,136.3624672492981,68.88794125665855,127.17186724929809Q59.69734125665855,117.9812672492981,59.69734125665855,104.9837672492981Z" fill-rule="evenodd" fill="#FFFFFF" fill-opacity="1"/></g></g></g><g transform="matrix(0,-1,-1,0,118.9899673461914,118.9899673461914)"><path d="M112.16155471191406,25.914512634277344L102.84785471191407,16.600812634277343Q102.77835471191406,16.53131263427734,102.71605471191407,16.455412634277344Q102.65365471191406,16.379412634277344,102.59905471191406,16.297712634277346Q102.54455471191406,16.216012634277345,102.49815471191407,16.129412634277344Q102.45185471191407,16.042712634277343,102.41425471191407,15.951912634277344Q102.37665471191406,15.861212634277344,102.34815471191406,15.767212634277344Q102.31965471191407,15.673112634277343,102.30045471191406,15.576812634277344Q102.28125471191406,15.480412634277343,102.27165471191407,15.382612634277343Q102.26205471191406,15.284812634277344,102.26205471191406,15.186612634277344Q102.26205471191406,15.088312634277344,102.27165471191407,14.990512634277344Q102.28125471191406,14.892812634277345,102.30045471191406,14.796412634277344Q102.31965471191407,14.700012634277345,102.34815471191406,14.606012634277343Q102.37665471191406,14.512012634277344,102.41425471191407,14.421212634277344Q102.45185471191407,14.330412634277344,102.49815471191407,14.243812634277344Q102.54455471191406,14.157112634277343,102.59905471191406,14.075412634277344Q102.65365471191406,13.993712634277344,102.71605471191407,13.917812634277343Q102.77835471191406,13.841812634277344,102.84785471191407,13.772412634277345Q102.91735471191406,13.702912634277343,102.99325471191406,13.640612634277344Q103.06925471191406,13.578212634277344,103.15085471191406,13.523612634277344Q103.23255471191406,13.469112634277344,103.31925471191406,13.422712634277344Q103.40585471191406,13.376412634277344,103.49665471191406,13.338812634277344Q103.58745471191406,13.301212634277343,103.68145471191406,13.272712634277344Q103.77545471191407,13.244212634277345,103.87185471191407,13.225012634277343Q103.96825471191406,13.205812634277343,104.06605471191406,13.196212634277344Q104.16375471191407,13.186612634277344,104.26205471191406,13.186612634277344Q104.36025471191407,13.186612634277344,104.45805471191406,13.196212634277344Q104.55585471191407,13.205812634277343,104.65225471191407,13.225012634277343Q104.74855471191407,13.244212634277345,104.84265471191407,13.272712634277344Q104.93665471191406,13.301212634277343,105.02745471191406,13.338812634277344Q105.11815471191406,13.376412634277344,105.20485471191407,13.422712634277344Q105.29145471191406,13.469112634277344,105.37315471191407,13.523612634277344Q105.45485471191407,13.578212634277344,105.53085471191406,13.640612634277344Q105.60675471191406,13.702912634277343,105.67625471191405,13.772412634277345L118.40415471191406,26.500302634277343Q118.47365471191407,26.569772634277342,118.53595471191406,26.645722634277345Q118.59835471191406,26.721672634277343,118.65285471191406,26.803372634277345Q118.70745471191407,26.885062634277343,118.75385471191406,26.971718634277345Q118.80015471191406,27.058370634277345,118.83775471191406,27.149145634277343Q118.87535471191407,27.239920634277343,118.90385471191406,27.333942634277342Q118.93235471191406,27.427965634277342,118.95155471191407,27.524331634277345Q118.97075471191405,27.620697634277345,118.98035471191406,27.718478634277343Q118.98995471191407,27.816258834277345,118.98995471191407,27.914512494615344Q118.98995471191407,28.012766134277342,118.98035471191406,28.110546634277345Q118.97065471191407,28.208327634277342,118.95155471191407,28.304692634277345Q118.93235471191406,28.401058634277344,118.90385471191406,28.495081634277344Q118.87535471191407,28.589104634277344,118.83775471191406,28.679879634277345Q118.80015471191406,28.770653634277345,118.75385471191406,28.857305634277346Q118.70745471191407,28.943962634277344,118.65285471191406,29.025652634277343Q118.59835471191406,29.107352634277344,118.53595471191406,29.183302634277343Q118.47365471191407,29.259252634277345,118.40415471191406,29.328722634277344L105.67625471191405,42.05661263427734Q105.60675471191406,42.12611263427735,105.53085471191406,42.18841263427734Q105.45485471191407,42.250812634277345,105.37315471191407,42.305412634277346Q105.29145471191406,42.35991263427734,105.20485471191407,42.40631263427734Q105.11815471191406,42.452612634277344,105.02745471191406,42.49021263427734Q104.93665471191406,42.527812634277346,104.84265471191407,42.55631263427735Q104.74855471191407,42.58481263427734,104.65225471191407,42.604012634277346Q104.55585471191407,42.623212634277344,104.45805471191406,42.63281263427734Q104.36025471191407,42.64241263427734,104.26205471191406,42.64241263427734Q104.16375471191407,42.64241263427734,104.06605471191406,42.63281263427734Q103.96825471191406,42.623212634277344,103.87185471191407,42.604012634277346Q103.77545471191407,42.58481263427734,103.68145471191406,42.55631263427735Q103.58745471191406,42.527812634277346,103.49665471191406,42.49021263427734Q103.40585471191406,42.452612634277344,103.31925471191406,42.40631263427734Q103.23255471191406,42.35991263427734,103.15085471191406,42.305412634277346Q103.06925471191406,42.250812634277345,102.99325471191406,42.18841263427734Q102.91735471191406,42.12611263427735,102.84785471191407,42.05661263427734Q102.77835471191406,41.98721263427734,102.71605471191407,41.91121263427735Q102.65365471191406,41.835312634277344,102.59905471191406,41.753612634277346Q102.54455471191406,41.67191263427735,102.49815471191407,41.58521263427734Q102.45185471191407,41.49861263427734,102.41425471191407,41.40781263427734Q102.37665471191406,41.31701263427735,102.34815471191406,41.223012634277346Q102.31965471191407,41.129012634277345,102.30045471191406,41.03261263427734Q102.28125471191406,40.93621263427734,102.27165471191407,40.83851263427734Q102.26205471191406,40.740712634277344,102.26205471191406,40.64241263427734Q102.26205471191406,40.54421263427734,102.27165471191407,40.446412634277344Q102.28125471191406,40.348612634277345,102.30045471191406,40.25221263427734Q102.31965471191407,40.15591263427734,102.34815471191406,40.061812634277345Q102.37665471191406,39.967812634277344,102.41425471191407,39.877112634277346Q102.45185471191407,39.786312634277344,102.49815471191407,39.699612634277344Q102.54455471191406,39.61301263427734,102.59905471191406,39.53131263427734Q102.65365471191406,39.449612634277344,102.71605471191407,39.37361263427734Q102.77835471191406,39.297712634277346,102.84785471191407,39.22821263427734L112.16155471191406,29.914512634277344L91.07545471191406,29.914512634277344Q90.97720101191406,29.914512634277344,90.87942071191407,29.904882634277342Q90.78163971191407,29.895252634277345,90.68527371191406,29.876082634277346Q90.58890871191406,29.856912634277343,90.49488571191407,29.828392634277343Q90.40086271191406,29.799872634277342,90.31008771191406,29.762272634277345Q90.21931371191407,29.724672634277344,90.13266171191407,29.678352634277346Q90.04600471191407,29.632042634277344,89.96431471191406,29.577452634277343Q89.88261471191406,29.522862634277345,89.80666471191407,29.460532634277342Q89.73071471191406,29.398202634277343,89.66124471191407,29.328722634277344Q89.59176471191407,29.259252634277345,89.52943471191406,29.183302634277343Q89.46710471191406,29.107352634277344,89.41251471191406,29.025652634277343Q89.35792471191407,28.943962634277344,89.31161471191406,28.857305634277346Q89.26529471191407,28.770653634277345,89.22769471191407,28.679879634277345Q89.19009471191406,28.589104634277344,89.16157471191406,28.495081634277344Q89.13305471191406,28.401058634277344,89.11388471191407,28.304693634277342Q89.09471471191407,28.208327634277342,89.08508471191406,28.110546634277345Q89.07545471191406,28.012766334277345,89.07545471191406,27.914512634277344Q89.07545471191406,27.816258934277343,89.08508471191406,27.718478634277343Q89.09471471191407,27.620697634277345,89.11388471191407,27.524331634277345Q89.13305471191406,27.427966634277343,89.16157471191406,27.333943634277343Q89.19009471191406,27.239920634277343,89.22769471191407,27.149145634277343Q89.26529471191407,27.058371634277343,89.31161471191406,26.971719634277342Q89.35792471191407,26.885062634277343,89.41251471191406,26.803372634277345Q89.46710471191406,26.721672634277343,89.52943471191406,26.645722634277345Q89.59176471191407,26.569772634277342,89.66124471191407,26.500302634277343Q89.73071471191406,26.430822634277344,89.80666471191407,26.368492634277345Q89.88261471191406,26.306162634277342,89.96431471191406,26.251572634277345Q90.04600471191407,26.196982634277344,90.13266171191407,26.150672634277342Q90.21931371191407,26.104352634277344,90.31008771191406,26.066752634277343Q90.40086271191406,26.029152634277345,90.49488571191407,26.000632634277345Q90.58890871191406,25.972112634277345,90.68527371191406,25.952942634277342Q90.78163971191407,25.933772634277343,90.87942071191407,25.924142634277345Q90.97720101191406,25.914512634277344,91.07545471191406,25.914512634277344L112.16155471191406,25.914512634277344Z" fill-rule="evenodd" fill="#FFFFFF" fill-opacity="1"/></g><g transform="matrix(0,1,-1,0,245.31304931640625,63.162139892578125)"><path d="M112.16155471191406,152.2375946044922L102.84785471191407,142.92389460449218Q102.77835471191406,142.8543946044922,102.71605471191407,142.77849460449218Q102.65365471191406,142.7024946044922,102.59905471191406,142.62079460449218Q102.54455471191406,142.5390946044922,102.49815471191407,142.4524946044922Q102.45185471191407,142.36579460449218,102.41425471191407,142.27499460449218Q102.37665471191406,142.18429460449218,102.34815471191406,142.0902946044922Q102.31965471191407,141.9961946044922,102.30045471191406,141.89989460449218Q102.28125471191406,141.8034946044922,102.27165471191407,141.70569460449218Q102.26205471191406,141.60789460449217,102.26205471191406,141.50969460449218Q102.26205471191406,141.4113946044922,102.27165471191407,141.31359460449218Q102.28125471191406,141.21589460449218,102.30045471191406,141.1194946044922Q102.31965471191407,141.0230946044922,102.34815471191406,140.92909460449218Q102.37665471191406,140.83509460449218,102.41425471191407,140.74429460449218Q102.45185471191407,140.65349460449218,102.49815471191407,140.56689460449218Q102.54455471191406,140.4801946044922,102.59905471191406,140.39849460449219Q102.65365471191406,140.3167946044922,102.71605471191407,140.24089460449218Q102.77835471191406,140.1648946044922,102.84785471191407,140.0954946044922Q102.91735471191406,140.02599460449218,102.99325471191406,139.9636946044922Q103.06925471191406,139.9012946044922,103.15085471191406,139.8466946044922Q103.23255471191406,139.79219460449218,103.31925471191406,139.74579460449218Q103.40585471191406,139.6994946044922,103.49665471191406,139.66189460449218Q103.58745471191406,139.62429460449218,103.68145471191406,139.5957946044922Q103.77545471191407,139.5672946044922,103.87185471191407,139.54809460449218Q103.96825471191406,139.5288946044922,104.06605471191406,139.5192946044922Q104.16375471191407,139.50969460449218,104.26205471191406,139.50969460449218Q104.36025471191407,139.50969460449218,104.45805471191406,139.5192946044922Q104.55585471191407,139.5288946044922,104.65225471191407,139.54809460449218Q104.74855471191407,139.5672946044922,104.84265471191407,139.5957946044922Q104.93665471191406,139.62429460449218,105.02745471191406,139.66189460449218Q105.11815471191406,139.6994946044922,105.20485471191407,139.74579460449218Q105.29145471191406,139.79219460449218,105.37315471191407,139.8466946044922Q105.45485471191407,139.9012946044922,105.53085471191406,139.9636946044922Q105.60675471191406,140.02599460449218,105.67625471191405,140.0954946044922L118.40415471191406,152.8233846044922Q118.47365471191407,152.8928546044922,118.53595471191406,152.9688046044922Q118.59835471191406,153.0447546044922,118.65285471191406,153.12645460449218Q118.70745471191407,153.2081446044922,118.75385471191406,153.2948006044922Q118.80015471191406,153.38145260449218,118.83775471191406,153.4722276044922Q118.87535471191407,153.5630026044922,118.90385471191406,153.6570246044922Q118.93235471191406,153.7510476044922,118.95155471191407,153.84741360449217Q118.97075471191405,153.9437796044922,118.98035471191406,154.0415606044922Q118.98995471191407,154.13934080449218,118.98995471191407,154.23759446483018Q118.98995471191407,154.3358481044922,118.98035471191406,154.43362860449218Q118.97065471191407,154.53140960449218,118.95155471191407,154.62777460449217Q118.93235471191406,154.7241406044922,118.90385471191406,154.81816360449218Q118.87535471191407,154.91218660449218,118.83775471191406,155.00296160449219Q118.80015471191406,155.0937356044922,118.75385471191406,155.18038760449218Q118.70745471191407,155.26704460449218,118.65285471191406,155.3487346044922Q118.59835471191406,155.43043460449218,118.53595471191406,155.50638460449218Q118.47365471191407,155.5823346044922,118.40415471191406,155.65180460449218L105.67625471191405,168.3796946044922Q105.60675471191406,168.4491946044922,105.53085471191406,168.51149460449219Q105.45485471191407,168.57389460449218,105.37315471191407,168.62849460449218Q105.29145471191406,168.6829946044922,105.20485471191407,168.7293946044922Q105.11815471191406,168.77569460449217,105.02745471191406,168.8132946044922Q104.93665471191406,168.8508946044922,104.84265471191407,168.87939460449218Q104.74855471191407,168.90789460449218,104.65225471191407,168.9270946044922Q104.55585471191407,168.94629460449218,104.45805471191406,168.9558946044922Q104.36025471191407,168.9654946044922,104.26205471191406,168.9654946044922Q104.16375471191407,168.9654946044922,104.06605471191406,168.9558946044922Q103.96825471191406,168.94629460449218,103.87185471191407,168.9270946044922Q103.77545471191407,168.90789460449218,103.68145471191406,168.87939460449218Q103.58745471191406,168.8508946044922,103.49665471191406,168.8132946044922Q103.40585471191406,168.77569460449217,103.31925471191406,168.7293946044922Q103.23255471191406,168.6829946044922,103.15085471191406,168.62849460449218Q103.06925471191406,168.57389460449218,102.99325471191406,168.51149460449219Q102.91735471191406,168.4491946044922,102.84785471191407,168.3796946044922Q102.77835471191406,168.31029460449219,102.71605471191407,168.2342946044922Q102.65365471191406,168.15839460449217,102.59905471191406,168.0766946044922Q102.54455471191406,167.99499460449218,102.49815471191407,167.9082946044922Q102.45185471191407,167.8216946044922,102.41425471191407,167.7308946044922Q102.37665471191406,167.6400946044922,102.34815471191406,167.5460946044922Q102.31965471191407,167.45209460449217,102.30045471191406,167.3556946044922Q102.28125471191406,167.2592946044922,102.27165471191407,167.1615946044922Q102.26205471191406,167.0637946044922,102.26205471191406,166.9654946044922Q102.26205471191406,166.8672946044922,102.27165471191407,166.7694946044922Q102.28125471191406,166.6716946044922,102.30045471191406,166.5752946044922Q102.31965471191407,166.4789946044922,102.34815471191406,166.3848946044922Q102.37665471191406,166.2908946044922,102.41425471191407,166.2001946044922Q102.45185471191407,166.1093946044922,102.49815471191407,166.0226946044922Q102.54455471191406,165.93609460449218,102.59905471191406,165.8543946044922Q102.65365471191406,165.7726946044922,102.71605471191407,165.6966946044922Q102.77835471191406,165.62079460449218,102.84785471191407,165.5512946044922L112.16155471191406,156.2375946044922L91.07545471191406,156.2375946044922Q90.97720101191406,156.2375946044922,90.87942071191407,156.2279646044922Q90.78163971191407,156.21833460449218,90.68527371191406,156.19916460449218Q90.58890871191406,156.17999460449218,90.49488571191407,156.1514746044922Q90.40086271191406,156.12295460449218,90.31008771191406,156.08535460449218Q90.21931371191407,156.04775460449218,90.13266171191407,156.00143460449218Q90.04600471191407,155.9551246044922,89.96431471191406,155.90053460449218Q89.88261471191406,155.8459446044922,89.80666471191407,155.7836146044922Q89.73071471191406,155.72128460449218,89.66124471191407,155.65180460449218Q89.59176471191407,155.5823346044922,89.52943471191406,155.50638460449218Q89.46710471191406,155.43043460449218,89.41251471191406,155.3487346044922Q89.35792471191407,155.26704460449218,89.31161471191406,155.18038760449218Q89.26529471191407,155.0937356044922,89.22769471191407,155.00296160449219Q89.19009471191406,154.91218660449218,89.16157471191406,154.81816360449218Q89.13305471191406,154.7241406044922,89.11388471191407,154.6277756044922Q89.09471471191407,154.53140960449218,89.08508471191406,154.43362860449218Q89.07545471191406,154.33584830449217,89.07545471191406,154.2375946044922Q89.07545471191406,154.1393409044922,89.08508471191406,154.0415606044922Q89.09471471191407,153.9437796044922,89.11388471191407,153.84741360449217Q89.13305471191406,153.75104860449218,89.16157471191406,153.6570256044922Q89.19009471191406,153.5630026044922,89.22769471191407,153.4722276044922Q89.26529471191407,153.38145360449218,89.31161471191406,153.2948016044922Q89.35792471191407,153.2081446044922,89.41251471191406,153.12645460449218Q89.46710471191406,153.0447546044922,89.52943471191406,152.9688046044922Q89.59176471191407,152.8928546044922,89.66124471191407,152.8233846044922Q89.73071471191406,152.7539046044922,89.80666471191407,152.6915746044922Q89.88261471191406,152.6292446044922,89.96431471191406,152.5746546044922Q90.04600471191407,152.52006460449218,90.13266171191407,152.4737546044922Q90.21931371191407,152.4274346044922,90.31008771191406,152.3898346044922Q90.40086271191406,152.3522346044922,90.49488571191407,152.32371460449218Q90.58890871191406,152.2951946044922,90.68527371191406,152.2760246044922Q90.78163971191407,152.2568546044922,90.87942071191407,152.24722460449217Q90.97720101191406,152.2375946044922,91.07545471191406,152.2375946044922L112.16155471191406,152.2375946044922Z" fill-rule="evenodd" fill="#FFFFFF" fill-opacity="1"/></g><g transform="matrix(1,0,0,-1,0,182.1507110595703)"><path d="M175.32248916015624,89.07535552978516L166.00878916015625,79.76165552978516Q165.93928916015625,79.69215552978515,165.87698916015626,79.61625552978515Q165.81458916015626,79.54025552978516,165.75998916015624,79.45855552978516Q165.70548916015625,79.37685552978516,165.65908916015624,79.29025552978516Q165.61278916015624,79.20355552978515,165.57518916015624,79.11275552978516Q165.53758916015624,79.02205552978515,165.50908916015624,78.92805552978515Q165.48058916015626,78.83395552978516,165.46138916015624,78.73765552978516Q165.44218916015626,78.64125552978516,165.43258916015625,78.54345552978515Q165.42298916015625,78.44565552978516,165.42298916015625,78.34745552978515Q165.42298916015625,78.24915552978516,165.43258916015625,78.15135552978515Q165.44218916015626,78.05365552978516,165.46138916015624,77.95725552978516Q165.48058916015626,77.86085552978516,165.50908916015624,77.76685552978516Q165.53758916015624,77.67285552978515,165.57518916015624,77.58205552978515Q165.61278916015624,77.49125552978515,165.65908916015624,77.40465552978516Q165.70548916015625,77.31795552978515,165.75998916015624,77.23625552978515Q165.81458916015626,77.15455552978516,165.87698916015626,77.07865552978515Q165.93928916015625,77.00265552978516,166.00878916015625,76.93325552978516Q166.07828916015626,76.86375552978515,166.15418916015625,76.80145552978516Q166.23018916015624,76.73905552978516,166.31178916015625,76.68445552978515Q166.39348916015626,76.62995552978515,166.48018916015624,76.58355552978516Q166.56678916015625,76.53725552978516,166.65758916015625,76.49965552978516Q166.74838916015625,76.46205552978516,166.84238916015624,76.43355552978515Q166.93638916015624,76.40505552978516,167.03278916015626,76.38585552978516Q167.12918916015624,76.36665552978516,167.22698916015625,76.35705552978516Q167.32468916015625,76.34745552978515,167.42298916015625,76.34745552978515Q167.52118916015624,76.34745552978515,167.61898916015625,76.35705552978516Q167.71678916015625,76.36665552978516,167.81318916015624,76.38585552978516Q167.90948916015626,76.40505552978516,168.00358916015625,76.43355552978515Q168.09758916015625,76.46205552978516,168.18838916015625,76.49965552978516Q168.27908916015625,76.53725552978516,168.36578916015625,76.58355552978516Q168.45238916015626,76.62995552978515,168.53408916015624,76.68445552978515Q168.61578916015625,76.73905552978516,168.69178916015625,76.80145552978516Q168.76768916015624,76.86375552978515,168.83718916015624,76.93325552978516L181.56508916015625,89.66114552978516Q181.63458916015625,89.73061552978515,181.69688916015625,89.80656552978516Q181.75928916015624,89.88251552978515,181.81378916015626,89.96421552978515Q181.86838916015626,90.04590552978516,181.91478916015626,90.13256152978515Q181.96108916015623,90.21921352978515,181.99868916015626,90.30998852978516Q182.03628916015626,90.40076352978515,182.06478916015624,90.49478552978516Q182.09328916015625,90.58880852978515,182.11248916015626,90.68517452978516Q182.13168916015624,90.78154052978516,182.14128916015625,90.87932152978516Q182.15088916015625,90.97710172978516,182.15088916015625,91.07535539012315Q182.15088916015625,91.17360902978515,182.14128916015625,91.27138952978515Q182.13158916015624,91.36917052978515,182.11248916015626,91.46553552978516Q182.09328916015625,91.56190152978516,182.06478916015624,91.65592452978515Q182.03628916015626,91.74994752978516,181.99868916015626,91.84072252978515Q181.96108916015623,91.93149652978515,181.91478916015626,92.01814852978515Q181.86838916015626,92.10480552978515,181.81378916015626,92.18649552978516Q181.75928916015624,92.26819552978516,181.69688916015625,92.34414552978515Q181.63458916015625,92.42009552978516,181.56508916015625,92.48956552978515L168.83718916015624,105.21745552978516Q168.76768916015624,105.28695552978516,168.69178916015625,105.34925552978515Q168.61578916015625,105.41165552978515,168.53408916015624,105.46625552978516Q168.45238916015626,105.52075552978516,168.36578916015625,105.56715552978515Q168.27908916015625,105.61345552978516,168.18838916015625,105.65105552978515Q168.09758916015625,105.68865552978515,168.00358916015625,105.71715552978516Q167.90948916015626,105.74565552978515,167.81318916015624,105.76485552978515Q167.71678916015625,105.78405552978515,167.61898916015625,105.79365552978516Q167.52118916015624,105.80325552978516,167.42298916015625,105.80325552978516Q167.32468916015625,105.80325552978516,167.22698916015625,105.79365552978516Q167.12918916015624,105.78405552978515,167.03278916015626,105.76485552978515Q166.93638916015624,105.74565552978515,166.84238916015624,105.71715552978516Q166.74838916015625,105.68865552978515,166.65758916015625,105.65105552978515Q166.56678916015625,105.61345552978516,166.48018916015624,105.56715552978515Q166.39348916015626,105.52075552978516,166.31178916015625,105.46625552978516Q166.23018916015624,105.41165552978515,166.15418916015625,105.34925552978515Q166.07828916015626,105.28695552978516,166.00878916015625,105.21745552978516Q165.93928916015625,105.14805552978515,165.87698916015626,105.07205552978516Q165.81458916015626,104.99615552978516,165.75998916015624,104.91445552978516Q165.70548916015625,104.83275552978516,165.65908916015624,104.74605552978515Q165.61278916015624,104.65945552978516,165.57518916015624,104.56865552978516Q165.53758916015624,104.47785552978516,165.50908916015624,104.38385552978515Q165.48058916015626,104.28985552978516,165.46138916015624,104.19345552978515Q165.44218916015626,104.09705552978515,165.43258916015625,103.99935552978516Q165.42298916015625,103.90155552978516,165.42298916015625,103.80325552978516Q165.42298916015625,103.70505552978516,165.43258916015625,103.60725552978516Q165.44218916015626,103.50945552978516,165.46138916015624,103.41305552978515Q165.48058916015626,103.31675552978515,165.50908916015624,103.22265552978516Q165.53758916015624,103.12865552978516,165.57518916015624,103.03795552978515Q165.61278916015624,102.94715552978516,165.65908916015624,102.86045552978516Q165.70548916015625,102.77385552978515,165.75998916015624,102.69215552978515Q165.81458916015626,102.61045552978516,165.87698916015626,102.53445552978516Q165.93928916015625,102.45855552978516,166.00878916015625,102.38905552978515L175.32248916015624,93.07535552978516L154.23638916015625,93.07535552978516Q154.13813546015626,93.07535552978516,154.04035516015625,93.06572552978515Q153.94257416015625,93.05609552978515,153.84620816015624,93.03692552978515Q153.74984316015625,93.01775552978516,153.65582016015625,92.98923552978516Q153.56179716015626,92.96071552978516,153.47102216015625,92.92311552978515Q153.38024816015624,92.88551552978515,153.29359616015626,92.83919552978516Q153.20693916015625,92.79288552978515,153.12524916015624,92.73829552978516Q153.04354916015626,92.68370552978516,152.96759916015625,92.62137552978515Q152.89164916015625,92.55904552978515,152.82217916015625,92.48956552978515Q152.75269916015625,92.42009552978516,152.69036916015625,92.34414552978515Q152.62803916015625,92.26819552978516,152.57344916015626,92.18649552978516Q152.51885916015624,92.10480552978515,152.47254916015626,92.01814852978515Q152.42622916015625,91.93149652978515,152.38862916015626,91.84072252978515Q152.35102916015626,91.74994752978516,152.32250916015624,91.65592452978515Q152.29398916015626,91.56190152978516,152.27481916015626,91.46553652978515Q152.25564916015625,91.36917052978515,152.24601916015624,91.27138952978515Q152.23638916015625,91.17360922978516,152.23638916015625,91.07535552978516Q152.23638916015625,90.97710182978516,152.24601916015624,90.87932152978516Q152.25564916015625,90.78154052978516,152.27481916015626,90.68517452978516Q152.29398916015626,90.58880952978515,152.32250916015624,90.49478652978516Q152.35102916015626,90.40076352978515,152.38862916015626,90.30998852978516Q152.42622916015625,90.21921452978516,152.47254916015626,90.13256252978516Q152.51885916015624,90.04590552978516,152.57344916015626,89.96421552978515Q152.62803916015625,89.88251552978515,152.69036916015625,89.80656552978516Q152.75269916015625,89.73061552978515,152.82217916015625,89.66114552978516Q152.89164916015625,89.59166552978516,152.96759916015625,89.52933552978516Q153.04354916015626,89.46700552978515,153.12524916015624,89.41241552978515Q153.20693916015625,89.35782552978516,153.29359616015626,89.31151552978515Q153.38024816015624,89.26519552978516,153.47102216015625,89.22759552978516Q153.56179716015626,89.18999552978515,153.65582016015625,89.16147552978515Q153.74984316015625,89.13295552978515,153.84620816015624,89.11378552978516Q153.94257416015625,89.09461552978516,154.04035516015625,89.08498552978516Q154.13813546015626,89.07535552978516,154.23638916015625,89.07535552978516L175.32248916015624,89.07535552978516Z" fill-rule="evenodd" fill="#FFFFFF" fill-opacity="1"/></g><g transform="matrix(-1,0,0,-1,55.82902526855469,182.1507110595703)"><path d="M49.000612634277346,89.07535552978516L39.68691263427734,79.76165552978516Q39.61741263427734,79.69215552978515,39.55511263427734,79.61625552978515Q39.492712634277346,79.54025552978516,39.438112634277346,79.45855552978516Q39.38361263427734,79.37685552978516,39.33721263427734,79.29025552978516Q39.29091263427735,79.20355552978515,39.25331263427734,79.11275552978516Q39.215712634277345,79.02205552978515,39.187212634277344,78.92805552978515Q39.15871263427734,78.83395552978516,39.139512634277345,78.73765552978516Q39.12031263427734,78.64125552978516,39.11071263427734,78.54345552978515Q39.10111263427734,78.44565552978516,39.10111263427734,78.34745552978515Q39.10111263427734,78.24915552978516,39.11071263427734,78.15135552978515Q39.12031263427734,78.05365552978516,39.139512634277345,77.95725552978516Q39.15871263427734,77.86085552978516,39.187212634277344,77.76685552978516Q39.215712634277345,77.67285552978515,39.25331263427734,77.58205552978515Q39.29091263427735,77.49125552978515,39.33721263427734,77.40465552978516Q39.38361263427734,77.31795552978515,39.438112634277346,77.23625552978515Q39.492712634277346,77.15455552978516,39.55511263427734,77.07865552978515Q39.61741263427734,77.00265552978516,39.68691263427734,76.93325552978516Q39.756412634277346,76.86375552978515,39.83231263427734,76.80145552978516Q39.908312634277344,76.73905552978516,39.989912634277346,76.68445552978515Q40.07161263427734,76.62995552978515,40.158312634277344,76.58355552978516Q40.24491263427734,76.53725552978516,40.33571263427734,76.49965552978516Q40.426512634277344,76.46205552978516,40.520512634277345,76.43355552978515Q40.61451263427735,76.40505552978516,40.71091263427734,76.38585552978516Q40.807312634277345,76.36665552978516,40.905112634277344,76.35705552978516Q41.00281263427735,76.34745552978515,41.10111263427734,76.34745552978515Q41.19931263427735,76.34745552978515,41.29711263427734,76.35705552978516Q41.39491263427735,76.36665552978516,41.49131263427734,76.38585552978516Q41.58761263427734,76.40505552978516,41.681712634277346,76.43355552978515Q41.77571263427734,76.46205552978516,41.86651263427734,76.49965552978516Q41.95721263427734,76.53725552978516,42.04391263427735,76.58355552978516Q42.130512634277345,76.62995552978515,42.21221263427734,76.68445552978515Q42.29391263427735,76.73905552978516,42.36991263427734,76.80145552978516Q42.445812634277345,76.86375552978515,42.51531263427734,76.93325552978516L55.24321263427734,89.66114552978516Q55.31271263427735,89.73061552978515,55.37501263427734,89.80656552978516Q55.437412634277344,89.88251552978515,55.49191263427734,89.96421552978515Q55.54651263427735,90.04590552978516,55.59291263427734,90.13256152978515Q55.63921263427734,90.21921352978515,55.67681263427734,90.30998852978516Q55.714412634277345,90.40076352978515,55.742912634277346,90.49478552978516Q55.77141263427734,90.58880852978515,55.790612634277345,90.68517452978516Q55.80981263427734,90.78154052978516,55.81941263427734,90.87932152978516Q55.82901263427735,90.97710172978516,55.82901263427735,91.07535539012315Q55.82901263427735,91.17360902978515,55.81941263427734,91.27138952978515Q55.809712634277346,91.36917052978515,55.790612634277345,91.46553552978516Q55.77141263427734,91.56190152978516,55.742912634277346,91.65592452978515Q55.714412634277345,91.74994752978516,55.67681263427734,91.84072252978515Q55.63921263427734,91.93149652978515,55.59291263427734,92.01814852978515Q55.54651263427735,92.10480552978515,55.49191263427734,92.18649552978516Q55.437412634277344,92.26819552978516,55.37501263427734,92.34414552978515Q55.31271263427735,92.42009552978516,55.24321263427734,92.48956552978515L42.51531263427734,105.21745552978516Q42.445812634277345,105.28695552978516,42.36991263427734,105.34925552978515Q42.29391263427735,105.41165552978515,42.21221263427734,105.46625552978516Q42.130512634277345,105.52075552978516,42.04391263427735,105.56715552978515Q41.95721263427734,105.61345552978516,41.86651263427734,105.65105552978515Q41.77571263427734,105.68865552978515,41.681712634277346,105.71715552978516Q41.58761263427734,105.74565552978515,41.49131263427734,105.76485552978515Q41.39491263427735,105.78405552978515,41.29711263427734,105.79365552978516Q41.19931263427735,105.80325552978516,41.10111263427734,105.80325552978516Q41.00281263427735,105.80325552978516,40.905112634277344,105.79365552978516Q40.807312634277345,105.78405552978515,40.71091263427734,105.76485552978515Q40.61451263427735,105.74565552978515,40.520512634277345,105.71715552978516Q40.426512634277344,105.68865552978515,40.33571263427734,105.65105552978515Q40.24491263427734,105.61345552978516,40.158312634277344,105.56715552978515Q40.07161263427734,105.52075552978516,39.989912634277346,105.46625552978516Q39.908312634277344,105.41165552978515,39.83231263427734,105.34925552978515Q39.756412634277346,105.28695552978516,39.68691263427734,105.21745552978516Q39.61741263427734,105.14805552978515,39.55511263427734,105.07205552978516Q39.492712634277346,104.99615552978516,39.438112634277346,104.91445552978516Q39.38361263427734,104.83275552978516,39.33721263427734,104.74605552978515Q39.29091263427735,104.65945552978516,39.25331263427734,104.56865552978516Q39.215712634277345,104.47785552978516,39.187212634277344,104.38385552978515Q39.15871263427734,104.28985552978516,39.139512634277345,104.19345552978515Q39.12031263427734,104.09705552978515,39.11071263427734,103.99935552978516Q39.10111263427734,103.90155552978516,39.10111263427734,103.80325552978516Q39.10111263427734,103.70505552978516,39.11071263427734,103.60725552978516Q39.12031263427734,103.50945552978516,39.139512634277345,103.41305552978515Q39.15871263427734,103.31675552978515,39.187212634277344,103.22265552978516Q39.215712634277345,103.12865552978516,39.25331263427734,103.03795552978515Q39.29091263427735,102.94715552978516,39.33721263427734,102.86045552978516Q39.38361263427734,102.77385552978515,39.438112634277346,102.69215552978515Q39.492712634277346,102.61045552978516,39.55511263427734,102.53445552978516Q39.61741263427734,102.45855552978516,39.68691263427734,102.38905552978515L49.000612634277346,93.07535552978516L27.914512634277344,93.07535552978516Q27.816258934277343,93.07535552978516,27.718478634277343,93.06572552978515Q27.620697634277345,93.05609552978515,27.524331634277345,93.03692552978515Q27.427966634277343,93.01775552978516,27.333943634277343,92.98923552978516Q27.239920634277343,92.96071552978516,27.149145634277343,92.92311552978515Q27.058371634277343,92.88551552978515,26.971719634277342,92.83919552978516Q26.885062634277343,92.79288552978515,26.803372634277345,92.73829552978516Q26.721672634277343,92.68370552978516,26.645722634277345,92.62137552978515Q26.569772634277342,92.55904552978515,26.500302634277343,92.48956552978515Q26.430822634277344,92.42009552978516,26.368492634277345,92.34414552978515Q26.306162634277342,92.26819552978516,26.251572634277345,92.18649552978516Q26.196982634277344,92.10480552978515,26.150672634277342,92.01814852978515Q26.104352634277344,91.93149652978515,26.066752634277343,91.84072252978515Q26.029152634277345,91.74994752978516,26.000632634277345,91.65592452978515Q25.972112634277345,91.56190152978516,25.952942634277342,91.46553652978515Q25.933772634277343,91.36917052978515,25.924142634277345,91.27138952978515Q25.914512634277344,91.17360922978516,25.914512634277344,91.07535552978516Q25.914512634277344,90.97710182978516,25.924142634277345,90.87932152978516Q25.933772634277343,90.78154052978516,25.952942634277342,90.68517452978516Q25.972112634277345,90.58880952978515,26.000632634277345,90.49478652978516Q26.029152634277345,90.40076352978515,26.066752634277343,90.30998852978516Q26.104352634277344,90.21921452978516,26.150672634277342,90.13256252978516Q26.196982634277344,90.04590552978516,26.251572634277345,89.96421552978515Q26.306162634277342,89.88251552978515,26.368492634277345,89.80656552978516Q26.430822634277344,89.73061552978515,26.500302634277343,89.66114552978516Q26.569772634277342,89.59166552978516,26.645722634277345,89.52933552978516Q26.721672634277343,89.46700552978515,26.803372634277345,89.41241552978515Q26.885062634277343,89.35782552978516,26.971719634277342,89.31151552978515Q27.058371634277343,89.26519552978516,27.149145634277343,89.22759552978516Q27.239920634277343,89.18999552978515,27.333943634277343,89.16147552978515Q27.427966634277343,89.13295552978515,27.524331634277345,89.11378552978516Q27.620697634277345,89.09461552978516,27.718478634277343,89.08498552978516Q27.816258934277343,89.07535552978516,27.914512634277344,89.07535552978516L49.000612634277346,89.07535552978516Z" fill-rule="evenodd" fill="#FFFFFF" fill-opacity="1"/></g></g><script xmlns=""/></svg>