<svg xmlns="http://www.w3.org/2000/svg" xmlns:xlink="http://www.w3.org/1999/xlink" fill="none" version="1.1" width="100.13671875" height="182.15234375" viewBox="0 0 100.13671875 182.15234375"><g><g><g/><g><g><path d="M59.799859690551756,67.59266951370239L59.799859690551756,73.82986951370239L80.82207969055176,73.8301695137024L82.82207969055176,73.83026951370239C82.82207969055176,73.1609695137024,82.79987969055176,72.4939695137024,82.75567969055176,71.83026951370239C82.27427969055177,64.59356951370239,79.19297969055177,57.74676951370239,74.03967969055176,52.59354951370239C68.88777969055175,47.42191951370239,62.06107969055176,44.33915751370239,54.84597969055176,43.856471513702395C54.182269690551756,43.81206951370239,53.51526569055176,43.78966951370239,52.84597969055176,43.78966951370239L52.84597969055176,61.59266951370239L53.799856690551756,61.59266951370239C57.113569690551756,61.59266951370239,59.799859690551756,64.27896951370239,59.799859690551756,67.59266951370239ZM54.84597969055176,59.65396951370239Q57.49239969055176,59.97146951370239,59.45670969055176,61.93586951370239Q61.799859690551756,64.27896951370239,61.799859690551756,67.59266951370239L61.799859690551756,71.82986951370239L80.75987969055176,71.8301695137024Q80.10787969055175,61.4901695137024,72.62547969055176,54.00776951370239Q65.15407969055175,46.50778951370239,54.84597969055176,45.852419513702394L54.84597969055176,59.65396951370239Z" fill-rule="evenodd" fill="#FFFFFF" fill-opacity="1"/></g><g transform="matrix(-1,0,0,1,93.32709503173828,0)"><path d="M53.61742751586914,67.59266951370239L53.61742751586914,73.82986951370239L74.63964751586914,73.8301695137024L76.63964751586914,73.83026951370239C76.63964751586914,73.1609695137024,76.61744751586915,72.4939695137024,76.57324751586914,71.83026951370239C76.09184751586915,64.59356951370239,73.01054751586915,57.74676951370239,67.85724751586915,52.59354951370239C62.705347515869136,47.42191951370239,55.87864751586914,44.33915751370239,48.66354751586914,43.856471513702395C47.99983751586914,43.81206951370239,47.33283351586914,43.78966951370239,46.66354751586914,43.78966951370239L46.66354751586914,61.59266951370239L47.61742451586914,61.59266951370239C50.93113751586914,61.59266951370239,53.61742751586914,64.27896951370239,53.61742751586914,67.59266951370239ZM48.66354751586914,59.65396951370239Q51.30996751586914,59.97146951370239,53.274277515869144,61.93586951370239Q55.61742751586914,64.27896951370239,55.61742751586914,67.59266951370239L55.61742751586914,71.82986951370239L74.57744751586914,71.8301695137024Q73.92544751586914,61.4901695137024,66.44304751586914,54.00776951370239Q58.97164751586914,46.50778951370239,48.66354751586914,45.852419513702394L48.66354751586914,59.65396951370239Z" fill-rule="evenodd" fill="#FFFFFF" fill-opacity="1"/></g><g transform="matrix(0,1,-1,0,121.6723313331604,10.411837100982666)"><rect x="55.63024711608887" y="66.04208421707153" width="25.033966064453125" height="11.126206398010254" rx="2" fill="#FFFFFF" fill-opacity="1"/></g><g><path d="M40.33172549127769,78.5590672492981L16.688525491277687,78.5590672492981L16.688525491277687,104.9837672492981C16.688525491277687,123.4182672492981,31.632625491277686,138.3624672492981,50.067125491277686,138.3624672492981C68.50162549127768,138.3624672492981,83.44572549127768,123.4182672492981,83.44572549127768,104.9837672492981L83.44572549127768,78.5590672492981L59.802525491277684,78.5590672492981L59.802525491277684,93.2483672492981C59.802525491277684,94.3529672492981,58.90712549127769,95.2483672492981,57.802525491277684,95.2483672492981L42.33172549127769,95.2483672492981C41.22712549127769,95.2483672492981,40.33172549127769,94.3529672492981,40.33172549127769,93.2483672492981L40.33172549127769,78.5590672492981ZM18.688525491277687,104.9837672492981L18.688525491277687,80.5590672492981L38.33172549127769,80.5590672492981L38.33172549127769,93.2483672492981Q38.33172549127769,94.90526724929809,39.50332549127769,96.0767672492981Q40.67482549127769,97.2483672492981,42.33172549127769,97.2483672492981L57.80262549127769,97.2483672492981Q59.459425491277685,97.2483672492981,60.63102549127769,96.0767672492981Q61.80262549127769,94.90526724929809,61.80262549127769,93.2483672492981L61.80262549127769,80.5590672492981L81.44572549127768,80.5590672492981L81.44572549127768,104.9837672492981Q81.44572549127768,117.9812672492981,72.25522549127768,127.17186724929809Q63.06462549127769,136.3624672492981,50.067125491277686,136.3624672492981Q37.06972549127769,136.3624672492981,27.879125491277687,127.17186724929809Q18.688525491277687,117.9812672492981,18.688525491277687,104.9837672492981Z" fill-rule="evenodd" fill="#FFFFFF" fill-opacity="1"/></g></g></g><g transform="matrix(0,-1,-1,0,77.98115158081055,77.98115158081055)"><path d="M71.1527389465332,25.914512634277344L61.8390389465332,16.600812634277343Q61.7695389465332,16.53131263427734,61.7072389465332,16.455412634277344Q61.644838946533206,16.379412634277344,61.590238946533205,16.297712634277346Q61.5357389465332,16.216012634277345,61.4893389465332,16.129412634277344Q61.44303894653321,16.042712634277343,61.4054389465332,15.951912634277344Q61.367838946533205,15.861212634277344,61.3393389465332,15.767212634277344Q61.3108389465332,15.673112634277343,61.291638946533205,15.576812634277344Q61.2724389465332,15.480412634277343,61.2628389465332,15.382612634277343Q61.2532389465332,15.284812634277344,61.2532389465332,15.186612634277344Q61.2532389465332,15.088312634277344,61.2628389465332,14.990512634277344Q61.2724389465332,14.892812634277345,61.291638946533205,14.796412634277344Q61.3108389465332,14.700012634277345,61.3393389465332,14.606012634277343Q61.367838946533205,14.512012634277344,61.4054389465332,14.421212634277344Q61.44303894653321,14.330412634277344,61.4893389465332,14.243812634277344Q61.5357389465332,14.157112634277343,61.590238946533205,14.075412634277344Q61.644838946533206,13.993712634277344,61.7072389465332,13.917812634277343Q61.7695389465332,13.841812634277344,61.8390389465332,13.772412634277345Q61.908538946533206,13.702912634277343,61.9844389465332,13.640612634277344Q62.0604389465332,13.578212634277344,62.142038946533205,13.523612634277344Q62.2237389465332,13.469112634277344,62.3104389465332,13.422712634277344Q62.3970389465332,13.376412634277344,62.4878389465332,13.338812634277344Q62.578638946533204,13.301212634277343,62.672638946533205,13.272712634277344Q62.766638946533206,13.244212634277345,62.8630389465332,13.225012634277343Q62.959438946533204,13.205812634277343,63.057238946533204,13.196212634277344Q63.15493894653321,13.186612634277344,63.2532389465332,13.186612634277344Q63.35143894653321,13.186612634277344,63.4492389465332,13.196212634277344Q63.547038946533206,13.205812634277343,63.6434389465332,13.225012634277343Q63.7397389465332,13.244212634277345,63.833838946533206,13.272712634277344Q63.9278389465332,13.301212634277343,64.0186389465332,13.338812634277344Q64.1093389465332,13.376412634277344,64.1960389465332,13.422712634277344Q64.2826389465332,13.469112634277344,64.36433894653321,13.523612634277344Q64.4460389465332,13.578212634277344,64.5220389465332,13.640612634277344Q64.5979389465332,13.702912634277343,64.6674389465332,13.772412634277345L77.3953389465332,26.500302634277343Q77.4648389465332,26.569772634277342,77.5271389465332,26.645722634277345Q77.5895389465332,26.721672634277343,77.6440389465332,26.803372634277345Q77.69863894653321,26.885062634277343,77.7450389465332,26.971718634277345Q77.7913389465332,27.058370634277345,77.8289389465332,27.149145634277343Q77.86653894653321,27.239920634277343,77.8950389465332,27.333942634277342Q77.9235389465332,27.427965634277342,77.94273894653321,27.524331634277345Q77.9619389465332,27.620697634277345,77.9715389465332,27.718478634277343Q77.9811389465332,27.816258834277345,77.9811389465332,27.914512494615344Q77.9811389465332,28.012766134277342,77.9715389465332,28.110546634277345Q77.9618389465332,28.208327634277342,77.94273894653321,28.304692634277345Q77.9235389465332,28.401058634277344,77.8950389465332,28.495081634277344Q77.86653894653321,28.589104634277344,77.8289389465332,28.679879634277345Q77.7913389465332,28.770653634277345,77.7450389465332,28.857305634277346Q77.69863894653321,28.943962634277344,77.6440389465332,29.025652634277343Q77.5895389465332,29.107352634277344,77.5271389465332,29.183302634277343Q77.4648389465332,29.259252634277345,77.3953389465332,29.328722634277344L64.6674389465332,42.05661263427734Q64.5979389465332,42.12611263427735,64.5220389465332,42.18841263427734Q64.4460389465332,42.250812634277345,64.36433894653321,42.305412634277346Q64.2826389465332,42.35991263427734,64.1960389465332,42.40631263427734Q64.1093389465332,42.452612634277344,64.0186389465332,42.49021263427734Q63.9278389465332,42.527812634277346,63.833838946533206,42.55631263427735Q63.7397389465332,42.58481263427734,63.6434389465332,42.604012634277346Q63.547038946533206,42.623212634277344,63.4492389465332,42.63281263427734Q63.35143894653321,42.64241263427734,63.2532389465332,42.64241263427734Q63.15493894653321,42.64241263427734,63.057238946533204,42.63281263427734Q62.959438946533204,42.623212634277344,62.8630389465332,42.604012634277346Q62.766638946533206,42.58481263427734,62.672638946533205,42.55631263427735Q62.578638946533204,42.527812634277346,62.4878389465332,42.49021263427734Q62.3970389465332,42.452612634277344,62.3104389465332,42.40631263427734Q62.2237389465332,42.35991263427734,62.142038946533205,42.305412634277346Q62.0604389465332,42.250812634277345,61.9844389465332,42.18841263427734Q61.908538946533206,42.12611263427735,61.8390389465332,42.05661263427734Q61.7695389465332,41.98721263427734,61.7072389465332,41.91121263427735Q61.644838946533206,41.835312634277344,61.590238946533205,41.753612634277346Q61.5357389465332,41.67191263427735,61.4893389465332,41.58521263427734Q61.44303894653321,41.49861263427734,61.4054389465332,41.40781263427734Q61.367838946533205,41.31701263427735,61.3393389465332,41.223012634277346Q61.3108389465332,41.129012634277345,61.291638946533205,41.03261263427734Q61.2724389465332,40.93621263427734,61.2628389465332,40.83851263427734Q61.2532389465332,40.740712634277344,61.2532389465332,40.64241263427734Q61.2532389465332,40.54421263427734,61.2628389465332,40.446412634277344Q61.2724389465332,40.348612634277345,61.291638946533205,40.25221263427734Q61.3108389465332,40.15591263427734,61.3393389465332,40.061812634277345Q61.367838946533205,39.967812634277344,61.4054389465332,39.877112634277346Q61.44303894653321,39.786312634277344,61.4893389465332,39.699612634277344Q61.5357389465332,39.61301263427734,61.590238946533205,39.53131263427734Q61.644838946533206,39.449612634277344,61.7072389465332,39.37361263427734Q61.7695389465332,39.297712634277346,61.8390389465332,39.22821263427734L71.1527389465332,29.914512634277344L50.0666389465332,29.914512634277344Q49.9683852465332,29.914512634277344,49.870604946533206,29.904882634277342Q49.7728239465332,29.895252634277345,49.676457946533205,29.876082634277346Q49.580092946533206,29.856912634277343,49.486069946533206,29.828392634277343Q49.392046946533206,29.799872634277342,49.301271946533205,29.762272634277345Q49.2104979465332,29.724672634277344,49.1238459465332,29.678352634277346Q49.037188946533206,29.632042634277344,48.955498946533204,29.577452634277343Q48.873798946533206,29.522862634277345,48.7978489465332,29.460532634277342Q48.7218989465332,29.398202634277343,48.652428946533206,29.328722634277344Q48.5829489465332,29.259252634277345,48.520618946533205,29.183302634277343Q48.4582889465332,29.107352634277344,48.403698946533204,29.025652634277343Q48.34910894653321,28.943962634277344,48.3027989465332,28.857305634277346Q48.2564789465332,28.770653634277345,48.2188789465332,28.679879634277345Q48.181278946533205,28.589104634277344,48.152758946533204,28.495081634277344Q48.124238946533204,28.401058634277344,48.1050689465332,28.304693634277342Q48.085898946533206,28.208327634277342,48.076268946533204,28.110546634277345Q48.0666389465332,28.012766334277345,48.0666389465332,27.914512634277344Q48.0666389465332,27.816258934277343,48.076268946533204,27.718478634277343Q48.085898946533206,27.620697634277345,48.1050689465332,27.524331634277345Q48.124238946533204,27.427966634277343,48.152758946533204,27.333943634277343Q48.181278946533205,27.239920634277343,48.2188789465332,27.149145634277343Q48.2564789465332,27.058371634277343,48.3027989465332,26.971719634277342Q48.34910894653321,26.885062634277343,48.403698946533204,26.803372634277345Q48.4582889465332,26.721672634277343,48.520618946533205,26.645722634277345Q48.5829489465332,26.569772634277342,48.652428946533206,26.500302634277343Q48.7218989465332,26.430822634277344,48.7978489465332,26.368492634277345Q48.873798946533206,26.306162634277342,48.955498946533204,26.251572634277345Q49.037188946533206,26.196982634277344,49.1238459465332,26.150672634277342Q49.2104979465332,26.104352634277344,49.301271946533205,26.066752634277343Q49.392046946533206,26.029152634277345,49.486069946533206,26.000632634277345Q49.580092946533206,25.972112634277345,49.676457946533205,25.952942634277342Q49.7728239465332,25.933772634277343,49.870604946533206,25.924142634277345Q49.9683852465332,25.914512634277344,50.0666389465332,25.914512634277344L71.1527389465332,25.914512634277344Z" fill-rule="evenodd" fill="#FFFFFF" fill-opacity="1"/></g><g transform="matrix(0,1,-1,0,204.3042335510254,104.17095565795898)"><path d="M71.1527389465332,152.2375946044922L61.8390389465332,142.92389460449218Q61.7695389465332,142.8543946044922,61.7072389465332,142.77849460449218Q61.644838946533206,142.7024946044922,61.590238946533205,142.62079460449218Q61.5357389465332,142.5390946044922,61.4893389465332,142.4524946044922Q61.44303894653321,142.36579460449218,61.4054389465332,142.27499460449218Q61.367838946533205,142.18429460449218,61.3393389465332,142.0902946044922Q61.3108389465332,141.9961946044922,61.291638946533205,141.89989460449218Q61.2724389465332,141.8034946044922,61.2628389465332,141.70569460449218Q61.2532389465332,141.60789460449217,61.2532389465332,141.50969460449218Q61.2532389465332,141.4113946044922,61.2628389465332,141.31359460449218Q61.2724389465332,141.21589460449218,61.291638946533205,141.1194946044922Q61.3108389465332,141.0230946044922,61.3393389465332,140.92909460449218Q61.367838946533205,140.83509460449218,61.4054389465332,140.74429460449218Q61.44303894653321,140.65349460449218,61.4893389465332,140.56689460449218Q61.5357389465332,140.4801946044922,61.590238946533205,140.39849460449219Q61.644838946533206,140.3167946044922,61.7072389465332,140.24089460449218Q61.7695389465332,140.1648946044922,61.8390389465332,140.0954946044922Q61.908538946533206,140.02599460449218,61.9844389465332,139.9636946044922Q62.0604389465332,139.9012946044922,62.142038946533205,139.8466946044922Q62.2237389465332,139.79219460449218,62.3104389465332,139.74579460449218Q62.3970389465332,139.6994946044922,62.4878389465332,139.66189460449218Q62.578638946533204,139.62429460449218,62.672638946533205,139.5957946044922Q62.766638946533206,139.5672946044922,62.8630389465332,139.54809460449218Q62.959438946533204,139.5288946044922,63.057238946533204,139.5192946044922Q63.15493894653321,139.50969460449218,63.2532389465332,139.50969460449218Q63.35143894653321,139.50969460449218,63.4492389465332,139.5192946044922Q63.547038946533206,139.5288946044922,63.6434389465332,139.54809460449218Q63.7397389465332,139.5672946044922,63.833838946533206,139.5957946044922Q63.9278389465332,139.62429460449218,64.0186389465332,139.66189460449218Q64.1093389465332,139.6994946044922,64.1960389465332,139.74579460449218Q64.2826389465332,139.79219460449218,64.36433894653321,139.8466946044922Q64.4460389465332,139.9012946044922,64.5220389465332,139.9636946044922Q64.5979389465332,140.02599460449218,64.6674389465332,140.0954946044922L77.3953389465332,152.8233846044922Q77.4648389465332,152.8928546044922,77.5271389465332,152.9688046044922Q77.5895389465332,153.0447546044922,77.6440389465332,153.12645460449218Q77.69863894653321,153.2081446044922,77.7450389465332,153.2948006044922Q77.7913389465332,153.38145260449218,77.8289389465332,153.4722276044922Q77.86653894653321,153.5630026044922,77.8950389465332,153.6570246044922Q77.9235389465332,153.7510476044922,77.94273894653321,153.84741360449217Q77.9619389465332,153.9437796044922,77.9715389465332,154.0415606044922Q77.9811389465332,154.13934080449218,77.9811389465332,154.23759446483018Q77.9811389465332,154.3358481044922,77.9715389465332,154.43362860449218Q77.9618389465332,154.53140960449218,77.94273894653321,154.62777460449217Q77.9235389465332,154.7241406044922,77.8950389465332,154.81816360449218Q77.86653894653321,154.91218660449218,77.8289389465332,155.00296160449219Q77.7913389465332,155.0937356044922,77.7450389465332,155.18038760449218Q77.69863894653321,155.26704460449218,77.6440389465332,155.3487346044922Q77.5895389465332,155.43043460449218,77.5271389465332,155.50638460449218Q77.4648389465332,155.5823346044922,77.3953389465332,155.65180460449218L64.6674389465332,168.3796946044922Q64.5979389465332,168.4491946044922,64.5220389465332,168.51149460449219Q64.4460389465332,168.57389460449218,64.36433894653321,168.62849460449218Q64.2826389465332,168.6829946044922,64.1960389465332,168.7293946044922Q64.1093389465332,168.77569460449217,64.0186389465332,168.8132946044922Q63.9278389465332,168.8508946044922,63.833838946533206,168.87939460449218Q63.7397389465332,168.90789460449218,63.6434389465332,168.9270946044922Q63.547038946533206,168.94629460449218,63.4492389465332,168.9558946044922Q63.35143894653321,168.9654946044922,63.2532389465332,168.9654946044922Q63.15493894653321,168.9654946044922,63.057238946533204,168.9558946044922Q62.959438946533204,168.94629460449218,62.8630389465332,168.9270946044922Q62.766638946533206,168.90789460449218,62.672638946533205,168.87939460449218Q62.578638946533204,168.8508946044922,62.4878389465332,168.8132946044922Q62.3970389465332,168.77569460449217,62.3104389465332,168.7293946044922Q62.2237389465332,168.6829946044922,62.142038946533205,168.62849460449218Q62.0604389465332,168.57389460449218,61.9844389465332,168.51149460449219Q61.908538946533206,168.4491946044922,61.8390389465332,168.3796946044922Q61.7695389465332,168.31029460449219,61.7072389465332,168.2342946044922Q61.644838946533206,168.15839460449217,61.590238946533205,168.0766946044922Q61.5357389465332,167.99499460449218,61.4893389465332,167.9082946044922Q61.44303894653321,167.8216946044922,61.4054389465332,167.7308946044922Q61.367838946533205,167.6400946044922,61.3393389465332,167.5460946044922Q61.3108389465332,167.45209460449217,61.291638946533205,167.3556946044922Q61.2724389465332,167.2592946044922,61.2628389465332,167.1615946044922Q61.2532389465332,167.0637946044922,61.2532389465332,166.9654946044922Q61.2532389465332,166.8672946044922,61.2628389465332,166.7694946044922Q61.2724389465332,166.6716946044922,61.291638946533205,166.5752946044922Q61.3108389465332,166.4789946044922,61.3393389465332,166.3848946044922Q61.367838946533205,166.2908946044922,61.4054389465332,166.2001946044922Q61.44303894653321,166.1093946044922,61.4893389465332,166.0226946044922Q61.5357389465332,165.93609460449218,61.590238946533205,165.8543946044922Q61.644838946533206,165.7726946044922,61.7072389465332,165.6966946044922Q61.7695389465332,165.62079460449218,61.8390389465332,165.5512946044922L71.1527389465332,156.2375946044922L50.0666389465332,156.2375946044922Q49.9683852465332,156.2375946044922,49.870604946533206,156.2279646044922Q49.7728239465332,156.21833460449218,49.676457946533205,156.19916460449218Q49.580092946533206,156.17999460449218,49.486069946533206,156.1514746044922Q49.392046946533206,156.12295460449218,49.301271946533205,156.08535460449218Q49.2104979465332,156.04775460449218,49.1238459465332,156.00143460449218Q49.037188946533206,155.9551246044922,48.955498946533204,155.90053460449218Q48.873798946533206,155.8459446044922,48.7978489465332,155.7836146044922Q48.7218989465332,155.72128460449218,48.652428946533206,155.65180460449218Q48.5829489465332,155.5823346044922,48.520618946533205,155.50638460449218Q48.4582889465332,155.43043460449218,48.403698946533204,155.3487346044922Q48.34910894653321,155.26704460449218,48.3027989465332,155.18038760449218Q48.2564789465332,155.0937356044922,48.2188789465332,155.00296160449219Q48.181278946533205,154.91218660449218,48.152758946533204,154.81816360449218Q48.124238946533204,154.7241406044922,48.1050689465332,154.6277756044922Q48.085898946533206,154.53140960449218,48.076268946533204,154.43362860449218Q48.0666389465332,154.33584830449217,48.0666389465332,154.2375946044922Q48.0666389465332,154.1393409044922,48.076268946533204,154.0415606044922Q48.085898946533206,153.9437796044922,48.1050689465332,153.84741360449217Q48.124238946533204,153.75104860449218,48.152758946533204,153.6570256044922Q48.181278946533205,153.5630026044922,48.2188789465332,153.4722276044922Q48.2564789465332,153.38145360449218,48.3027989465332,153.2948016044922Q48.34910894653321,153.2081446044922,48.403698946533204,153.12645460449218Q48.4582889465332,153.0447546044922,48.520618946533205,152.9688046044922Q48.5829489465332,152.8928546044922,48.652428946533206,152.8233846044922Q48.7218989465332,152.7539046044922,48.7978489465332,152.6915746044922Q48.873798946533206,152.6292446044922,48.955498946533204,152.5746546044922Q49.037188946533206,152.52006460449218,49.1238459465332,152.4737546044922Q49.2104979465332,152.4274346044922,49.301271946533205,152.3898346044922Q49.392046946533206,152.3522346044922,49.486069946533206,152.32371460449218Q49.580092946533206,152.2951946044922,49.676457946533205,152.2760246044922Q49.7728239465332,152.2568546044922,49.870604946533206,152.24722460449217Q49.9683852465332,152.2375946044922,50.0666389465332,152.2375946044922L71.1527389465332,152.2375946044922Z" fill-rule="evenodd" fill="#FFFFFF" fill-opacity="1"/></g></g><script xmlns=""/></svg>