<svg xmlns="http://www.w3.org/2000/svg" xmlns:xlink="http://www.w3.org/1999/xlink" fill="none" version="1.1" width="125.50390625" height="64.0078125" viewBox="0 0 125.50390625 64.0078125"><g><g><rect x="1" y="1" width="123.50334167480469" height="62.00665283203125" rx="12" fill-opacity="0" stroke-opacity="1" stroke="#FFFFFF" fill="none" stroke-width="2"/></g><g><path d="M31.303953125,46.0093818359375C37.099953125,46.0093818359375,40.627953125000005,42.5533818359375,40.627953125000005,38.3053818359375C40.627953125000005,34.417381835937505,38.359953125000004,32.4733818359375,35.227953125,31.1413818359375L31.591953125,29.5933818359375C29.431953125,28.7293818359375,27.307953125,27.8653818359375,27.307953125,25.5613818359375C27.307953125,23.4733818359375,29.071953125,22.1773818359375,31.771953125,22.1773818359375C34.111953125,22.1773818359375,35.947953125,23.0773818359375,37.603953125000004,24.5533818359375L39.799953125,21.8893818359375C37.783953125,19.8373818359375,34.867953125,18.5413818359375,31.771953125,18.5413818359375C26.731953125,18.5413818359375,23.059953125,21.6733818359375,23.059953125,25.8493818359375C23.059953125,29.7013818359375,25.903953125,31.7173818359375,28.459953125,32.7973818359375L32.131953125,34.3813818359375C34.579953125,35.4613818359375,36.379953125,36.2173818359375,36.379953125,38.6293818359375C36.379953125,40.8613818359375,34.579953125,42.3733818359375,31.375953125000002,42.3733818359375C28.819953124999998,42.3733818359375,26.227953125,41.1493818359375,24.319953124999998,39.2413818359375L21.871953125,42.1213818359375C24.283953125,44.5693818359375,27.667953125,46.0093818359375,31.303953125,46.0093818359375ZM45.271953124999996,45.5413818359375L49.411953125,45.5413818359375L49.411953125,31.5013818359375C51.139953125000005,29.7373818359375,52.399953125,28.8013818359375,54.235953125,28.8013818359375C56.575953125,28.8013818359375,57.583953125,30.1693818359375,57.583953125,33.5893818359375L57.583953125,45.5413818359375L61.723953125,45.5413818359375L61.723953125,33.0853818359375C61.723953125,28.0453818359375,59.851953125,25.2373818359375,55.639953125,25.2373818359375C52.939953125,25.2373818359375,50.959953125,26.7133818359375,49.231953125000004,28.3693818359375L49.411953125,24.4453818359375L49.411953125,16.8493818359375L45.271953124999996,16.8493818359375L45.271953124999996,45.5413818359375ZM67.627953125,45.5413818359375L71.76795312499999,45.5413818359375L71.76795312499999,25.7413818359375L67.627953125,25.7413818359375L67.627953125,45.5413818359375ZM69.679953125,22.0333818359375C71.191953125,22.0333818359375,72.27195312500001,21.0613818359375,72.27195312500001,19.5493818359375C72.27195312500001,18.0733818359375,71.191953125,17.101381835937502,69.679953125,17.101381835937502C68.167953125,17.101381835937502,67.123953125,18.0733818359375,67.123953125,19.5493818359375C67.123953125,21.0613818359375,68.167953125,22.0333818359375,69.679953125,22.0333818359375ZM78.643953125,45.5413818359375L82.783953125,45.5413818359375L82.783953125,29.0533818359375L86.779953125,29.0533818359375L86.779953125,25.7413818359375L82.783953125,25.7413818359375L82.783953125,23.2213818359375C82.783953125,20.8093818359375,83.647953125,19.6573818359375,85.411953125,19.6573818359375C86.095953125,19.6573818359375,86.851953125,19.8373818359375,87.571953125,20.1613818359375L88.399953125,17.0293818359375C87.499953125,16.6693818359375,86.239953125,16.3813818359375,84.907953125,16.3813818359375C80.47995312500001,16.3813818359375,78.643953125,19.1893818359375,78.643953125,23.2573818359375L78.643953125,25.7413818359375L75.94395312500001,25.9573818359375L75.94395312500001,29.0533818359375L78.643953125,29.0533818359375L78.643953125,45.5413818359375ZM97.039953125,46.0093818359375C98.479953125,46.0093818359375,99.811953125,45.6493818359375,100.927953125,45.2893818359375L100.171953125,42.2293818359375C99.595953125,42.4813818359375,98.731953125,42.6973818359375,98.047953125,42.6973818359375C95.995953125,42.6973818359375,95.167953125,41.4733818359375,95.167953125,39.0973818359375L95.167953125,29.0533818359375L100.315953125,29.0533818359375L100.315953125,25.7413818359375L95.167953125,25.7413818359375L95.167953125,20.2693818359375L91.711953125,20.2693818359375L91.243953125,25.7413818359375L88.147953125,25.9573818359375L88.147953125,29.0533818359375L91.027953125,29.0533818359375L91.027953125,39.0613818359375C91.027953125,43.2373818359375,92.575953125,46.0093818359375,97.039953125,46.0093818359375Z" fill="#FFFFFF" fill-opacity="1"/></g></g><script xmlns=""/></svg>