<svg xmlns="http://www.w3.org/2000/svg" xmlns:xlink="http://www.w3.org/1999/xlink" fill="none" version="1.1" width="136.5078125" height="60.5078125" viewBox="0 0 136.5078125 60.5078125"><g><g><g><rect x="77.15234375" y="1" width="58.35496520996094" height="58.50960922241211" rx="12" fill-opacity="0" stroke-opacity="1" stroke="#FFFFFF" fill="none" stroke-width="2"/></g><g><path d="M98.53625375,44.15234375L115.27629375000001,44.15234375L115.27629375000001,39.68834375L103.86429375,39.68834375L103.86429375,32.56034375L113.22429375,32.56034375L113.22429375,28.09634375L103.86429375,28.09634375L103.86429375,21.94034375L114.88029374999999,21.94034375L114.88029374999999,17.476343749999998L98.53625375,17.476343749999998L98.53625375,44.15234375Z" fill="#FFFFFF" fill-opacity="1"/></g></g><g><g><rect x="1" y="1" width="58.35496520996094" height="58.50960922241211" rx="12" fill-opacity="0" stroke-opacity="1" stroke="#FFFFFF" fill="none" stroke-width="2"/></g><g><path d="M29.853875000000002,38.5151875C25.893875,38.5151875,23.373855,34.9151875,23.373855,28.9391875C23.373855,23.2151875,25.893875,19.7951875,29.853875000000002,19.7951875C33.813874999999996,19.7951875,36.333875,23.2151875,36.333875,28.9391875C36.333875,34.9151875,33.813874999999996,38.5151875,29.853875000000002,38.5151875ZM38.457875,49.6031875C40.401875000000004,49.6031875,42.021875,49.2431875,42.957875,48.8111875L41.985875,44.8871875C41.229875,45.1391875,40.221875,45.3191875,39.069874999999996,45.3191875C36.657875000000004,45.3191875,34.245875,44.4911875,33.021875,42.4751875C38.313874999999996,41.1071875,41.769875,36.2111875,41.769875,28.9391875C41.769875,20.2991875,36.909875,15.2231875,29.853875000000002,15.2231875C22.797855,15.2231875,17.937855,20.2631875,17.937855,28.9391875C17.937855,36.5351875,21.717855,41.5751875,27.405875,42.6551875C29.241875,46.6871875,33.021875,49.6031875,38.457875,49.6031875Z" fill="#FFFFFF" fill-opacity="1"/></g></g></g></svg>